<svg xmlns="http://www.w3.org/2000/svg" xmlns:xlink="http://www.w3.org/1999/xlink" viewBox="0 0 2499.5 1606.3" xmlns:v="https://vecta.io/nano"><linearGradient id="A" gradientUnits="userSpaceOnUse" x1="1338.533" x2="1020.183" y1="78" y2="1530.13"><stop offset="0" stop-color="#065071"/><stop offset="1" stop-color="#1f3d78"/></linearGradient><clipPath id="B"><path d="M2499.8 965.1c-506.9 92-674 283.3-1349.4 322.7-378.2 22-796.7 46-1150.6 181.8V1.9h2500z"/></clipPath><linearGradient id="C" gradientUnits="userSpaceOnUse" x1="642.053" x2="642.053" y1="974.34" y2="1451.1"><stop offset="0" stop-color="#006391"/><stop offset="1" stop-color="#1f3d78"/></linearGradient><linearGradient id="D" gradientTransform="matrix(.99 .14 .14 -.99 117.007 707.221)" gradientUnits="userSpaceOnUse" x1="349.794" x2="134.054" y1="-292.475" y2="-746.716"><stop offset="0" stop-color="#006391"/><stop offset="1" stop-color="#9fcde0"/></linearGradient><linearGradient id="E" gradientUnits="userSpaceOnUse" x1="2228.209" x2="2228.209" y1="1524.12" y2="1256.55"><stop offset="0" stop-color="#fff"/><stop offset="1" stop-color="#9fcde0"/></linearGradient><linearGradient id="F" gradientUnits="userSpaceOnUse"><stop offset="0" stop-color="#005c87"/><stop offset="1" stop-color="#245499"/></linearGradient><linearGradient id="G" x1="1928.143" x2="2011.543" xlink:href="#F" y1="226.98" y2="226.98"/><linearGradient id="H" x1="1742.463" x2="1836.813" xlink:href="#F" y1="255.255" y2="255.255"/><linearGradient id="I" x1="1790.973" x2="1864.013" xlink:href="#F" y1="159.13" y2="159.13"/><linearGradient id="J" x1="1099.905" x2="1086.705" xlink:href="#F" y1="721.851" y2="1091.431"/><linearGradient id="K" x1="1095.752" x2="1082.552" xlink:href="#F" y1="721.701" y2="1091.281"/><path d="M2499.8 938.5c-592.3 149.3-689 372.2-1451.1 406.2-272 12.2-701.5 11.4-1048.9 136.6V39.2h2500z" fill="#eaeaea"/><path d="M2499.8 965.2c-506.9 92-674 283.3-1349.4 322.7-378.2 22-796.7 46-1150.6 181.8V0h2500z" fill="url(#A)"/><g clip-path="url(#B)" opacity=".3"><path d="M-.2 1474.8h1284.4c-363.6 0-478.2-538.7-738.1-534.4C347.5 943.6 205.4 1266.9-.2 1409z" fill="url(#C)"/></g><path d="m245.9 1030.7c.2-.5-.1-1-.6-1.1a.8.8 0 0 0 -1.1.6c-.2.5.1 1 .6 1.1.4.2 1-.1 1.1-.6zm29.5 9.3c.3-1-.2-2-1.2-2.3s-2 .2-2.3 1.2.2 2 1.2 2.3c.9.3 1.9-.2 2.3-1.2zm29.4 9.3c.4-1.5-.4-3-1.9-3.4s-3 .4-3.4 1.9c-.4 1.4.4 2.9 1.8 3.4 1.5.5 3-.3 3.5-1.9 0 .1 0 .1 0 0zm29.4 9.4c.6-1.9-.5-4-2.4-4.6s-4 .5-4.6 2.4.5 4 2.4 4.6c2 .6 4-.5 4.6-2.4zm29.5 9.3c.8-2.4-.6-5-3-5.8s-5 .6-5.8 3 .6 5 3 5.8c2.5.7 5-.6 5.8-3zm29.4 9.3c.9-2.9-.7-6-3.6-6.9s-6 .7-6.9 3.6.7 6 3.6 6.9 6-.7 6.9-3.6zm29.5 9.3c1.1-3.4-.8-7-4.2-8.1s-7 .8-8.1 4.2.8 7 4.2 8.1 7-.8 8.1-4.2zm29.4 9.3c1.2-3.9-.9-8-4.8-9.2s-8 .9-9.2 4.8.9 8 4.8 9.2 8-.9 9.2-4.8zm29.5 9.3c1.4-4.3-1-9-5.4-10.4-4.3-1.4-9 1-10.4 5.4-1.4 4.3 1 9 5.4 10.3 4.4 1.5 9-1 10.4-5.3zm29.4 9.3c1.5-4.8-1.2-10-6-11.5s-10 1.2-11.5 6 1.2 10 6 11.5c4.8 1.6 10-1.1 11.5-6 0 .1 0 .1 0 0zm29.4 9.4c1.7-5.3-1.3-11-6.6-12.6-5.3-1.7-11 1.3-12.6 6.6-1.7 5.3 1.3 11 6.6 12.6s11-1.3 12.6-6.6zm29.5 9.3c1.8-5.8-1.4-12-7.2-13.8s-12 1.4-13.8 7.2 1.4 12 7.2 13.8 12-1.4 13.8-7.2zm-9.9 28.3c1.7-5.3-1.3-11-6.6-12.7s-11 1.3-12.7 6.6 1.3 11 6.6 12.7c5.3 1.6 11-1.3 12.7-6.6zm-9.9 28.3c1.5-4.8-1.2-10-6-11.5s-10 1.2-11.5 6 1.2 10 6 11.5 9.9-1.2 11.5-6zm-9.9 28.3c1.4-4.3-1-9-5.4-10.4-4.3-1.4-9 1-10.4 5.4-1.4 4.3 1 9 5.4 10.3 4.3 1.4 9-1 10.4-5.3zm-10 28.2c1.2-3.9-.9-8-4.8-9.2s-8 .9-9.2 4.8.9 8 4.8 9.2c3.9 1.3 8-.9 9.2-4.8zm-9.9 28.3c1.1-3.4-.8-7-4.2-8.1s-7 .8-8.1 4.2.8 7 4.2 8.1h.1c3.4 1.1 7-.8 8-4.2zm-9.9 28.3c.9-2.9-.7-6-3.6-6.9s-6 .7-6.9 3.6.7 6 3.6 6.9 6-.7 6.9-3.6zm-9.9 28.3c.8-2.4-.6-5-3-5.7s-5 .6-5.7 3c-.8 2.4.6 5 3 5.7 2.4.8 4.9-.6 5.7-3zm-9.9 28.3c.6-1.9-.5-4-2.4-4.6s-4 .5-4.6 2.4.5 4 2.4 4.6 4-.5 4.6-2.4zm-9.9 28.3c.5-1.4-.4-3-1.8-3.4-1.4-.5-3 .4-3.4 1.8-.5 1.4.4 3 1.8 3.4s2.9-.4 3.4-1.8zm-9.9 28.3c.3-1-.2-2-1.2-2.3s-2 .2-2.3 1.2.2 2 1.2 2.3c.9.3 1.9-.3 2.3-1.2zm-9.9 28.3c.2-.5-.1-1-.6-1.2a.8.8 0 0 0 -1.1.6c-.2.5.1 1 .6 1.2.4.1.9-.1 1.1-.6zm-251-393.6c.1-.4-.1-.9-.5-1s-.9.1-1 .5.1.9.5 1 .8-.1 1-.5zm29.2 9.2c.3-.9-.2-1.8-1-2.1-.9-.3-1.8.2-2.1 1s.2 1.8 1 2.1h.1c.8.3 1.6-.1 2-1zm29.1 9.3c.4-1.3-.3-2.7-1.6-3.1s-2.7.3-3.1 1.6.3 2.6 1.6 3.1c1.3.4 2.7-.3 3.1-1.6zm29.2 9.2c.5-1.7-.4-3.5-2.1-4.1-1.7-.5-3.5.4-4.1 2.1-.5 1.7.4 3.5 2.1 4.1 1.8.6 3.6-.4 4.1-2.1zm29.2 9.2c.7-2.1-.5-4.4-2.7-5.1-2.1-.7-4.4.5-5.1 2.7-.7 2.1.5 4.4 2.7 5.1s4.4-.5 5.1-2.7zm29.2 9.3c.8-2.6-.6-5.3-3.2-6.1s-5.3.6-6.1 3.2.6 5.3 3.2 6.1c2.5.8 5.3-.7 6.1-3.2zm29.2 9.2c1-3-.7-6.2-3.7-7.2s-6.2.7-7.2 3.7.7 6.2 3.7 7.2c3.1 1 6.3-.7 7.2-3.7zm29.2 9.2c1.1-3.4-.8-7.1-4.2-8.2s-7.1.8-8.2 4.2.8 7.1 4.2 8.2c3.5 1.2 7.1-.7 8.2-4.2zm29.2 9.3c1.2-3.9-.9-8-4.8-9.2s-8 .9-9.2 4.8.9 8 4.8 9.2 8-.9 9.2-4.8zm29.2 9.2c1.4-4.3-1-8.9-5.3-10.2s-8.9 1-10.2 5.3c-1.4 4.3 1 8.9 5.3 10.2 4.2 1.4 8.8-1 10.2-5.3zm29.2 9.2c1.5-4.7-1.1-9.8-5.8-11.3s-9.8 1.1-11.3 5.8 1.1 9.8 5.8 11.3h.1c4.6 1.6 9.6-1 11.2-5.8zm29.2 9.3c1.6-5.2-1.2-10.6-6.4-12.3-5.2-1.6-10.6 1.2-12.3 6.4-1.6 5.1 1.2 10.6 6.4 12.3 5.2 1.6 10.6-1.3 12.3-6.4zm-9.8 28.1c1.5-4.7-1.1-9.8-5.8-11.3s-9.8 1.1-11.3 5.8 1.1 9.8 5.8 11.3h.1c4.7 1.6 9.7-1 11.2-5.8zm-9.8 28.3c1.4-4.3-1-8.9-5.3-10.2-4.3-1.4-8.9 1-10.2 5.3-1.4 4.3 1 8.9 5.3 10.2s8.9-1.1 10.2-5.3zm-9.7 28.1c1.2-3.9-.9-8-4.8-9.2s-8 .9-9.2 4.8.9 8 4.8 9.2c3.8 1.2 7.9-.9 9.2-4.8zm-9.8 28.2c1.1-3.4-.8-7.1-4.2-8.2s-7.1.8-8.2 4.2.8 7.1 4.2 8.2c3.5 1.1 7.1-.8 8.2-4.2zm-9.8 28.2c1-3-.7-6.2-3.7-7.2s-6.2.7-7.2 3.7.7 6.2 3.7 7.2c3.1.9 6.3-.7 7.2-3.7zm-9.7 28.1c.8-2.6-.6-5.3-3.2-6.1s-5.3.6-6.1 3.2.6 5.3 3.2 6.1c2.5.8 5.2-.6 6.1-3.2zm-9.8 28.2c.7-2.1-.5-4.4-2.7-5.1-2.1-.7-4.4.5-5.1 2.7s.5 4.4 2.7 5.1c2.1.6 4.4-.5 5.1-2.7zm-9.8 28.2c.5-1.7-.4-3.5-2.1-4.1-1.7-.5-3.5.4-4.1 2.1-.5 1.7.4 3.5 2.1 4.1 1.8.6 3.6-.4 4.1-2.1zm-9.7 28.2c.4-1.3-.3-2.7-1.6-3.1s-2.7.3-3.1 1.6.3 2.6 1.6 3.1c1.3.4 2.6-.4 3.1-1.6zm-9.8 28.1c.3-.9-.2-1.8-1.1-2-.9-.3-1.8.2-2 1.1-.3.9.2 1.8 1.1 2 .8.3 1.7-.2 2-1.1zm-9.8 28.2c.1-.4-.1-.9-.5-1s-.9.1-1 .5.1.9.5 1c.5.1.9-.1 1-.5zm-249.8-391.4c.1-.4-.1-.8-.5-.9s-.8.1-.9.5.1.8.5.9c.3.1.7-.1.9-.5zm28.9 9.2c.2-.8-.2-1.6-.9-1.8s-1.6.2-1.8.9.2 1.6.9 1.8c.8.2 1.6-.2 1.8-.9zm29 9.1c.4-1.1-.3-2.3-1.4-2.7s-2.3.3-2.7 1.4.3 2.3 1.4 2.7 2.3-.3 2.7-1.4zm28.9 9.2c.5-1.5-.4-3.1-1.9-3.6s-3.1.4-3.6 1.9.4 3.1 1.9 3.6c1.6.4 3.1-.4 3.6-1.9zm29 9.2c.6-1.9-.4-3.9-2.3-4.5s-3.9.4-4.5 2.3.4 3.9 2.3 4.5c1.9.5 3.8-.5 4.5-2.3zm28.9 9.1c.7-2.3-.5-4.7-2.8-5.4s-4.7.5-5.4 2.8.5 4.7 2.8 5.4 4.7-.5 5.4-2.8zm29 9.2c.8-2.6-.6-5.4-3.3-6.3-2.6-.8-5.4.6-6.3 3.3-.8 2.6.6 5.4 3.3 6.3 2.6.7 5.4-.7 6.3-3.3zm28.9 9.1c1-3-.7-6.2-3.7-7.2s-6.2.7-7.2 3.7.7 6.2 3.7 7.2c3.1 1 6.2-.7 7.2-3.7zm29 9.2c1.1-3.4-.8-7-4.2-8.1s-7 .8-8.1 4.2.8 7 4.2 8.1c3.3 1 6.9-.8 8-4.2zm29 9.1c1.2-3.8-.9-7.8-4.7-8.9-3.8-1.2-7.8.9-8.9 4.7-1.2 3.7.9 7.7 4.6 8.9s7.7-.9 8.9-4.7zm28.9 9.2c1.3-4.1-1-8.5-5.1-9.8s-8.5 1-9.8 5.1 1 8.5 5.1 9.8c4.1 1.2 8.4-1 9.7-5.1zm29 9.2c1.4-4.5-1.1-9.3-5.6-10.7s-9.3 1.1-10.7 5.6 1.1 9.3 5.6 10.7 9.2-1.1 10.6-5.6zm-9.7 28c1.3-4.1-1-8.5-5.1-9.8s-8.5 1-9.8 5.1 1 8.5 5.1 9.8c4.1 1.2 8.4-1 9.7-5.1zm-9.6 28c1.2-3.8-.9-7.8-4.7-8.9-3.8-1.2-7.8.9-8.9 4.7-1.2 3.8.9 7.8 4.6 8.9s7.6-.9 8.8-4.6zm-9.6 28c1.1-3.4-.8-7-4.2-8-3.4-1.1-7 .8-8 4.2-1.1 3.4.8 7 4.2 8 3.3 1 6.8-.8 7.9-4zm-9.6 28c1-3-.7-6.2-3.7-7.2s-6.2.7-7.2 3.7.7 6.2 3.7 7.2c2.9.9 6.1-.7 7.1-3.6zm-9.7 28c.8-2.6-.6-5.4-3.2-6.3-2.6-.8-5.4.6-6.3 3.2-.8 2.6.6 5.4 3.2 6.3 2.5.8 5.3-.6 6.2-3.1zm-9.6 28c.7-2.3-.5-4.7-2.8-5.4s-4.7.5-5.4 2.8.5 4.7 2.8 5.4c2.2.7 4.5-.4 5.3-2.5zm-9.6 28c.6-1.9-.4-3.9-2.3-4.5s-3.9.4-4.5 2.3.4 3.9 2.3 4.5c1.8.6 3.7-.3 4.4-2zm-9.6 28c.5-1.5-.4-3.1-1.9-3.6s-3.1.4-3.6 1.9.4 3.1 1.9 3.6c1.4.5 2.9-.2 3.5-1.5zm-9.8 28.4c.4-1.1-.3-2.3-1.4-2.7s-2.3.3-2.7 1.4.3 2.3 1.4 2.7c1.2.3 2.4-.3 2.7-1.4zm-9.6 28c.2-.8-.2-1.6-.9-1.8-.8-.2-1.6.2-1.8.9-.2.8.2 1.6.9 1.8.8.3 1.6-.1 1.8-.9zm-9.6 28c.1-.4-.1-.8-.5-.9s-.8.1-.9.5.1.8.5.9c.3.1.8-.1.9-.5zm-248.7-389.1c.1-.3-.1-.7-.4-.8s-.7.1-.8.4.1.7.4.8.7-.1.8-.4zm28.7 9.1c.2-.6-.2-1.3-.8-1.5s-1.3.2-1.5.8.2 1.3.8 1.5 1.3-.2 1.5-.8zm28.7 9.1c.3-1-.2-2-1.2-2.3s-2 .2-2.3 1.2.2 2 1.2 2.3c.9.3 2-.2 2.3-1.2zm28.7 9.1c.4-1.3-.3-2.7-1.6-3.1s-2.7.3-3.1 1.6.3 2.7 1.6 3.1 2.7-.4 3.1-1.6zm28.7 9a3.037 3.037 0 0 0 -5.8-1.8c-.5 1.6.4 3.3 2 3.8 1.5.5 3.3-.3 3.8-2zm28.7 9.1c.6-1.9-.5-4-2.4-4.6s-4 .5-4.6 2.4.5 4 2.4 4.6 3.9-.4 4.6-2.4zm28.7 9.1c.7-2.3-.5-4.7-2.8-5.4s-4.7.5-5.4 2.8.5 4.7 2.8 5.4c2.2.7 4.6-.5 5.4-2.8-.1 0 0 0 0 0zm28.7 9.1c.8-2.6-.6-5.3-3.2-6.1s-5.3.6-6.1 3.2.6 5.3 3.2 6.1c2.5.8 5.2-.7 6.1-3.2zm28.7 9c.9-2.9-.7-6-3.6-6.9s-6 .7-6.9 3.6.7 6 3.6 6.9c2.8 1 5.9-.6 6.9-3.6 0 .1 0 .1 0 0zm28.6 9.1c1-3.2-.8-6.6-4-7.7-3.2-1-6.6.8-7.7 4-1 3.2.8 6.6 4 7.7 3.3 1 6.7-.7 7.7-4zm28.7 9.1c1.1-3.5-.8-7.3-4.4-8.4-3.5-1.1-7.3.8-8.4 4.4-1.1 3.5.8 7.3 4.4 8.4 3.5 1.1 7.3-.9 8.4-4.4zm28.7 9.1c1.2-3.9-.9-8-4.8-9.2s-8 .9-9.2 4.8.9 8 4.8 9.2 8-.9 9.2-4.8zm-9.4 27.9c1.1-3.5-.8-7.3-4.4-8.5s-7.3.8-8.5 4.4c-1.1 3.5.8 7.3 4.4 8.5 3.6 1.1 7.3-.8 8.5-4.4zm-9.5 27.9c1-3.2-.8-6.6-4-7.7-3.2-1-6.6.8-7.7 4-1 3.2.8 6.6 4 7.7s6.7-.7 7.7-4zm-9.5 28c.9-2.9-.7-6-3.6-6.9s-6 .7-6.9 3.6.7 6 3.6 6.9 6-.7 6.9-3.6zm-9.5 27.9c.8-2.6-.6-5.3-3.2-6.1s-5.3.6-6.1 3.2.6 5.3 3.2 6.1 5.3-.6 6.1-3.2zm-9.4 27.9c.7-2.3-.5-4.7-2.8-5.4s-4.7.5-5.4 2.8.5 4.7 2.8 5.4c2.2.7 4.6-.5 5.4-2.8zm-9.5 28c.6-1.9-.5-4-2.4-4.6s-4 .5-4.6 2.4.5 4 2.4 4.6 4-.5 4.6-2.4zm-9.5 27.9a3.037 3.037 0 0 0 -5.8-1.8 3.037 3.037 0 0 0 5.8 1.8zm-9.5 27.9c.4-1.3-.3-2.7-1.6-3.1s-2.7.3-3.1 1.6.3 2.6 1.6 3.1c1.3.4 2.7-.3 3.1-1.6zm-9.5 27.9c.3-1-.2-2-1.2-2.3s-2 .2-2.3 1.2.2 2 1.2 2.3 2-.2 2.3-1.2c0 .1 0 .1 0 0zm-9.4 28c.2-.6-.1-1.3-.8-1.5-.6-.2-1.3.1-1.5.8-.2.6.1 1.3.8 1.5.6.2 1.3-.2 1.5-.8zm-9.5 27.9c.1-.3-.1-.7-.4-.8s-.7.1-.8.4.1.7.4.8.7-.1.8-.4zm-247.6-387c.1-.3-.1-.6-.3-.6-.3-.1-.6.1-.6.3-.1.3.1.6.3.7s.5-.1.6-.4zm28.4 9c.2-.5-.1-1.1-.7-1.3s-1.1.1-1.3.7.1 1.1.7 1.3c.6.1 1.2-.2 1.3-.7zm28.5 9c.3-.8-.2-1.7-1-1.9-.8-.3-1.7.2-1.9 1-.3.8.2 1.7 1 1.9.8.3 1.6-.2 1.9-1zm28.4 9c.3-1.1-.3-2.2-1.4-2.5s-2.2.3-2.5 1.4c-.3 1 .3 2.1 1.3 2.5 1.1.3 2.3-.3 2.6-1.4zm28.5 9c.4-1.3-.3-2.8-1.7-3.2-1.3-.4-2.8.3-3.2 1.7-.4 1.3.3 2.8 1.7 3.2 1.3.4 2.8-.3 3.2-1.7zm28.4 9a3.037 3.037 0 1 0 -3.8 2c1.6.5 3.3-.3 3.8-1.9zm28.5 9c.6-1.9-.5-3.9-2.3-4.5s-3.9.5-4.5 2.3c-.6 1.9.4 3.9 2.3 4.5s3.9-.4 4.5-2.3zm28.4 9c.7-2.1-.5-4.4-2.7-5.1-2.1-.7-4.4.5-5.1 2.7-.7 2.1.5 4.4 2.6 5.1 2.3.7 4.5-.5 5.2-2.7zm28.5 9c.8-2.4-.6-5-3-5.7-2.4-.8-5 .6-5.7 3-.8 2.4.6 5 3 5.7 2.3.8 4.9-.6 5.7-3zm28.4 9c.8-2.7-.6-5.5-3.3-6.4-2.7-.8-5.5.6-6.4 3.3-.8 2.7.6 5.5 3.3 6.4s5.6-.6 6.4-3.3zm28.5 9c.9-3-.7-6.1-3.6-7-3-.9-6.1.7-7 3.6-.9 3 .7 6.1 3.6 7 2.9 1 6-.6 7-3.6zm28.4 9c1-3.2-.8-6.6-4-7.7s-6.6.8-7.7 4c-1 3.2.8 6.6 4 7.6 3.3 1.1 6.7-.7 7.7-3.9zm-9.3 27.8c.9-2.9-.7-6.1-3.6-7s-6.1.7-7 3.6.7 6.1 3.6 7c2.9 1 6.1-.6 7-3.6zm-9.3 27.8c.8-2.7-.6-5.5-3.3-6.4-2.7-.8-5.5.6-6.4 3.3-.8 2.7.6 5.5 3.3 6.4 2.6.9 5.5-.6 6.4-3.3zm-9.4 27.8c.8-2.4-.6-5-3-5.7-2.4-.8-5 .6-5.7 3-.8 2.4.6 5 3 5.7 2.4.8 5-.5 5.7-3zm-9.3 27.8c.7-2.1-.5-4.4-2.7-5.1-2.1-.7-4.4.5-5.1 2.7-.7 2.1.5 4.4 2.6 5.1 2.2.7 4.5-.5 5.2-2.7 0 .1 0 .1 0 0zm-9.3 27.9c.6-1.9-.5-3.9-2.3-4.5s-3.9.5-4.5 2.3c-.6 1.9.4 3.9 2.3 4.5s3.9-.4 4.5-2.3zm-9.4 27.8a3.037 3.037 0 0 0 -5.8-1.8 3.037 3.037 0 0 0 5.8 1.8zm-9.3 27.8c.4-1.3-.3-2.8-1.7-3.2-1.3-.4-2.8.3-3.2 1.7-.4 1.3.3 2.8 1.7 3.2 1.3.4 2.8-.4 3.2-1.7zm-9.3 27.8c.3-1.1-.3-2.2-1.3-2.5s-2.2.3-2.5 1.3.3 2.1 1.3 2.5 2.1-.2 2.5-1.3c-.1.1 0 0 0 0zm-9.4 27.8c.3-.8-.2-1.7-1-1.9s-1.7.2-1.9 1c-.3.8.2 1.7 1 1.9.8.3 1.7-.2 1.9-1zm-9.3 27.8c.2-.5-.2-1.1-.7-1.2s-1.1.2-1.2.7.1 1.1.6 1.2 1.1-.1 1.3-.7zm-9.3 27.8c.1-.3-.1-.6-.3-.6-.3-.1-.6.1-.6.3-.1.3.1.6.3.6.2.1.5 0 .6-.3zm-246.5-384.8c.1-.2-.1-.4-.3-.5s-.4.1-.5.3 0 .4.3.5c.2 0 .5-.1.5-.3zm28.2 8.9c.1-.4-.1-.9-.5-1s-.9.1-1 .5.1.9.5 1c.4.2.9 0 1-.5zm28.2 8.9c.2-.6-.2-1.3-.8-1.5s-1.3.2-1.5.8.2 1.3.8 1.5 1.3-.1 1.5-.8zm28.2 9c.3-.9-.2-1.8-1-2.1-.9-.3-1.8.2-2.1 1s.2 1.8 1 2.1h.1c.8.3 1.7-.2 2-1zm28.2 8.9c.3-1.1-.3-2.2-1.4-2.5s-2.2.3-2.5 1.4c-.3 1 .3 2.1 1.3 2.5 1.1.3 2.2-.3 2.6-1.4zm28.2 8.9c.4-1.3-.3-2.7-1.6-3.1s-2.7.3-3.1 1.6.3 2.6 1.6 3.1c1.3.4 2.7-.3 3.1-1.6zm28.2 8.9c.5-1.5-.4-3.1-1.9-3.6s-3.1.4-3.6 1.9.4 3.1 1.9 3.6c1.5.4 3.1-.4 3.6-1.9zm28.2 8.9c.5-1.7-.4-3.5-2.1-4.1-1.7-.5-3.5.4-4.1 2.1-.5 1.7.4 3.5 2.1 4.1s3.5-.3 4.1-2.1zm28.2 9c.6-1.9-.5-4-2.4-4.6s-4 .5-4.6 2.4.5 4 2.4 4.6 4-.5 4.6-2.4zm28.2 8.9c.7-2.1-.5-4.4-2.6-5.1s-4.4.5-5.1 2.6.5 4.4 2.6 5.1 4.4-.5 5.1-2.6zm28.2 8.9c.7-2.4-.6-4.9-2.9-5.6-2.4-.7-4.9.6-5.6 2.9-.7 2.4.6 4.9 2.9 5.6 2.3.8 4.8-.5 5.6-2.9zm28.2 8.9c.8-2.6-.6-5.3-3.2-6.1s-5.3.6-6.1 3.2.6 5.3 3.2 6.1c2.5.8 5.3-.6 6.1-3.2zm-9.2 27.7c.7-2.4-.6-4.9-2.9-5.6s-4.9.6-5.6 2.9.6 4.9 2.9 5.6c2.3.8 4.8-.5 5.6-2.9zm-9.2 27.7c.7-2.1-.5-4.4-2.7-5.1-2.1-.7-4.4.5-5.1 2.7s.5 4.4 2.7 5.1c2.2.6 4.4-.5 5.1-2.7zm-9.2 27.7c.6-1.9-.5-4-2.4-4.6s-4 .5-4.6 2.4.5 4 2.4 4.6c2 .6 4-.5 4.6-2.4zm-9.1 27.7c.5-1.7-.4-3.5-2.1-4.1-1.7-.5-3.5.4-4.1 2.1-.5 1.7.4 3.5 2.1 4.1 1.6.6 3.5-.4 4.1-2.1-.1 0 0 0 0 0zm-9.2 27.7c.5-1.5-.4-3.1-1.9-3.6s-3.1.4-3.6 1.9.4 3.1 1.8 3.6c1.6.4 3.2-.4 3.7-1.9zm-9.2 27.6c.4-1.3-.3-2.7-1.6-3.1s-2.7.3-3.1 1.6.3 2.6 1.6 3.1c1.3.4 2.7-.2 3.1-1.6zm-9.2 27.8c.3-1.1-.3-2.2-1.4-2.5s-2.2.3-2.5 1.4c-.3 1 .3 2.1 1.3 2.5 1.1.3 2.2-.3 2.6-1.4zm-9.2 27.7c.3-.9-.2-1.8-1.1-2-.9-.3-1.8.2-2 1.1-.3.9.2 1.8 1.1 2 .8.2 1.7-.3 2-1.1zm-9.2 27.7c.2-.6-.2-1.3-.8-1.5s-1.3.2-1.5.8.2 1.3.8 1.5 1.3-.2 1.5-.8zm-9.2 27.6c.1-.4-.1-.9-.5-1s-.9.1-1 .5.1.9.5 1c.5.1.9-.1 1-.5zm-9.1 27.7c.1-.2-.1-.4-.3-.5s-.4.1-.5.3 0 .4.3.5c.1 0 .4-.1.5-.3z" fill="url(#D)" opacity=".5"/><path d="M2031.5 1261.8c-1.7 0-2.9 1.3-2.9 3.8s1.3 3.9 2.9 3.9c.6 0 1.2-.2 1.7-.6l-.3-.4c-.4.3-.9.5-1.4.4-1.3 0-2.3-1.2-2.3-3.3s1.1-3.3 2.3-3.3 1.5.8 1.5 1.8v.1c-1.7.2-2.6.7-2.6 1.7 0 .7.5 1.3 1.2 1.3h.1c.5 0 1-.3 1.3-.7l.1.6h.5v-3c-.1-1.2-.7-2.3-2.1-2.3zm1.4 4.3c-.3.4-.7.6-1.1.6-.4.1-.7-.2-.8-.6v-.1c0-.6.5-1 1.9-1.2zm6.2.8l.5.5c-.5.6-1.2 1-2 1-1.6 0-2.9-1.3-2.9-3.4s1.2-3.4 2.9-3.4c.7 0 1.3.3 1.8.8l-.5.5c-.3-.4-.8-.6-1.3-.6-1.3 0-2.1 1-2.1 2.6s.8 2.7 2.1 2.7c.7 0 1.2-.3 1.5-.7zm4 1.4c1.4.1 2.6-1 2.7-2.4s-1-2.6-2.4-2.7-2.6 1-2.7 2.4v.2c-.1 1.3.9 2.4 2.2 2.5zm0-4.4c.9 0 1.6.8 1.6 1.9s-.6 1.8-1.6 1.8-1.6-.7-1.6-1.8.6-1.9 1.6-1.9zm8.5.8v3.5h-.8v-3.4c0-.6-.2-.8-.5-.8s-.5.3-.8.8v3.5h-.8v-3.4c0-.6-.1-.8-.5-.8s-.6.3-.8.8v3.5h-.8v-4.9h.7l.1.6c.2-.5.6-.8 1.1-.8s.8.3.9.8c.3-.5.6-.8 1.1-.8s1.1.5 1.1 1.4zm2.2 3.9v-.9c.8.9 2.2.9 3.1 0 .5-.5.8-1.3.6-2 0-1.5-.7-2.5-2-2.5-.6 0-1.2.3-1.7.7l-.1-.6h-.7v6.9h.8zm0-4c.4-.4.9-.7 1.4-.7 1 0 1.4.7 1.4 1.8s-.6 1.9-1.5 1.9c-.5 0-.9-.2-1.3-.6zm7.3 3.7c1.4.1 2.6-1 2.7-2.4s-1-2.6-2.4-2.7-2.6 1-2.7 2.4v.2c-.1 1.3.9 2.5 2.2 2.6 0-.1.1-.1.2-.1zm0-4.4c.9 0 1.6.8 1.6 1.9s-.6 1.8-1.6 1.8-1.6-.7-1.6-1.8.6-1.9 1.6-1.9zm4.7 4.3h-.8v-4.9h.7l.1.8c.4-.6 1.1-.9 1.8-.9 1.1 0 1.7.7 1.7 2v3h-.8v-2.9c0-.9-.3-1.3-1.1-1.3-.6 0-1 .3-1.5.9zm7.6.1c.7 0 1.3-.2 1.9-.6l-.3-.5c-.4.3-1 .5-1.5.4-1 .1-1.8-.6-1.9-1.6v-.1h3.8v-.5c.1-1.1-.7-2.2-1.9-2.3h-.3c-1.4 0-2.5 1.2-2.5 2.6 0 1.5 1.2 2.6 2.7 2.6zm-.2-4.5c.8 0 1.4.5 1.4 1.5h-3.1c.2-.8.9-1.4 1.7-1.5zm4.6 4.4h-.8v-4.9h.7l.1.8c.4-.6 1.1-.9 1.8-.9 1.1 0 1.7.7 1.7 2v3h-.8v-2.9c0-.9-.3-1.3-1.1-1.3-.6 0-1 .3-1.5.9zm9.5-.8l.2.6c-.5.2-1 .3-1.5.3-1.4 0-1.9-.8-1.9-2v-2.3h-1.4v-.6h1.4l.1-1.6h.7v1.6h2.4v.7h-2.4v2.3c0 .9.3 1.3 1.2 1.3.5 0 .9-.1 1.2-.3zm2.8-2c0-1.8.8-3.5 2.2-4.5l.5.4c-2.3 1.8-2.6 5.2-.8 7.5.2.3.5.5.8.8l-.5.4c-1.3-1.1-2.2-2.8-2.2-4.6zm5.2.3v-.5c1.2 0 1.4-.4 1.4-.8 0-.6-.1-1.2-.1-1.9 0-1 .6-1.3 1.9-1.3h.6v.5h-.5c-1 0-1.2.3-1.2.9s.1 1.2.1 1.8c.1.5-.3 1-.8 1.1h-.1c.5 0 .9.4.9 1v.1c0 .7-.1 1.2-.1 1.8s.2.9 1.2.9h.5v.5h-.6c-1.3 0-1.9-.3-1.9-1.3 0-.7.1-1.3.1-1.9 0-.5-.3-.9-1.4-.9zm-50 17.7l.2.6c-.5.2-1 .3-1.5.3-1.4 0-1.9-.8-1.9-2v-2.3h-1.4v-.6h1.4l.1-1.6h.7v1.6h2.4v.7h-2.4v2.3c0 .9.3 1.3 1.2 1.3.5 0 .9-.1 1.2-.3zm6.1-1.9c.1-1.1-.7-2.2-1.9-2.3h-.3c-1.4 0-2.5 1.2-2.5 2.6s1.2 2.5 2.6 2.5c.7 0 1.3-.2 1.9-.6l-.3-.5c-.4.3-1 .5-1.5.4-1 .1-1.8-.6-1.9-1.6v-.1h3.8c.1-.1.1-.2.1-.4zm-2.2-1.6c.8 0 1.4.5 1.4 1.5h-3.1c.2-.9.9-1.5 1.7-1.5zm8.4.8v3.5h-.8v-3.4c0-.6-.2-.8-.5-.8s-.5.3-.8.8v3.5h-.8v-3.4c0-.6-.1-.8-.5-.8s-.6.3-.8.8v3.5h-.8v-4.9h.7l.1.6c.2-.5.6-.8 1.1-.8s.8.3.9.8c.3-.5.6-.8 1.1-.8s1.1.5 1.1 1.4zm3.8-1.5c-.6 0-1.2.3-1.7.7l-.1-.6h-.7v6.9h.8v-2.5c.8.9 2.2.9 3.1 0 .5-.5.8-1.3.6-2 .1-1.5-.6-2.5-2-2.5zm-.3 4.4c-.5 0-.9-.2-1.3-.6v-2.4c.4-.4.9-.7 1.4-.7 1 0 1.4.7 1.4 1.8s-.6 1.9-1.5 1.9zm5.4-5.9h-1.7v-.7h2.5v5.6c-.1.5.3.9.7 1h.3c.3 0 .6-.1.9-.2l.2.6a3.08 3.08 0 0 1-1.3.3c-1 0-1.6-.6-1.6-1.8zm4.4 5.2c0 .8.7 1.4 1.5 1.4h.1c.7-.1 1.4-.3 1.9-.8l.1.7h.7v-3c.1-1-.6-1.9-1.6-2h-.4c-.8 0-1.5.3-2.2.7l.3.6c.5-.3 1.1-.5 1.7-.6s1.2.4 1.3 1v.2c-2.4.2-3.4.7-3.4 1.8zm3.5-1.2v1.3c-.4.4-1 .7-1.6.7s-1.1-.2-1.1-.8.6-1.1 2.7-1.2zm3.7-1.7h-1.4v-.6h1.4l.1-1.6h.7v1.6h2.4v.7h-2.4v2.3c0 .9.3 1.3 1.2 1.3.4 0 .8-.1 1.2-.2l.2.6c-.5.2-1 .3-1.5.3-1.4 0-1.9-.8-1.9-2zm7.1-.8c-1.4 0-2.5 1.2-2.5 2.6s1.2 2.5 2.6 2.5c.7 0 1.3-.2 1.9-.6l-.3-.5c-.4.3-1 .5-1.5.4-1 .1-1.8-.6-1.9-1.6v-.1h3.8v-.5c.1-1.1-.7-2.2-1.9-2.3 0 .1-.1.1-.2.1zm0 .7c.8 0 1.4.5 1.4 1.5h-3.1c.2-.9.9-1.5 1.7-1.5zm3.6 1.8v-4.1h.9v4.1c0 1.3.6 1.8 1.4 1.8s1.4-.5 1.4-1.8v-4.1h.8v4.1c0 1.9-.9 2.6-2.2 2.6s-2.2-.7-2.3-2.6zm9.6-2.5c.3 0 .7 0 1 .2l-.2.7c-.3-.1-.6-.2-.9-.2-.9 0-1.7.6-2 1.4v2.8h-.8v-4.9h.7l.1 1.2c.4-.7 1.3-1.2 2.1-1.2zm4.1-1.5h-1.7v-.7h2.6v5.6c-.1.5.3.9.7 1h.3c.3 0 .6-.1.9-.2l.2.6a3.08 3.08 0 0 1-1.3.3c-1 0-1.6-.6-1.6-1.8zm5.7 5.8c0-.4.4-.8.8-.8s.8.4.8.8-.4.8-.8.8-.8-.4-.8-.8h0zm0-3.6c0-.4.4-.8.8-.8s.8.4.8.8-.4.8-.8.8-.8-.4-.8-.8h0zm12.3-1.5v-1.1h1.1v1.1l-.3 2.3h-.6zm5.3 7.4h-.7l3.3-8.7h.7zm5-2.9c0 .8.7 1.4 1.5 1.4h.1c.7-.1 1.4-.3 1.9-.8l.1.7h.7v-3c.1-1-.6-1.9-1.6-2h-.4c-.8 0-1.5.3-2.2.7l.3.6c.5-.3 1.1-.5 1.7-.6s1.2.4 1.3 1v.2c-2.3.2-3.3.7-3.4 1.8zm3.6-1.2v1.3c-.4.4-1 .7-1.6.7s-1.1-.2-1.1-.8.6-1.1 2.7-1.2zm3.4 2.9v-.9c.8.9 2.2.9 3.1 0 .5-.5.8-1.3.6-2 0-1.5-.7-2.5-2-2.5-.6 0-1.2.3-1.7.7l-.1-.6h-.7v6.9h.8zm0-4c.4-.4.9-.7 1.4-.7 1 0 1.4.7 1.4 1.8s-.6 1.9-1.5 1.9c-.5 0-.9-.2-1.3-.6zm6 4v-.9c.8.9 2.2.9 3.1 0 .5-.5.8-1.3.6-2 0-1.5-.7-2.5-2-2.5-.6 0-1.2.3-1.7.7l-.1-.6h-.7v6.9h.8zm0-4c.4-.4.9-.7 1.4-.7 1 0 1.4.7 1.4 1.8s-.6 1.9-1.5 1.9c-.5 0-.9-.2-1.3-.6zm6 5.2h-.7l3.3-8.7h.7zm5.7-1.6h-.8v-4.9h.7l.1.6c.2-.5.6-.8 1.1-.8s.8.3.9.8c.3-.5.6-.8 1.1-.8s1.1.5 1.1 1.5v3.5h-.8v-3.4c0-.6-.2-.8-.5-.8s-.5.3-.8.8v3.5h-.8v-3.4c0-.6-.1-.8-.5-.8s-.6.3-.8.8zm7.6.1c1.4.1 2.6-1 2.7-2.4s-1-2.6-2.4-2.7-2.6 1-2.7 2.4v.2c-.1 1.3.9 2.5 2.2 2.6 0-.1.1-.1.2-.1zm0-4.4c.9 0 1.6.8 1.6 1.9s-.6 1.8-1.6 1.8-1.6-.7-1.6-1.8.6-1.9 1.6-1.9zm5.7 4.4c.6 0 1.2-.3 1.6-.8l.1.6h.7v-7.1h-.8v2.8c-.4-.4-.9-.6-1.5-.6-1.3.1-2.3 1.2-2.2 2.5v.1c0 1.6.8 2.5 2.1 2.5zm.2-4.4c.5 0 .9.2 1.3.6v2.4a1.75 1.75 0 0 1-1.4.7c-.9 0-1.4-.7-1.4-1.8-.1-1 .6-1.8 1.5-1.9zm3.8 2.4v-3h.8v2.9c0 .9.3 1.3 1.1 1.3.6 0 1.2-.4 1.5-.9v-3.4h.8v4.9h-.7l-.1-.8c-.4.6-1.1 1-1.8 1-1.1 0-1.6-.7-1.6-2zm7.7-4.6h-1.7v-.7h2.5v5.6c-.1.5.3.9.7 1h.3c.3 0 .6-.1.9-.2l.2.6a3.08 3.08 0 0 1-1.3.3c-1 0-1.6-.6-1.6-1.8zm6.9 6.6c.7 0 1.3-.2 1.9-.6l-.3-.5c-.4.3-1 .5-1.5.4-1 .1-1.8-.6-1.9-1.6v-.1h3.8v-.5c.1-1.1-.7-2.2-1.9-2.3h-.3c-1.4 0-2.5 1.2-2.5 2.6 0 1.5 1.2 2.6 2.7 2.6zm-.2-4.5c.8 0 1.4.5 1.4 1.5h-3.1c.2-.8.9-1.4 1.7-1.5zm7.3 3c0-.4-.2-.6-1.5-.9s-1.9-.7-1.9-1.4.7-1.4 2-1.4c.7 0 1.4.2 2 .6l-.4.5c-.5-.3-1-.5-1.6-.5-.8 0-1.1.3-1.1.7s.4.6 1.4.8c1.6.3 2 .8 2 1.5s-.8 1.4-2.2 1.4c-.9 0-1.7-.3-2.4-.8l.4-.6c.6.4 1.4.7 2.1.7.8.3 1.2-.1 1.2-.6zm3.3 2.9h-.7l3.3-8.7h.7zm5-3.4v-3h.8v2.9c0 .9.3 1.3 1.1 1.3.6 0 1.2-.4 1.5-.9v-3.4h.8v4.9h-.7l-.1-.8c-.4.6-1.1 1-1.8 1-1.1 0-1.6-.7-1.6-2zm9.6.5c0-.4-.2-.6-1.5-.9s-1.9-.7-1.9-1.4.7-1.4 2-1.4c.7 0 1.4.2 2 .6l-.4.5c-.5-.3-1-.5-1.6-.5-.8 0-1.1.3-1.1.7s.4.6 1.4.8c1.6.3 2 .8 2 1.5s-.8 1.4-2.2 1.4c-.9 0-1.7-.3-2.4-.8l.4-.6c.6.4 1.4.7 2.1.7.9.3 1.3-.1 1.2-.6zm4.9 1.4c.7 0 1.3-.2 1.9-.6l-.3-.5c-.4.3-1 .5-1.5.4-1 .1-1.8-.6-1.9-1.6v-.1h3.8v-.5c.1-1.1-.7-2.2-1.9-2.3h-.3c-1.4 0-2.5 1.2-2.5 2.6.1 1.6 1.3 2.7 2.7 2.6zm-.1-4.4c.8 0 1.4.5 1.4 1.5h-3.1c.2-.8.9-1.5 1.7-1.5zm5.1 4.3h-.8v-4.9h.7l.1 1.2c.5-.8 1.3-1.3 2.2-1.3.3 0 .7 0 1 .2l-.2.7c-.3-.1-.6-.2-.9-.2-.9 0-1.7.6-2 1.4zm8.9-3h-4.3v-.6h4.3zm1.6 1.7c0 .8.7 1.4 1.5 1.4h.1c.7-.1 1.4-.3 1.9-.8l.1.7h.7v-3c.1-1-.6-1.9-1.6-2h-.4c-.8 0-1.5.3-2.2.7l.3.6c.5-.3 1.1-.5 1.7-.6s1.2.4 1.3 1v.2c-2.3.3-3.3.8-3.4 1.8zm3.6-1.2v1.3c-.4.4-1 .7-1.6.7s-1.1-.2-1.1-.8.6-1 2.7-1.2zm2.4.7v-3h.8v2.9c0 .9.3 1.3 1.1 1.3.6 0 1.2-.4 1.5-.9v-3.4h.8v4.9h-.7l-.1-.8c-.4.6-1.1 1-1.8 1-1.1 0-1.6-.7-1.6-2zm7.3-2.4h-1.4v-.6h1.4l.1-1.6h.7v1.6h2.4v.7h-2.4v2.3c0 .9.3 1.3 1.2 1.3.4 0 .8-.1 1.2-.2l.2.6c-.5.2-1 .3-1.5.3-1.4 0-1.9-.8-1.9-2zm6.9 4.3c1.4.1 2.6-1 2.7-2.4s-1-2.6-2.4-2.7-2.6 1-2.7 2.4v.2c-.1 1.3.8 2.5 2.1 2.6.1 0 .3 0 .3-.1zm0-4.4c.9 0 1.6.8 1.6 1.9s-.6 1.8-1.6 1.8-1.6-.7-1.6-1.8.7-1.8 1.6-1.9zm3.8 1.9c0-1.4 1.1-2.5 2.5-2.6h.2c.7 0 1.3.2 1.8.7l-.4.5c-.4-.3-.8-.5-1.3-.6-1-.1-1.8.7-1.9 1.7v.2c-.1 1 .7 1.8 1.7 1.9h.2c.6 0 1.1-.2 1.5-.6l.4.5c-.5.5-1.2.7-1.9.8-1.3.1-2.5-.9-2.6-2.3-.1 0-.1-.1-.2-.2zm8.2 2.5c1.4.1 2.6-1 2.7-2.4s-1-2.6-2.4-2.7-2.6 1-2.7 2.4v.2c-.1 1.3.8 2.5 2.1 2.6.1 0 .3 0 .3-.1zm0-4.4c.9 0 1.6.8 1.6 1.9s-.6 1.8-1.6 1.8-1.6-.7-1.6-1.8.7-1.8 1.6-1.9zm8.6.8v3.6h-.8v-3.4c0-.6-.2-.8-.5-.8s-.5.3-.8.8v3.5h-.8v-3.4c0-.6-.1-.8-.5-.8s-.6.3-.8.8v3.5h-.8v-4.9h.7l.1.6c.2-.5.6-.8 1.1-.8s.8.3.9.8c.3-.5.6-.8 1.1-.8s1.1.5 1.1 1.3zm2.2 3.9v-.9c.8.9 2.2.9 3.1 0 .5-.5.8-1.3.6-2 0-1.5-.7-2.5-2-2.5-.6 0-1.2.3-1.7.7l-.1-.6h-.7v6.9h.8zm0-4c.4-.4.9-.7 1.4-.7 1 0 1.4.7 1.4 1.8s-.6 1.9-1.5 1.9c-.5 0-.9-.2-1.3-.6zm6.7-2.9h-1.7v-.7h2.6v5.6c-.1.5.3.9.7 1h.3c.3 0 .6-.1.9-.2l.2.6a3.08 3.08 0 0 1-1.3.3c-1 0-1.6-.6-1.6-1.8zm6.8 6.6c.7 0 1.3-.2 1.9-.6l-.3-.5c-.4.3-1 .5-1.5.4-1 .1-1.8-.6-1.9-1.6v-.1h3.8v-.5c.1-1.1-.7-2.2-1.9-2.3h-.3c-1.4 0-2.5 1.2-2.5 2.6.1 1.5 1.3 2.6 2.7 2.6zm-.1-4.5c.8 0 1.4.5 1.4 1.5h-3.1c.1-.8.9-1.4 1.7-1.4zm4.9.2h-1.4v-.6h1.4l.1-1.6h.7v1.6h2.4v.7h-2.4v2.3c0 .9.3 1.3 1.2 1.3.4 0 .8-.1 1.2-.2l.2.6c-.5.2-1 .3-1.5.3-1.4 0-1.9-.8-1.9-2zm7.2 4.3c.7 0 1.3-.2 1.9-.6l-.3-.5c-.4.3-1 .5-1.5.4-1 .1-1.8-.6-1.9-1.6v-.1h3.8v-.5c.1-1.1-.7-2.2-1.9-2.3h-.3c-1.4 0-2.5 1.2-2.5 2.6.1 1.5 1.3 2.6 2.7 2.6zm-.1-4.5c.8 0 1.4.5 1.4 1.5h-3.1c.1-.8.9-1.4 1.7-1.4zm5.1 4.4h-.8v-4.9h.7l.1 1.2c.5-.8 1.3-1.3 2.2-1.3.3 0 .7 0 1 .2l-.2.7c-.3-.1-.6-.2-.9-.2-.9 0-1.7.6-2 1.4zm5.9-.8c0-.4.4-.8.8-.8s.8.4.8.8-.4.8-.8.8-.7-.3-.8-.7zm8.8-.4l.4.5c-.5.5-1.2.7-1.9.8-1.3.1-2.5-.9-2.7-2.2v-.3c0-1.4 1.1-2.5 2.5-2.6h.2c.7 0 1.3.2 1.8.7l-.4.5c-.4-.3-.8-.5-1.3-.6-1-.1-1.8.7-1.9 1.7v.2c-.1 1 .7 1.8 1.7 1.9h.2c.6 0 1.1-.1 1.5-.5zm4 1.3c1.4.1 2.6-1 2.7-2.4s-1-2.6-2.4-2.7-2.6 1-2.7 2.4v.2c-.2 1.3.8 2.5 2.1 2.6h.3zm0-4.4c.9 0 1.6.8 1.6 1.9s-.6 1.8-1.6 1.8-1.6-.7-1.6-1.8.6-1.8 1.6-1.8zm4.4 4.3h-.8v-4.9h.7l.1.6c.2-.5.6-.8 1.1-.8s.8.3.9.8c.3-.5.6-.8 1.1-.8s1.1.5 1.1 1.5v3.6h-.8v-3.4c0-.6-.2-.8-.5-.8s-.5.3-.8.8v3.5h-.8v-3.4c0-.6-.1-.8-.5-.8s-.6.3-.8.8zm6.4.4v-.9c.8.9 2.2.9 3.1 0 .5-.5.8-1.3.6-2 0-1.5-.7-2.5-2-2.5-.6 0-1.2.3-1.7.7l-.1-.6h-.7v6.9h.8zm0-4c.4-.4.9-.7 1.4-.7 1 0 1.4.7 1.4 1.8s-.6 1.9-1.5 1.9c-.5 0-.9-.2-1.3-.6zm7.2-1.4c-1.4-.1-2.6 1-2.7 2.4s1 2.6 2.4 2.7 2.6-1 2.7-2.4v-.1c0-1.3-1-2.4-2.3-2.4h-.1zm0 4.4c-.9 0-1.6-.7-1.6-1.8s.6-1.9 1.6-1.9 1.6.8 1.6 1.9-.6 2-1.5 2zm4.8.5h-.8v-4.9h.7l.1.8c.4-.6 1.1-.9 1.8-.9 1.1 0 1.7.7 1.7 2v3h-.8v-2.9c0-.9-.3-1.3-1.1-1.3-.6 0-1 .3-1.5.9zm7.4-5c-1.4 0-2.5 1.2-2.5 2.6s1.2 2.5 2.6 2.5c.7 0 1.3-.2 1.9-.6l-.3-.5c-.4.3-1 .5-1.5.4-1 .1-1.8-.6-1.9-1.6v-.1h3.8v-.5c0-1.2-.9-2.1-2-2.1h-.1zm0 .7c.8 0 1.4.5 1.4 1.5h-3.1c.2-.8.9-1.4 1.7-1.3zm4.6 4.3h-.8v-4.9h.7l.1.8c.4-.6 1.1-.9 1.8-.9 1.1 0 1.7.7 1.7 2v3h-.8v-2.9c0-.9-.3-1.3-1.1-1.3-.6 0-1 .3-1.5.9zm6.3-4.2h-1.4v-.6h1.4l.1-1.6h.7v1.6h2.4v.7h-2.4v2.3c0 .9.3 1.3 1.2 1.3.4 0 .8-.1 1.2-.2l.2.6c-.5.2-1 .3-1.5.3-1.4 0-1.9-.8-1.9-2zm6.1 3.5c0-.4.4-.8.8-.8s.8.4.8.8-.4.8-.8.8-.7-.3-.8-.7zm5.6.7h-.8v-7.1h.8v3.1c.4-.6 1.1-1 1.8-1 1.1 0 1.7.7 1.7 2v3h-.8v-2.9c0-.9-.3-1.3-1.1-1.3-.6 0-1 .3-1.5.9zm9.5-.8l.2.6c-.5.2-1 .3-1.5.3-1.4 0-1.9-.8-1.9-2v-2.3h-1.4v-.6h1.4l.1-1.6h.7v1.6h2.4v.7h-2.4v2.3c0 .9.3 1.3 1.2 1.3.4 0 .8 0 1.1-.1zm2.1.8h-.8v-4.9h.7l.1.6c.2-.5.6-.8 1.1-.8s.8.3.9.8c.3-.5.6-.8 1.1-.8s1.1.5 1.1 1.5v3.6h-.8v-3.4c0-.6-.2-.8-.5-.8s-.5.3-.8.8v3.5h-.8v-3.4c0-.6-.1-.8-.5-.8s-.6.3-.8.8zm9.8-.8l.2.6a3.08 3.08 0 0 1-1.3.3c-1 0-1.6-.6-1.6-1.8v-4.8h-1.7v-.7h2.6v5.6c-.1.5.3.9.7 1h.3c.3 0 .6 0 .9-.1zm3.3-5v-1.1h1.1v1.1l-.3 2.3h-.6zm6.7 5.7h-.2c-.4 0-.7-.3-.8-.7v-.1c0-.4.3-.7.7-.8h.1c.6 0 .9.5.9 1.3 0 1.1-.7 2.1-1.8 2.4l-.2-.5c.7-.2 1.2-.8 1.3-1.4zm-364.8 14.8c0-.4-.2-.6-1.5-.9s-1.9-.7-1.9-1.4.7-1.4 2-1.4c.7 0 1.4.2 2 .6l-.4.5c-.5-.3-1-.5-1.6-.5-.8 0-1.1.3-1.1.7s.4.6 1.4.8c1.6.3 2 .8 2 1.5s-.8 1.4-2.2 1.4c-.9 0-1.7-.3-2.4-.8l.4-.6c.6.4 1.4.7 2.1.7.8.2 1.2-.1 1.2-.5zm4.9 1.4c.7 0 1.3-.2 1.9-.6l-.3-.5c-.4.3-1 .5-1.5.4-1 .1-1.8-.6-1.9-1.6v-.1h3.8v-.5c.1-1.1-.7-2.2-1.9-2.3h-.3c-1.4 0-2.5 1.2-2.5 2.6.1 1.5 1.3 2.7 2.7 2.6zm-.1-4.4c.8 0 1.4.5 1.4 1.5h-3.1c.2-.8.9-1.3 1.7-1.3zm6.1-2.8v5.6c-.1.5.3.9.7 1h.3c.3 0 .6-.1.9-.2l.2.6a3.08 3.08 0 0 1-1.3.3c-1 0-1.6-.6-1.6-1.8v-4.8h-1.7v-.7zm8.1 4.4c.1-1.1-.7-2.2-1.9-2.3h-.3c-1.4 0-2.5 1.2-2.5 2.6s1.2 2.5 2.6 2.5c.7 0 1.3-.2 1.9-.6l-.3-.5c-.4.3-1 .5-1.5.4-1 .1-1.8-.6-1.9-1.6v-.1h3.8c0-.1.1-.2.1-.3zm-2.2-1.6c.8 0 1.4.5 1.4 1.5h-3.1c.2-.8.9-1.3 1.7-1.3zm4.5 1.9c-.1 1 .7 1.8 1.7 1.9h.2c.6 0 1.1-.2 1.5-.6l.4.5c-.5.5-1.2.7-1.9.8-1.3.1-2.5-.9-2.7-2.2v-.3c0-1.4 1.1-2.5 2.5-2.6h.2c.7 0 1.3.2 1.8.7l-.4.5c-.4-.3-.8-.5-1.3-.6-1-.1-1.8.7-1.9 1.7v.4zm6.4-1.8h-1.4v-.6h1.4l.1-1.6h.7v1.6h2.4v.7h-2.4v2.3c0 .9.3 1.3 1.2 1.3.4 0 .8-.1 1.2-.2l.2.6c-.5.2-1 .3-1.5.3-1.4 0-1.9-.8-1.9-2zm6.9 4.3c1.4.1 2.6-1 2.7-2.4s-1-2.6-2.4-2.7-2.6 1-2.7 2.4v.2c-.2 1.3.7 2.5 2 2.7h.4zm0-4.4c.9 0 1.6.8 1.6 1.9s-.6 1.8-1.6 1.8-1.6-.7-1.6-1.8.7-1.7 1.6-1.7zm8.4-.5l-.2.7c-.3-.1-.6-.2-.9-.2-.9 0-1.7.6-2 1.4v3h-.8v-4.9h.7l.1 1.2c.5-.8 1.3-1.3 2.2-1.3.4 0 .7.1 1 .2zm4.4 4c0 .4-.4.8-.8.8s-.8-.4-.8-.8.4-.8.8-.8c.4-.1.8.2.9.7 0 .1 0 .3-.1.4zm0-3.6c0 .4-.4.8-.8.8s-.8-.4-.8-.8.4-.8.8-.8c.4-.1.8.2.9.7 0 .1 0 .3-.1.4zm9.6 4.4h-.8v-4.9h.7l.1.6c.2-.5.6-.8 1.1-.8s.8.3.9.8c.3-.5.6-.8 1.1-.8s1.1.5 1.1 1.5v3.7h-.8v-3.4c0-.6-.2-.8-.5-.8s-.5.3-.8.8v3.5h-.8v-3.4c0-.6-.1-.8-.5-.8s-.6.3-.8.8zm7.9.1c.7 0 1.3-.2 1.9-.6l-.3-.5c-.4.3-1 .5-1.5.4-1 .1-1.8-.6-1.9-1.6v-.1h3.8v-.5c.1-1.1-.7-2.2-1.9-2.3h-.3c-1.4 0-2.5 1.2-2.5 2.6.1 1.5 1.3 2.6 2.7 2.6zm-.1-4.5c.8 0 1.4.5 1.4 1.5h-3.1c.2-.8.9-1.3 1.7-1.2zm8.4.9v3.7h-.8v-3.4c0-.6-.2-.8-.5-.8s-.5.3-.8.8v3.5h-.8v-3.4c0-.6-.1-.8-.5-.8s-.6.3-.8.8v3.5h-.8v-4.9h.7l.1.6c.2-.5.6-.8 1.1-.8s.8.3.9.8c.3-.5.6-.8 1.1-.8s1.1.5 1.1 1.5zm2.1 2.9c.8.9 2.2.9 3.1.1.6-.5.8-1.3.6-2.1 0-1.5-.7-2.5-2-2.5-.6 0-1.2.3-1.6.7v-2.8h-.8v7.4h.7zm.1-3c.4-.4.9-.7 1.4-.7 1 0 1.4.7 1.4 1.8s-.6 1.9-1.5 1.9c-.5 0-1-.2-1.3-.6zm7.5 3.7c.7 0 1.3-.2 1.9-.6l-.3-.5c-.4.3-1 .5-1.5.4-1 .1-1.8-.6-1.9-1.6v-.1h3.8v-.5c.1-1.1-.7-2.2-1.9-2.3h-.3c-1.4 0-2.5 1.2-2.5 2.6.1 1.5 1.3 2.6 2.7 2.6zm-.1-4.5c.8 0 1.4.5 1.4 1.5h-3.1c.2-.8.9-1.3 1.7-1.3zm7.2-.6c.3 0 .7 0 1 .2l-.2.7c-.3-.1-.6-.2-.9-.2-.9 0-1.7.6-2 1.4v3.1h-.8v-4.9h.7l.1 1.2c.4-.8 1.3-1.3 2.2-1.3zm4.7 5.1c-.9 0-1.7-.3-2.4-.8l.4-.6c.6.4 1.4.7 2.1.7.8 0 1.2-.3 1.2-.8s-.2-.6-1.5-.9-1.9-.7-1.9-1.4.7-1.4 2-1.4c.7 0 1.4.2 2 .6l-.4.5c-.5-.3-1-.5-1.6-.5-.8 0-1.1.3-1.1.7s.4.6 1.4.8c1.6.3 2 .8 2 1.5s-.8 1.7-2.1 1.7zm5.4-6.7l-2.2 6.8h.9l.6-2h2.4l.6 2h.9l-2.2-6.6zm1.5 3.9h-2l.3-1 .6-2.2.6 2.2zm2.8.8v-3h.8v2.9c0 .9.3 1.3 1.1 1.3.6 0 1.2-.4 1.5-.9v-3.4h.8v5.1h-.7l-.1-.8c-.4.6-1.1 1-1.8 1-1.2 0-1.7-.7-1.7-2zm7.3 0v-2.3h-1.4v-.6h1.4l.1-1.6h.7v1.6h2.4v.7h-2.4v2.3c0 .9.3 1.3 1.2 1.3.4 0 .8-.1 1.2-.2l.2.6c-.5.2-1 .3-1.5.3-1.4.2-1.9-.6-1.9-1.8zm6.9 2c1.4.1 2.6-1 2.7-2.4s-1-2.6-2.4-2.7-2.6 1-2.7 2.4v.2c-.2 1.3.6 2.5 1.9 2.8h.5zm0-4.4c.9 0 1.6.8 1.6 1.9s-.6 1.8-1.6 1.8-1.6-.7-1.6-1.8.7-1.6 1.6-1.6zm4.7 1.8c-.1 1 .7 1.8 1.7 1.9h.2c.6 0 1.1-.2 1.5-.6l.4.5c-.5.5-1.2.7-1.9.8-1.3.1-2.5-.9-2.7-2.2v-.3c0-1.4 1.1-2.5 2.5-2.6h.2c.7 0 1.3.2 1.8.7l-.4.5c-.4-.3-.8-.5-1.3-.6-1-.1-1.8.7-1.9 1.7v.4zm7.3 2.6c1.4.1 2.6-1 2.7-2.4s-1-2.6-2.4-2.7-2.6 1-2.7 2.4v.2c-.2 1.3.6 2.5 1.9 2.8h.5zm0-4.4c.9 0 1.6.8 1.6 1.9s-.6 1.8-1.6 1.8-1.6-.7-1.6-1.8.7-1.6 1.6-1.6zm8.6.8v3.7h-.8v-3.4c0-.6-.2-.8-.5-.8s-.5.3-.8.8v3.5h-.8v-3.4c0-.6-.1-.8-.5-.8s-.6.3-.8.8v3.5h-.8v-4.9h.7l.1.6c.2-.5.6-.8 1.1-.8s.8.3.9.8c.3-.5.6-.8 1.1-.8s1.1.5 1.1 1.5zm3.6 3.6c1.3-.1 2.3-1.2 2.2-2.5v-.1c0-1.5-.7-2.5-2-2.5-.6 0-1.2.3-1.7.7l-.1-.6h-.7v6.9h.8v-2.5c.4.5.9.8 1.4.9zm-1.4-3.7c.4-.4.9-.7 1.4-.7 1 0 1.4.7 1.4 1.8s-.6 1.9-1.5 1.9c-.5 0-.9-.2-1.3-.6zm9.6 3.4a3.08 3.08 0 0 1-1.3.3c-1 0-1.6-.6-1.6-1.8v-4.8h-1.7v-.7h2.6v5.6c-.1.5.3.9.7 1h.3c.3 0 .6-.1.9-.2zm3.9.3c.7 0 1.3-.2 1.9-.6l-.3-.5c-.4.3-1 .5-1.5.4-1 .1-1.8-.6-1.9-1.6v-.1h3.8v-.5c.1-1.1-.7-2.2-1.9-2.3h-.3c-1.4 0-2.5 1.2-2.5 2.6.1 1.5 1.3 2.6 2.7 2.6zm-.1-4.5c.8 0 1.4.5 1.4 1.5h-3.1c.2-.8.9-1.3 1.7-1.2zm8.1 3.6l.2.6c-.5.2-1 .3-1.5.3-1.4 0-1.9-.8-1.9-2v-2.3h-1.4v-.6h1.4l.1-1.6h.7v1.6h2.4v.7h-2.4v2.3c0 .9.3 1.3 1.2 1.3.4.1.8 0 1.1 0zm4 .9c.7 0 1.3-.2 1.9-.6l-.3-.5c-.4.3-1 .5-1.5.4-1 .1-1.8-.6-1.9-1.6v-.1h3.8v-.5c.1-1.1-.7-2.2-1.9-2.3h-.3c-1.4 0-2.5 1.2-2.5 2.6.1 1.5 1.3 2.6 2.7 2.6zm-.1-4.5c.8 0 1.4.5 1.4 1.5h-3.1c.2-.8.9-1.3 1.7-1.2zm7.2-.6c.3 0 .7 0 1 .2l-.2.7c-.3-.1-.6-.2-.9-.2-.9 0-1.7.6-2 1.4v3.1h-.8v-4.9h.7l.1 1.2c.5-.8 1.3-1.3 2.2-1.3zm6.1 3.3c0-.7-.5-.9-1.2-1.2l-1-.4c-.8-.2-1.4-.9-1.4-1.7.1-1.1 1-1.8 2.1-1.7h.1c.7 0 1.5.3 2 .8l-.4.5c-.4-.4-1-.6-1.6-.6-.8 0-1.3.4-1.3 1s.6.9 1.2 1.1l.9.4c.8.3 1.4.8 1.4 1.8s-.9 1.9-2.3 1.9c-.9 0-1.8-.4-2.4-1l.5-.6c.5.5 1.2.8 1.9.8 1 .2 1.6-.2 1.6-.8zm4.8 1.8c.7 0 1.3-.2 1.9-.6l-.3-.5c-.4.3-1 .5-1.5.4-1 .1-1.8-.6-1.9-1.6v-.1h3.8v-.5c.1-1.1-.7-2.2-1.9-2.3h-.3c-1.4 0-2.5 1.2-2.5 2.6.1 1.5 1.3 2.6 2.7 2.6zm-.1-4.5c.8 0 1.4.5 1.4 1.5h-3.1c.2-.8.9-1.3 1.7-1.2zm5.3-2.1h-1.7v-.7h2.6v5.6c-.1.5.3.9.7 1h.3c.3 0 .6-.1.9-.2l.2.6a3.08 3.08 0 0 1-1.3.3c-1 0-1.6-.6-1.6-1.8zm6.8 6.6c.7 0 1.3-.2 1.9-.6l-.3-.5c-.4.3-1 .5-1.5.4-1 .1-1.8-.6-1.9-1.6v-.1h3.8v-.5c.1-1.1-.7-2.2-1.9-2.3h-.3c-1.4 0-2.5 1.2-2.5 2.6.1 1.5 1.3 2.6 2.7 2.6zm-.1-4.5c.8 0 1.4.5 1.4 1.5h-3.1c.2-.8.9-1.3 1.7-1.2zm8.2 3.7c-.5.5-1.2.7-1.9.8-1.3.1-2.5-.9-2.7-2.2v-.3c0-1.4 1.1-2.5 2.5-2.6h.2c.7 0 1.3.2 1.8.7l-.4.5c-.4-.3-.8-.5-1.3-.6-1-.1-1.8.7-1.9 1.7v.2c-.1 1 .7 1.8 1.7 1.9h.2c.6 0 1.1-.2 1.5-.6zm5.9-.1l.2.6c-.5.2-1 .3-1.5.3-1.4 0-1.9-.8-1.9-2v-2.3h-1.4v-.6h1.4l.1-1.6h.7v1.6h2.4v.7h-2.4v2.3c0 .9.3 1.3 1.2 1.3.4.1.8 0 1.1 0zm3.7-4.2c-1.4-.1-2.6 1-2.7 2.4s1 2.6 2.4 2.7 2.6-1 2.7-2.4v-.1c0-1.3-1.1-2.3-2.3-2.3zm0 4.4c-.9 0-1.6-.7-1.6-1.8s.6-1.9 1.6-1.9 1.6.8 1.6 1.9-.6 2.1-1.5 2.1zm5.3-2.3v3.1h-.8v-4.9h.7l.1 1.2c.5-.8 1.3-1.3 2.2-1.3.3 0 .7 0 1 .2l-.2.7c-.3-.1-.6-.2-.9-.2a2.47 2.47 0 0 0-2 1.4zm-233.5 19c0-.6-.1-1.1-.1-1.8-.1-.5.3-1 .8-1.1h.1c-.5 0-.9-.4-.9-.9v-.1c0-.6.1-1.2.1-1.8s-.2-.9-1.3-.9h-.5v-.5h.6c1.3 0 1.8.3 1.8 1.3 0 .7-.1 1.3-.1 1.9 0 .4.3.8 1.4.8v.5c-1.2 0-1.4.4-1.4.8 0 .7.1 1.2.1 1.9 0 1-.6 1.3-1.8 1.3h-.6v-.5h.5c1.1.2 1.3-.1 1.3-.7zm6.4-2.9c0-1.6-.7-3.1-2-4.1l.5-.4a5.73 5.73 0 0 1 0 9.1l-.5-.4c1.3-.9 2-2.3 2.1-3.9zm-6 29.8c-1.4 0-2.5 1.2-2.5 2.6s1.2 2.5 2.6 2.5c.7 0 1.3-.2 1.9-.6l-.3-.5c-.4.3-1 .5-1.5.4-1 .1-1.8-.6-1.9-1.6v-.1h3.8v-.5c0-1.2-.9-2.1-2.1-2.1h-.1zm0 .7c.8 0 1.3.5 1.4 1.5h-3.1c.2-.8.9-1.3 1.7-1.3zm3.4 4.3l1.8-2.5-1.7-2.3h.9l.8 1.1c.2.3.4.6.6.8.2-.3.4-.6.6-.8l.7-1h.9l-1.7 2.4 1.9 2.4h-.9l-.8-1.1-.6-.9-.6.9-.8 1.1zm8.6.1c1.3-.1 2.3-1.2 2.2-2.5v-.1c0-1.5-.7-2.5-2-2.5-.6 0-1.2.3-1.7.7l-.1-.6h-.7v6.9h.8v-2.5c.4.5.9.8 1.5.8zm-1.4-3.7c.4-.4.9-.7 1.4-.7 1 0 1.4.7 1.4 1.8s-.6 1.9-1.5 1.9c-.5 0-.9-.2-1.3-.6zm7.2-1.4c-1.4-.1-2.6 1-2.7 2.4s1 2.6 2.4 2.7 2.6-1 2.7-2.4v-.1c0-1.3-1-2.3-2.3-2.4zm0 4.4c-.9 0-1.5-.7-1.5-1.8s.6-1.9 1.5-1.9 1.6.8 1.6 1.9-.6 2.1-1.5 2.1zm8.4-4.2l-.2.7c-.3-.1-.6-.2-.9-.2-.9 0-1.7.6-2 1.4v3h-.8v-4.9h.7l.1 1.2c.5-.8 1.3-1.3 2.2-1.3.4 0 .7 0 1 .2zm5.9 4l.2.6c-.5.2-1 .3-1.5.3-1.4 0-1.9-.8-1.9-2v-2.3h-1.4v-.6h1.4l.1-1.6h.7v1.6h2.4v.7h-2.4v2.3c0 .9.3 1.3 1.2 1.3.4 0 .8 0 1.1-.1zm12.1.1c-.5.5-1.2.7-1.9.8-1.3.1-2.5-.9-2.7-2.2v-.3c0-1.4 1.1-2.5 2.5-2.6h.2c.7 0 1.3.2 1.8.7l-.4.5c-.4-.3-.8-.5-1.3-.6-1-.1-1.8.7-1.9 1.7v.2c-.1 1 .7 1.8 1.7 1.9h.2c.6 0 1.1-.2 1.5-.6zm3.9-6.4v5.6c-.1.5.3.9.7 1h.3c.3 0 .6-.1.9-.2l.2.6a3.08 3.08 0 0 1-1.3.3c-1 0-1.6-.6-1.6-1.8v-4.8h-1.7v-.7zm3.5 5.8c0 .8.7 1.4 1.5 1.4h.1c.7-.1 1.4-.3 1.9-.8l.1.7h.7v-3c.1-1-.6-1.9-1.6-2h-.4c-.8 0-1.5.3-2.2.7l.3.6c.5-.3 1.1-.5 1.7-.6s1.2.4 1.3 1v.2c-2.4.4-3.4 1-3.4 2.1zm3.5-1.2v1.3c-.4.4-1 .7-1.6.7s-1.1-.2-1.1-.8.7-.8 2.8-1zm4.8 2.6c-.9 0-1.7-.3-2.4-.8l.4-.6c.6.4 1.4.7 2.1.7.8 0 1.2-.3 1.2-.8s-.2-.6-1.5-.9-1.9-.7-1.9-1.4.7-1.4 2-1.4c.7 0 1.4.2 2 .6l-.4.5c-.5-.3-1-.5-1.6-.5-.8 0-1.1.3-1.1.7s.4.6 1.4.8c1.6.3 2 .8 2 1.5s-.7 1.7-2.1 1.7zm7.3-1.4c0-.4-.2-.6-1.5-.9s-1.9-.7-1.9-1.4.7-1.4 2-1.4c.7 0 1.4.2 2 .6l-.4.5c-.5-.3-1-.5-1.6-.5-.8 0-1.1.3-1.1.7s.4.6 1.4.8c1.6.3 2 .8 2 1.5s-.8 1.4-2.2 1.4c-.9 0-1.7-.3-2.4-.8l.4-.6c.6.4 1.4.7 2.1.7.9.2 1.3-.1 1.3-.5zm12.1-2l.1-2.3-.4 1.3-.9 2.6h-.6l-.9-2.6-.4-1.3c.1.6.1 1.7.1 2.3v3.5h-.8v-6.6h1l.9 2.8.3 1.1.3-1.1.9-2.8h1v6.6h-.8zm6.9.6c.1-1.1-.7-2.2-1.9-2.3h-.3c-1.4 0-2.5 1.2-2.5 2.6s1.2 2.5 2.6 2.5c.7 0 1.3-.2 1.9-.6l-.3-.5c-.4.3-1 .5-1.5.4-1 .1-1.8-.6-1.9-1.6v-.1h3.8c0-.1.1-.2.1-.3zm-2.2-1.6c.8 0 1.4.5 1.4 1.5h-3.1c.2-.8.9-1.3 1.7-1.3zm4.2 4.3h-.8v-4.9h.7l.1.6c.2-.5.6-.8 1.1-.8s.8.3.9.8c.3-.5.6-.8 1.1-.8s1.1.5 1.1 1.5v3.7h-.8v-3.4c0-.6-.2-.8-.5-.8s-.5.3-.8.8v3.5h-.8v-3.4c0-.6-.1-.8-.5-.8s-.6.3-.8.8zm6.4-7.1h-.8v7.3h.7l.1-.6c.8.9 2.2.9 3.1.1.6-.5.8-1.3.6-2.1 0-1.5-.7-2.5-2-2.5-.6 0-1.2.3-1.6.7v-.9zm0 3.5c.4-.4.9-.7 1.4-.7 1 0 1.4.7 1.4 1.8s-.6 1.9-1.5 1.9c-.5 0-1-.2-1.3-.6zm7.5 3.7c.7 0 1.3-.2 1.9-.6l-.3-.5c-.4.3-1 .5-1.5.4-1 .1-1.8-.6-1.9-1.6v-.1h3.8v-.5c.1-1.1-.7-2.2-1.9-2.3h-.3c-1.4 0-2.5 1.2-2.5 2.6.1 1.5 1.3 2.6 2.7 2.6zm-.1-4.4c.8 0 1.4.5 1.4 1.5h-3.1c.2-.8.9-1.3 1.7-1.3zm7.2-.7c.3 0 .7 0 1 .2l-.2.7c-.3-.1-.6-.2-.9-.2-.9 0-1.7.6-2 1.4v3h-.8v-4.9h.7l.1 1.2c.5-.8 1.3-1.3 2.2-1.3zm6 3.7c0-.4-.2-.6-1.5-.9s-1.9-.7-1.9-1.4.7-1.4 2-1.4c.7 0 1.4.2 2 .6l-.4.5c-.5-.3-1-.5-1.6-.5-.8 0-1.1.3-1.1.7s.4.6 1.4.8c1.6.3 2 .8 2 1.5s-.8 1.4-2.2 1.4c-.9 0-1.7-.3-2.4-.8l.4-.6c.6.4 1.4.7 2.1.7.9.2 1.3-.1 1.3-.5zm2.2-2c0-2.1 1.2-3.4 2.9-3.4.7 0 1.3.3 1.8.8l-.5.5c-.3-.4-.8-.6-1.3-.6-1.3 0-2.1 1-2.1 2.6s.8 2.7 2.1 2.7c.6 0 1.1-.3 1.5-.7l.5.5c-.5.6-1.2 1-2 1-1.6.2-2.8-1.1-2.8-3.2zm8.4 3.4c1.4.1 2.6-1 2.7-2.4s-1-2.6-2.4-2.7-2.6 1-2.7 2.4v.2c-.2 1.3.7 2.5 2 2.7h.5zm0-4.4c.9 0 1.6.8 1.6 1.9s-.6 1.8-1.6 1.8-1.6-.7-1.6-1.8.7-1.7 1.6-1.7zm8.6.8v3.7h-.8v-3.4c0-.6-.2-.8-.5-.8s-.5.3-.8.8v3.5h-.8v-3.4c0-.6-.1-.8-.5-.8s-.6.3-.8.8v3.5h-.8v-4.9h.7l.1.6c.2-.5.6-.8 1.1-.8s.8.3.9.8c.3-.5.6-.8 1.1-.8s1.2.5 1.2 1.5zm3.8-1.5c-.6 0-1.2.3-1.7.7l-.1-.6h-.7v6.9h.8v-2.5c.8.9 2.2.9 3.1 0 .5-.5.8-1.3.6-2 0-1.3-.7-2.3-2-2.3zm-.4 4.4c-.5 0-.9-.2-1.3-.6v-2.4c.4-.4.9-.7 1.4-.7 1 0 1.4.7 1.4 1.8s-.6 2.1-1.4 2.1zm6 .7c1.4.1 2.6-1 2.7-2.4s-1-2.6-2.4-2.7-2.6 1-2.7 2.4v.2c-.2 1.3.7 2.5 2 2.7h.5zm0-4.4c.9 0 1.6.8 1.6 1.9s-.6 1.8-1.6 1.8-1.6-.7-1.6-1.8.7-1.7 1.6-1.7zm7.4 4.3v-2.9c0-.9-.3-1.3-1.1-1.3-.6 0-1 .3-1.5.9v3.6h-.8v-4.9h.7l.1.8c.4-.6 1.1-.9 1.8-.9 1.1 0 1.7.7 1.7 2v3zm4.9.1c.7 0 1.3-.2 1.9-.6l-.3-.5c-.4.3-1 .5-1.5.4-1 .1-1.8-.6-1.9-1.6v-.1h3.8v-.5c.1-1.1-.7-2.2-1.9-2.3h-.3c-1.4 0-2.5 1.2-2.5 2.6.1 1.5 1.2 2.6 2.7 2.6zm-.1-4.4c.8 0 1.4.5 1.4 1.5h-3.1c.2-.8.9-1.3 1.7-1.3zm7.2 4.3v-2.9c0-.9-.3-1.3-1.1-1.3-.6 0-1 .3-1.5.9v3.6h-.8v-4.9h.7l.1.8c.4-.6 1.1-.9 1.8-.9 1.1 0 1.7.7 1.7 2v3zm6.9-.8l.2.6c-.5.2-1 .3-1.5.3-1.4 0-1.9-.8-1.9-2v-2.3h-1.4v-.6h1.4l.1-1.6h.7v1.6h2.5v.7h-2.4v2.3c0 .9.3 1.3 1.2 1.3.4 0 .8 0 1.1-.1zm10 .9c.7 0 1.3-.2 1.9-.6l-.3-.5c-.4.3-1 .5-1.5.4-1 .1-1.8-.6-1.9-1.6v-.1h3.8v-.5c.1-1.1-.7-2.2-1.9-2.3h-.3c-1.4 0-2.5 1.2-2.5 2.6.1 1.5 1.2 2.6 2.7 2.6zm-.1-4.4c.8 0 1.4.5 1.4 1.5h-3.1c.2-.8.9-1.3 1.7-1.3zm4.3 4.3h-.9l1.8-2.5-1.7-2.3h.9l.8 1.1c.2.3.4.6.6.8.2-.3.4-.6.6-.8l.7-1h.9l-1.7 2.4 1.9 2.4h-.9l-.8-1.1-.6-.9-.6.9zm9.9-.2c-.5.2-1 .3-1.5.3-1.4 0-1.9-.8-1.9-2v-2.3h-1.4v-.6h1.4l.1-1.6h.7v1.6h2.5v.7h-2.4v2.3c0 .9.3 1.3 1.2 1.3.4 0 .8-.1 1.2-.2zm3.9.3c.7 0 1.3-.2 1.9-.6l-.3-.5c-.4.3-1 .5-1.5.4-1 .1-1.8-.6-1.9-1.6v-.1h3.8v-.5c.1-1.1-.7-2.2-1.9-2.3h-.3c-1.4 0-2.5 1.2-2.5 2.6.1 1.5 1.2 2.6 2.7 2.6zm-.1-4.4c.8 0 1.4.5 1.4 1.5h-3.1c.2-.8.9-1.3 1.7-1.3zm7.2 4.3v-2.9c0-.9-.3-1.3-1.1-1.3-.6 0-1 .3-1.5.9v3.6h-.8v-4.9h.7l.1.8c.4-.6 1.1-.9 1.8-.9 1.1 0 1.7.7 1.7 2v3zm4.3.1c.6 0 1.2-.3 1.6-.8l.1.6h.7v-7.1h-.7v2.8c-.4-.4-.9-.6-1.5-.6-1.3.1-2.3 1.2-2.2 2.5v.1c0 1.8.8 2.8 2.1 2.8zm.2-4.4c.5 0 .9.2 1.3.6v2.4a1.75 1.75 0 0 1-1.4.7c-.9 0-1.4-.7-1.4-1.8a1.58 1.58 0 0 1 1.6-1.6zm7.5 3c0-.4-.2-.6-1.5-.9s-1.9-.7-1.9-1.4.7-1.4 2-1.4c.7 0 1.4.2 2 .6l-.4.5c-.5-.3-1-.5-1.6-.5-.8 0-1.1.3-1.1.7s.4.6 1.4.8c1.6.3 2 .8 2 1.5s-.8 1.4-2.2 1.4c-.9 0-1.7-.3-2.4-.8l.4-.6c.6.4 1.4.7 2.1.7.9.2 1.3-.1 1.3-.5zm9.2-5.3v4.1c0 1.3.6 1.8 1.4 1.8s1.4-.5 1.4-1.8v-4.1h.8v4.1c0 1.9-.9 2.6-2.2 2.6s-2.2-.7-2.2-2.6v-4.1zm8.8 5.3c0-.4-.2-.6-1.5-.9s-1.9-.7-1.9-1.4.7-1.4 2-1.4c.7 0 1.4.2 2 .6l-.4.5c-.5-.3-1-.5-1.6-.5-.8 0-1.1.3-1.1.7s.4.6 1.4.8c1.6.3 2 .8 2 1.5s-.8 1.4-2.2 1.4c-.9 0-1.7-.3-2.4-.8l.4-.6c.6.4 1.4.7 2.1.7.9.2 1.3-.1 1.3-.5zm4.7-3.7c-1.4 0-2.5 1.2-2.5 2.6s1.2 2.5 2.6 2.5c.7 0 1.3-.2 1.9-.6l-.3-.5c-.4.3-1 .5-1.5.4-1 .1-1.8-.6-1.9-1.6v-.1h3.8v-.5c0-1.2-.9-2.1-2.1-2.1zm0 .7c.8 0 1.4.5 1.4 1.5h-3.1c.2-.8.9-1.3 1.8-1.3zm7.3-.7c.3 0 .7 0 1 .2l-.2.7c-.3-.1-.6-.2-.9-.2-.9 0-1.7.6-2 1.4v3h-.8v-4.9h.7l.1 1.2c.5-.8 1.3-1.3 2.3-1.3zm6.6 3.6l.5.5c-.5.6-1.2 1-2 1-1.6 0-2.9-1.3-2.9-3.4s1.2-3.4 2.9-3.4c.7 0 1.3.3 1.8.8l-.5.5c-.3-.4-.8-.6-1.3-.6-1.3 0-2.1 1-2.1 2.6s.8 2.7 2.1 2.7c.6.1 1.1-.1 1.6-.5zm4 1.5c1.4.1 2.6-1 2.7-2.4s-1-2.6-2.4-2.7-2.6 1-2.7 2.4v.2c-.2 1.3.7 2.5 2 2.7h.5zm0-4.4c.9 0 1.6.8 1.6 1.9s-.6 1.8-1.6 1.8-1.6-.7-1.6-1.8.7-1.7 1.7-1.7zm8.5.8v3.7h-.8v-3.4c0-.6-.2-.8-.5-.8s-.5.3-.8.8v3.5h-.8v-3.4c0-.6-.1-.8-.5-.8s-.6.3-.8.8v3.5h-.8v-4.9h.7l.1.6c.2-.5.6-.8 1.1-.8s.8.3.9.8c.3-.5.6-.8 1.1-.8s1.2.5 1.2 1.5zm5.9 1c0-1.5-.7-2.5-2-2.5-.6 0-1.2.3-1.7.7l-.1-.6h-.7v6.9h.8v-2.5c.8.9 2.2.9 3.1 0 .6-.5.8-1.3.6-2zm-2.4 1.9c-.5 0-.9-.2-1.3-.6v-2.4c.4-.4.9-.7 1.4-.7 1 0 1.4.7 1.4 1.8s-.5 2.1-1.4 2.1zm6 .7c1.4.1 2.6-1 2.7-2.4s-1-2.6-2.4-2.7-2.6 1-2.7 2.4v.2c-.2 1.3.7 2.5 2 2.7h.5zm0-4.4c.9 0 1.6.8 1.6 1.9s-.6 1.8-1.6 1.8-1.6-.7-1.6-1.8.7-1.7 1.7-1.7zm4.7 4.3h-.8v-4.9h.7l.1.8c.4-.6 1.1-.9 1.8-.9 1.1 0 1.7.7 1.7 2v3h-.8v-2.9c0-.9-.3-1.3-1.1-1.3-.6 0-1 .3-1.5.9zm7.4-5c-1.4 0-2.5 1.2-2.5 2.6s1.2 2.5 2.6 2.5c.7 0 1.3-.2 1.9-.6l-.3-.5c-.4.3-1 .5-1.5.4-1 .1-1.8-.6-1.9-1.6v-.1h3.8v-.5c0-1.1-.9-2.1-2.1-2.1zm0 .7c.8 0 1.4.5 1.4 1.5h-3.1c.2-.8 1-1.4 1.8-1.3zm7.2 4.3v-2.9c0-.9-.3-1.3-1.1-1.3-.6 0-1 .3-1.5.9v3.6h-.8v-4.9h.7l.1.8c.4-.6 1.1-.9 1.8-.9 1.1 0 1.7.7 1.7 2v3zm3.7-4.2h-1.4v-.6h1.4l.1-1.6h.7v1.6h2.5v.7h-2.4v2.3c0 .9.3 1.3 1.2 1.3.4 0 .8-.1 1.2-.2l.2.6c-.5.2-1 .3-1.5.3-1.4 0-1.9-.8-1.9-2zm12.6.4c0-.6-.1-1.2-.1-1.9 0-1 .6-1.3 1.9-1.3h.6v.5h-.5c-1 0-1.2.3-1.2.9s.1 1.2.1 1.8c.1.5-.3 1-.8 1.1h-.1c.5 0 .9.4.9 1v.1c0 .7-.1 1.2-.1 1.8s.2.9 1.2.9h.5v.5h-.6c-1.3 0-1.9-.3-1.9-1.3 0-.7.1-1.3.1-1.9 0-.4-.3-.8-1.4-.8v-.2c1.3 0 1.6-.4 1.6-.8zm-299.2 13.4c-1.7 0-2.9 1.3-2.9 3.8s1.3 3.9 2.9 3.9c.6 0 1.2-.2 1.7-.6l-.3-.4c-.4.3-.9.5-1.4.4-1.3 0-2.3-1.2-2.3-3.3s1.1-3.3 2.3-3.3 1.5.8 1.5 1.8v.1c-1.7.2-2.6.7-2.6 1.7 0 .7.5 1.3 1.2 1.3h.1c.5 0 1-.3 1.3-.7l.1.6h.5v-3c.2-1.1-.5-2.1-1.9-2.1zm1.3 4.3c-.3.4-.7.6-1.1.6-.4.1-.7-.2-.8-.6v-.1c0-.6.5-1 1.9-1.2zm3.8 1.4v-5.1h-1.6v-.7h4.1v.7h-1.6v5.1h1.6v.7h-4.1v-.7zm8.7.7h-.8v-2.9c0-.9-.3-1.3-1.1-1.3-.6 0-1 .3-1.5.9v3.6h-.8v-4.9h.7l.1.8c.4-.6 1.1-.9 1.8-.9 1.1 0 1.7.7 1.7 2zm2.7 2.1c-.5 0-1-.1-1.4-.3l.3-.6c.3.2.7.3 1.1.3 1 0 1.2-.5 1.2-1.3v-4.4h-2.3v-.7h3.1v5c.3 1-.3 1.9-1.3 2.2-.2.1-.4.1-.6.1zm1.5-8c-.4 0-.6-.3-.6-.7s.3-.6.7-.6a.65.65 0 0 1 .6.6c.1.3-.1.7-.4.8h-.1zm5.8 6c.7 0 1.3-.2 1.9-.6l-.3-.5c-.4.3-1 .5-1.5.4-1 .1-1.8-.6-1.9-1.6v-.1h3.8v-.5c.1-1.1-.7-2.2-1.9-2.3h-.3c-1.4 0-2.5 1.2-2.5 2.6.1 1.6 1.3 2.7 2.7 2.6zm-.1-4.4c.8 0 1.4.5 1.4 1.5h-3.1c.2-.8.9-1.4 1.8-1.3zm8.2 3.7c-.5.5-1.2.7-1.9.8-1.3.1-2.5-.9-2.7-2.2v-.3c0-1.4 1.1-2.5 2.5-2.6h.2c.7 0 1.3.2 1.8.7l-.4.5c-.4-.3-.8-.5-1.3-.6-1-.1-1.8.7-1.9 1.7v.2c-.1 1 .7 1.8 1.7 1.9h.2c.6 0 1.1-.2 1.5-.6zm6.1.5c-.5.2-1 .3-1.5.3-1.4 0-1.9-.8-1.9-2v-2.3h-1.4v-.6h1.4l.1-1.6h.7v1.6h2.5v.7h-2.4v2.3c0 .9.3 1.3 1.2 1.3.4 0 .8-.1 1.2-.2zm2.7-5.7v2.2h2.7v.7h-2.7v3.1h-.8v-6.6h4v.7zm7 5.8v-4.2h-2.3v-.7h3.1v5zm1-6.5c0 .4-.3.7-.6.7-.4 0-.7-.3-.7-.6 0-.4.3-.7.6-.7.3-.1.7.1.8.4v.4zm5.2 6.6c.7 0 1.3-.2 1.9-.6l-.3-.5c-.4.3-1 .5-1.5.4-1 .1-1.8-.6-1.9-1.6v-.1h3.8v-.5c.1-1.1-.7-2.2-1.9-2.3h-.3c-1.4 0-2.5 1.2-2.5 2.6 0 1.6 1.2 2.7 2.7 2.6zm-.2-4.4c.8 0 1.4.5 1.4 1.5h-3.1c.2-.8.9-1.4 1.8-1.3zm8.2 4.2a3.08 3.08 0 0 1-1.3.3c-1 0-1.6-.6-1.6-1.8v-4.8h-1.7v-.7h2.6v5.6c-.1.5.3.9.7 1h.3c.3 0 .6-.1.9-.2zm3.4.2c.6 0 1.2-.3 1.6-.8l.1.6h.7v-7.1h-.7v2.8c-.4-.4-.9-.6-1.5-.6-1.3.1-2.3 1.2-2.2 2.5v.1c0 1.8.8 2.7 2.1 2.7zm.2-4.4c.5 0 .9.2 1.3.6v2.4a1.75 1.75 0 0 1-1.4.7c-.9 0-1.4-.7-1.4-1.8 0-.9.7-1.6 1.6-1.7zm5.9 1.5c0 1.6.7 3.1 2 4.1l-.5.4a5.73 5.73 0 0 1 0-9.1l.5.4c-1.3 1-2 2.6-1.9 4.3zm7.1 0c0 1.8-.8 3.5-2.2 4.5l-.5-.4c2.3-1.8 2.6-5.2.8-7.5-.2-.3-.5-.5-.8-.8l.5-.4c1.5 1.1 2.4 2.9 2.3 4.7zm9.8-2.4v1.2c.4-.6 1.1-1 1.8-1 1.1 0 1.7.7 1.7 2v3h-.8v-2.9c0-.9-.3-1.3-1.1-1.3-.6 0-1 .3-1.5.9v3.6h-.8v-7.1h.8zm6.3 1h-1.4v-.6h1.4l.1-1.6h.7v1.6h2.5v.7h-2.4v2.3c0 .9.3 1.3 1.2 1.3.4 0 .8-.1 1.2-.2l.2.6c-.5.2-1 .3-1.5.3-1.4 0-1.9-.8-1.9-2zm4.6-.6h1.4l.1-1.6h.7v1.6h2.5v.7h-2.4v2.3c0 .9.3 1.3 1.2 1.3.4 0 .8-.1 1.2-.2l.2.6c-.5.2-1 .3-1.5.3-1.4 0-1.9-.8-1.9-2v-2.3h-1.4zm8.8-.1c-.6 0-1.2.3-1.7.7l-.1-.6h-.7v6.9h.8v-2.5c.8.9 2.2.9 3.1 0 .5-.5.8-1.3.6-2 .1-1.3-.6-2.3-2-2.3zm-.4 4.3c-.5 0-.9-.2-1.3-.6v-2.4c.4-.4.9-.7 1.4-.7 1 0 1.4.7 1.4 1.8s-.5 2.1-1.4 2.1zm5.2-.1c0-.4.4-.8.8-.8s.8.4.8.8-.4.8-.8.8a.68.68 0 0 1-.7-.7zm0-3.6c0-.4.4-.8.8-.8s.8.4.8.8-.4.8-.8.8a.68.68 0 0 1-.7-.7zm5.4-2.2v2.7h2.7v-2.7h.9v6.7h-.9v-3.1h-2.7v3.1h-.9v-6.6zm9.8 6.4c-.5.2-1 .3-1.5.3-1.4 0-1.9-.8-1.9-2v-2.3h-1.4v-.6h1.4l.1-1.6h.7v1.6h2.5v.7h-2.4v2.3c0 .9.3 1.3 1.2 1.3.4 0 .8-.1 1.2-.2zm6 0c-.5.2-1 .3-1.5.3-1.4 0-1.9-.8-1.9-2v-2.3h-1.4v-.6h1.4l.1-1.6h.7v1.6h2.5v.7h-2.4v2.3c0 .9.3 1.3 1.2 1.3.4 0 .8-.1 1.2-.2zm1.5 2.2h.8v-2.5c.8.9 2.2.9 3.1 0 .5-.5.8-1.3.6-2 0-1.5-.7-2.5-2-2.5-.6 0-1.2.3-1.7.7l-.1-.6h-.7zm.8-5.6c.4-.4.9-.7 1.4-.7 1 0 1.4.7 1.4 1.8s-.6 1.9-1.5 1.9c-.5 0-.9-.2-1.3-.6zm9.3 2.2l.5.5c-.5.6-1.2 1-2 1-1.6 0-2.9-1.3-2.9-3.4s1.2-3.4 2.9-3.4c.7 0 1.3.3 1.8.8l-.5.5c-.3-.4-.8-.6-1.3-.6-1.3 0-2.1 1-2.1 2.6s.8 2.7 2.1 2.7c.6.1 1.1-.2 1.5-.6zm6.3 1.2a3.08 3.08 0 0 1-1.3.3c-1 0-1.6-.6-1.6-1.8v-4.8h-1.7v-.7h2.6v5.6c-.1.5.3.9.7 1h.3c.3 0 .6-.1.9-.2zm4.1-5.7c-.4 0-.6-.3-.6-.7s.3-.6.7-.6a.65.65 0 0 1 .6.6c.1.3-.1.7-.4.8h-.2zm-2.5 1h3.1v5h-.8v-4.2h-2.3zm8.2-.2c-1.4 0-2.5 1.2-2.5 2.6s1.2 2.5 2.6 2.5c.7 0 1.3-.2 1.9-.6l-.3-.5c-.4.3-1 .5-1.5.4-1 .1-1.8-.6-1.9-1.6v-.1h3.8v-.5c0-1.2-.9-2.1-2.1-2.1zm0 .7c.8 0 1.4.5 1.4 1.5h-3.1c.2-.8.9-1.4 1.8-1.3zm7.2 4.3v-2.9c0-.9-.3-1.3-1.1-1.3-.6 0-1 .3-1.5.9v3.6h-.8v-4.9h.7l.1.8c.4-.6 1.1-.9 1.8-.9 1.1 0 1.7.7 1.7 2v3zm6.9-.8l.2.6c-.5.2-1 .3-1.5.3-1.4 0-1.9-.8-1.9-2v-2.3h-1.4v-.6h1.4l.1-1.6h.7v1.6h2.5v.7h-2.4v2.3c0 .9.3 1.3 1.2 1.3.4 0 .8 0 1.1-.1zm4 .7h-.2c-.4 0-.7-.3-.8-.7v-.1c0-.4.3-.7.7-.8h.1c.6 0 .9.5.9 1.3 0 1.1-.7 2.1-1.8 2.4l-.2-.5c.7-.2 1.3-.7 1.4-1.5zm-1-4.2c0-.4.4-.8.8-.8s.8.4.8.8-.4.8-.8.8-.6-.3-.7-.7zm-178.8 14c-1.7 0-2.9 1.3-2.9 3.8s1.3 3.9 2.9 3.9c.6 0 1.2-.2 1.7-.6l-.3-.4c-.4.3-.9.5-1.4.4-1.3 0-2.3-1.2-2.3-3.3s1.1-3.3 2.3-3.3 1.5.8 1.5 1.8v.1c-1.7.2-2.6.7-2.6 1.7 0 .7.5 1.3 1.2 1.3h.1c.5 0 1-.3 1.3-.7l.1.6h.5v-3c.1-1.2-.5-2.2-1.9-2.2zm1.4 4.3c-.3.4-.7.6-1.1.6-.4.1-.7-.2-.8-.6v-.1c0-.6.5-1 1.9-1.2zm3.7 1.3v-5.1h-1.6v-.7h4.1v.7h-1.6v5.1h1.6v.7h-4.1v-.7zm7.9.8v-2.9c0-.9-.3-1.3-1.1-1.3-.6 0-1 .3-1.5.9v3.5h-.8v-4.9h.7l.1.8c.4-.6 1.1-.9 1.8-.9 1.1 0 1.7.7 1.7 2v3zm5.7-6.6c0 .4-.3.7-.6.7-.4 0-.7-.3-.7-.6 0-.4.3-.7.6-.7.3-.1.7.1.8.4v.4zm-2.2 8.7c-.5 0-1-.1-1.4-.3l.3-.6c.3.2.7.3 1.1.3 1 0 1.2-.5 1.2-1.3v-4.4h-2.3v-.7h3.1v5a1.74 1.74 0 0 1-1.4 2.1c-.2 0-.4.1-.6 0zm7.4-2c.7 0 1.3-.2 1.9-.6l-.3-.5c-.4.3-1 .5-1.5.4-1 .1-1.8-.6-1.9-1.6v-.1h3.8v-.5c.1-1.1-.7-2.2-1.9-2.3h-.3c-1.4 0-2.5 1.2-2.5 2.6 0 1.5 1.2 2.6 2.7 2.6zm-.2-4.4c.8 0 1.4.5 1.4 1.5h-3.1c.1-.8.9-1.4 1.8-1.4zm8.3 3.7c-.5.5-1.2.7-1.9.8-1.3.1-2.5-.9-2.7-2.2v-.3c0-1.4 1.1-2.5 2.5-2.6h.2c.7 0 1.3.2 1.8.7l-.4.5c-.4-.3-.8-.5-1.3-.6-1-.1-1.8.7-1.9 1.7v.2c-.1 1 .7 1.8 1.7 1.9h.2c.6 0 1.1-.2 1.5-.6zm6 .4c-.5.2-1 .3-1.5.3-1.4 0-1.9-.8-1.9-2v-2.3h-1.4v-.6h1.4l.1-1.6h.7v1.6h2.5v.7h-2.4v2.3c0 .9.3 1.3 1.2 1.3.4 0 .8-.1 1.2-.2zm2.7-5.7v2.2h2.7v.7h-2.7v3h-.8v-6.6h4v.7zm8-.6c0 .4-.3.7-.6.7-.4 0-.7-.3-.7-.6 0-.4.3-.7.6-.7.3-.1.7.1.7.5v.3zm-1 6.5v-4.2h-2.3v-.7h3.1v5zm6.2.1c.7 0 1.3-.2 1.9-.6l-.3-.5c-.4.3-1 .5-1.5.4-1 .1-1.8-.6-1.9-1.6v-.1h3.8v-.5c.1-1.1-.7-2.2-1.9-2.3h-.3c-1.4 0-2.5 1.2-2.5 2.6.1 1.5 1.2 2.6 2.7 2.6zm-.1-4.4c.8 0 1.4.5 1.4 1.5h-3.1c.1-.8.9-1.4 1.7-1.4zm5.2 2.7v-4.8h-1.7v-.7h2.6v5.6c-.1.5.3.9.7 1h.3c.3 0 .6-.1.9-.2l.2.6a3.08 3.08 0 0 1-1.3.3c-1.1.1-1.6-.5-1.6-1.6zm6.3 1.7c.6 0 1.2-.3 1.6-.8l.1.6h.7v-7.1h-.7v2.8c-.4-.4-.9-.6-1.5-.6-1.3.1-2.3 1.2-2.2 2.5v.1c0 1.7.8 2.6 2.1 2.6zm.3-4.4c.5 0 .9.2 1.3.6v2.4a1.75 1.75 0 0 1-1.4.7c-.9 0-1.4-.7-1.4-1.8 0-.9.7-1.7 1.6-1.7zm5.8 1.5c0 1.6.7 3.1 2 4.1l-.5.4a5.73 5.73 0 0 1 0-9.1l.5.4c-1.3 1-2 2.6-1.9 4.2zm6.4 0c0-1.6-.7-3.1-2-4.1l.5-.4a5.73 5.73 0 0 1 0 9.1l-.5-.4c1.3-.9 2.1-2.4 2.1-4zm12.2-2.2c-.6 0-1.2.3-1.7.7l-.1-.6h-.7v6.9h.8v-2.5c.8.9 2.2.9 3.1 0 .5-.5.8-1.3.6-2 .1-1.4-.6-2.4-2-2.5zm-.4 4.4c-.5 0-.9-.2-1.3-.6v-2.4c.4-.4.9-.7 1.4-.7 1 0 1.4.7 1.4 1.8s-.6 2-1.4 2zm7.4-.1l.1.7h.7v-3c.1-1-.6-1.9-1.6-2h-.4c-.8 0-1.5.3-2.2.7l.3.6c.5-.3 1.1-.5 1.7-.6s1.2.4 1.3 1v.2c-2.5.2-3.5.7-3.5 1.8 0 .8.7 1.4 1.5 1.4h.1c.7-.1 1.4-.3 2-.8zm-.1-.6c-.4.4-1 .7-1.6.7s-1.1-.2-1.1-.8.6-1 2.7-1.2zm2.4-3.5h1.4l.1-1.6h.7v1.6h2.5v.7h-2.4v2.3c0 .9.3 1.3 1.2 1.3.4 0 .8-.1 1.2-.2l.2.6c-.5.2-1 .3-1.5.3-1.4 0-1.9-.8-1.9-2v-2.3h-1.4zm10.6 4.9h-.8v-2.9c0-.9-.3-1.3-1.1-1.3-.6 0-1 .3-1.5.9v3.4h-.8v-7.1h.8v3.1c.4-.6 1.1-1 1.8-1 1.1 0 1.7.7 1.7 2l-.1 2.9zm2.4-6.6v2.7h2.7v-2.7h.9v6.6h-.9v-3.1h-2.7v3.1h-.9v-6.6zm7.7 6.7c.7 0 1.3-.2 1.9-.6l-.3-.5c-.4.3-1 .5-1.5.4-1 .1-1.8-.6-1.9-1.6v-.1h3.8v-.5c.1-1.1-.7-2.2-1.9-2.3h-.3c-1.4 0-2.5 1.2-2.5 2.6.1 1.5 1.3 2.6 2.7 2.6zm-.1-4.4c.8 0 1.4.5 1.4 1.5h-3.1c.1-.9.8-1.5 1.7-1.5zm6.1-2.8v5.6c-.1.5.3.9.7 1h.3c.3 0 .6-.1.9-.2l.2.6a3.08 3.08 0 0 1-1.3.3c-1 0-1.6-.6-1.6-1.8v-4.8h-1.7v-.7zm5.9 7.2c1.3-.1 2.3-1.2 2.2-2.5v-.1c0-1.5-.7-2.5-2-2.5-.6 0-1.2.3-1.7.7l-.1-.6h-.7v6.9h.8v-2.5c.5.3.9.6 1.5.6zm-1.4-3.7c.4-.4.9-.7 1.4-.7 1 0 1.4.7 1.4 1.8s-.6 1.9-1.5 1.9c-.5 0-.9-.2-1.3-.6zm7.5 3.7c.7 0 1.3-.2 1.9-.6l-.3-.5c-.4.3-1 .5-1.5.4-1 .1-1.8-.6-1.9-1.6v-.1h3.8v-.5c.1-1.1-.7-2.2-1.9-2.3h-.3c-1.4 0-2.5 1.2-2.5 2.6.1 1.5 1.3 2.6 2.7 2.6zm-.1-4.4c.8 0 1.4.5 1.4 1.5h-3.1c.1-.9.8-1.5 1.7-1.5zm5.1 1.4v2.8h-.8v-4.9h.7l.1 1.2c.5-.8 1.3-1.3 2.2-1.3.3 0 .7 0 1 .2l-.2.7c-.3-.1-.6-.2-.9-.2-1 .2-1.8.7-2.1 1.5zm5.9-1.4c0-.4.4-.8.8-.8s.8.4.8.8-.4.8-.8.8c-.4.1-.8-.3-.8-.8zm0 3.6c0-.4.4-.8.8-.8s.8.4.8.8-.4.8-.8.8-.8-.3-.8-.8zm6.8-5.9h-2v6.6h.8v-2.6h1.1c1.4 0 2.4-.6 2.4-2s-.9-2-2.3-2zm-.1 3.3h-1v-2.6h1c1.1 0 1.7.3 1.7 1.3s-.6 1.3-1.7 1.3zm3.9 2c0 .8.7 1.4 1.5 1.4h.1c.7-.1 1.4-.3 1.9-.8l.1.7h.7v-3c.1-1-.6-1.9-1.6-2h-.4c-.8 0-1.5.3-2.2.7l.3.6c.5-.3 1.1-.5 1.7-.6s1.2.4 1.3 1v.2c-2.4.2-3.4.7-3.4 1.8zm3.5-1.3v1.3c-.4.4-1 .7-1.6.7s-1.1-.2-1.1-.8.6-1 2.7-1.2zm3.8-1.6h-1.4v-.6h1.4l.1-1.6h.7v1.6h2.3v.7h-2.4v2.3c0 .9.3 1.3 1.2 1.3.4 0 .8-.1 1.2-.2l.2.6c-.5.2-1 .3-1.5.3-1.4 0-1.9-.8-1.9-2zm5.7-1v1.2c.4-.6 1.1-1 1.8-1 1.1 0 1.7.7 1.7 2v3h-.8v-2.9c0-.9-.3-1.3-1.1-1.3-.6 0-1 .3-1.5.9v3.4h-.8v-7.1h.8zm5.8-1.4v2.7h2.7v-2.7h.9v6.6h-.9v-3.1h-2.7v3.1h-.9v-6.6zm7.7 6.7c.7 0 1.3-.2 1.9-.6l-.3-.5c-.4.3-1 .5-1.5.4-1 .1-1.8-.6-1.9-1.6v-.1h3.8v-.5c.1-1.1-.7-2.2-1.9-2.3h-.3c-1.4 0-2.5 1.2-2.5 2.6.1 1.5 1.3 2.6 2.7 2.6zm-.1-4.5c.8 0 1.4.5 1.4 1.5h-3.1c.1-.8.8-1.4 1.7-1.5zm5.3-2.1h-1.7v-.7h2.5v5.6c-.1.5.3.9.7 1h.3c.3 0 .6-.1.9-.2l.2.6a3.08 3.08 0 0 1-1.3.3c-1 0-1.6-.6-1.6-1.8zm6.9 1.5c-.6 0-1.2.3-1.7.7l-.1-.6h-.7v6.9h.8v-2.5c.8.9 2.2.9 3.1 0 .5-.5.8-1.3.6-2 0-1.5-.7-2.5-2-2.5zm-.3 4.4c-.5 0-.9-.2-1.3-.6v-2.4c.4-.4.9-.7 1.4-.7 1 0 1.4.7 1.4 1.8s-.7 1.9-1.5 1.9zm6.2.7c.7 0 1.3-.2 1.9-.6l-.3-.5c-.4.3-1 .5-1.5.4-1 .1-1.8-.6-1.9-1.6v-.1h3.8v-.5c.1-1.1-.7-2.2-1.9-2.3h-.3c-1.4 0-2.5 1.2-2.5 2.6.1 1.5 1.3 2.6 2.7 2.6zm-.1-4.5c.8 0 1.4.5 1.4 1.5h-3.1c.1-.8.8-1.4 1.7-1.5zm7.1.1c-.9 0-1.7.6-2 1.4v2.9h-.8v-4.9h.7l.1 1.2c.5-.8 1.3-1.3 2.2-1.3.3 0 .7 0 1 .2l-.2.7c-.4-.1-.7-.1-1-.2zm6.2 2.6c0-.7-.5-.9-1.2-1.2l-1-.4c-.8-.2-1.4-.9-1.4-1.7.1-1.1 1-1.8 2.1-1.7h.1c.7 0 1.5.3 2 .8l-.4.5c-.4-.4-1-.6-1.6-.6-.8 0-1.3.4-1.3 1s.6.9 1.2 1.1l.9.4c.8.3 1.4.8 1.4 1.8s-.9 1.9-2.3 1.9c-.9 0-1.8-.4-2.4-1l.5-.6c.5.5 1.2.8 1.9.8 1 0 1.5-.4 1.5-1.1zm6.9-1c.1-1.1-.7-2.2-1.9-2.3h-.3c-1.4 0-2.5 1.2-2.5 2.6s1.2 2.5 2.6 2.5c.7 0 1.3-.2 1.9-.6l-.3-.5c-.4.3-1 .5-1.5.4-1 .1-1.8-.6-1.9-1.6v-.1h3.8c.1-.1.1-.2.1-.4zm-2.2-1.6c.8 0 1.4.5 1.4 1.5h-3.1c.1-.9.8-1.5 1.7-1.5zm7.1.1c-.9 0-1.7.6-2 1.4v2.8h-.8v-4.9h.7l.1 1.2c.5-.8 1.3-1.3 2.2-1.3.3 0 .7 0 1 .2l-.2.7c-.4-.1-.7-.1-1-.1zm6.4-.7h.8l-2 4.9h-.9l-2.1-4.9h.9l1.1 2.8.5 1.4.5-1.4zm4.8-1c-.4 0-.6-.3-.6-.7s.3-.6.7-.6a.65.65 0 0 1 .6.6c-.1.5-.3.7-.7.7zm-2.6 1h3.1v4.8h-.8v-4.2h-2.3zm6.8 2.5c-.1 1 .7 1.8 1.7 1.9h.2c.6 0 1.1-.2 1.5-.6l.4.5c-.5.5-1.2.7-1.9.8-1.3.1-2.5-.9-2.7-2.2v-.3c0-1.4 1.1-2.5 2.5-2.6h.2c.7 0 1.3.2 1.8.7l-.4.5c-.4-.3-.8-.5-1.3-.6-1-.1-1.8.6-1.9 1.6-.2.1-.2.2-.1.3zm9.7-.3c.1-1.1-.7-2.2-1.9-2.3h-.3c-1.4 0-2.5 1.2-2.5 2.6s1.2 2.5 2.6 2.5c.7 0 1.3-.2 1.9-.6l-.3-.5c-.4.3-1 .5-1.5.4-1 .1-1.8-.6-1.9-1.6v-.1h3.8c.1-.1.1-.2.1-.4zm-2.2-1.6c.8 0 1.4.5 1.4 1.5h-3.1c.1-.9.8-1.5 1.7-1.5zm6.8 4c0 1.1-.7 2.1-1.8 2.4l-.2-.5c.7-.2 1.2-.9 1.3-1.7h-.2c-.4 0-.7-.3-.8-.7v-.1c0-.4.3-.7.7-.8h.1c.5.1.8.7.9 1.4zm-1.8-4c0-.4.4-.8.8-.8s.8.4.8.8-.4.8-.8.8c-.4.1-.8-.2-.8-.8-.1.1-.1 0 0 0zm-256.8 15.3c-.6 0-1.2.3-1.7.7l-.1-.6h-.7v6.9h.8v-2.5c.8.9 2.2.9 3.1 0 .5-.5.8-1.3.6-2 0-1.5-.7-2.5-2-2.5zm-.4 4.4c-.5 0-.9-.2-1.3-.6v-2.4c.4-.4.9-.7 1.4-.7 1 0 1.4.7 1.4 1.8s-.6 1.9-1.5 1.9zm7.4-4.4c.3 0 .7 0 1 .2l-.2.7c-.3-.1-.6-.2-.9-.2-.9 0-1.7.6-2 1.4v2.9h-.8v-4.9h.7l.1 1.2a2.33 2.33 0 0 1 2.1-1.3zm4.6 0c-1.4-.1-2.6 1-2.7 2.4s1 2.6 2.4 2.7 2.6-1 2.7-2.4v-.1c.1-1.3-.9-2.5-2.2-2.6zm0 4.4c-.9 0-1.6-.7-1.6-1.8s.6-1.9 1.6-1.9 1.6.8 1.6 1.9-.7 1.8-1.6 1.8zm8.2-.2l.2.6c-.5.2-1 .3-1.5.3-1.4 0-1.9-.8-1.9-2v-2.3h-1.4v-.6h1.4l.1-1.6h.7v1.6h2.4v.7h-2.4v2.3c0 .9.3 1.3 1.2 1.3.5 0 .9-.1 1.2-.3zm4 .9c.7 0 1.3-.2 1.9-.6l-.3-.5c-.4.3-1 .5-1.5.4-1 .1-1.8-.6-1.9-1.6v-.1h3.8v-.5c.1-1.1-.7-2.2-1.9-2.3h-.3c-1.4 0-2.5 1.2-2.5 2.6.1 1.5 1.3 2.6 2.7 2.6zm-.1-4.5c.8 0 1.4.5 1.4 1.5h-3.1c.2-.8.9-1.4 1.7-1.5zm8.2 3.7c-.5.5-1.2.7-1.9.8-1.3.1-2.5-.9-2.7-2.2v-.3c0-1.4 1.1-2.5 2.5-2.6h.2c.7 0 1.3.2 1.8.7l-.4.5c-.4-.3-.8-.5-1.3-.6-1-.1-1.8.7-1.9 1.7v.2c-.1 1 .7 1.8 1.7 1.9h.2c.6 0 1.1-.2 1.5-.6zm6.1.5c-.5.2-1 .3-1.5.3-1.4 0-1.9-.8-1.9-2v-2.3h-1.4v-.6h1.4l.1-1.6h.7v1.6h2.4v.7h-2.4v2.3c0 .9.3 1.3 1.2 1.3.4 0 .8-.1 1.2-.2zm3.8.3c.7 0 1.3-.2 1.9-.6l-.3-.5c-.4.3-1 .5-1.5.4-1 .1-1.8-.6-1.9-1.6v-.1h3.8v-.5c.1-1.1-.7-2.2-1.9-2.3h-.3c-1.4 0-2.5 1.2-2.5 2.6.1 1.5 1.3 2.6 2.7 2.6zm-.1-4.5c.8 0 1.4.5 1.4 1.5h-3.1c.2-.8.9-1.4 1.7-1.5zm5.5 4.5c.6 0 1.2-.3 1.6-.8l.1.6h.7v-7.1h-.8v2.8c-.4-.4-.9-.6-1.5-.6-1.3.1-2.3 1.2-2.2 2.5v.1c.1 1.6.9 2.5 2.1 2.5zm.3-4.4c.5 0 .9.2 1.3.6v2.4a1.75 1.75 0 0 1-1.4.7c-.9 0-1.4-.7-1.4-1.8-.1-1 .6-1.8 1.5-1.9zm12.9 3.7h-1.1c-.6 0-1-.2-1-.6 0-.2.2-.5.4-.6.3.1.5.2.8.2a1.77 1.77 0 0 0 1.9-1.5v-.2c0-.4-.2-.7-.4-1h1.3v-.7h-2c-.2-.1-.5-.1-.7-.1-1-.1-1.8.7-1.9 1.6v.1c0 .5.2 1 .6 1.3-.3.2-.5.5-.6.9 0 .3.2.6.5.8-.4.2-.7.6-.8 1.1 0 .9.8 1.3 2.2 1.3 1.6 0 2.7-.8 2.7-1.7s-.7-.9-1.9-.9zm-.9-3.8c.6 0 1.2.5 1.2 1.1s-.5 1.2-1.1 1.2-1.2-.5-1.2-1.1c-.1-.7.4-1.2 1.1-1.2-.1 0 0 0 0 0zm.1 6c-1 0-1.6-.3-1.6-.8 0-.3.2-.6.6-.8.2.1.5.1.7.1h.9c.7 0 1.1.1 1.1.6s-.6.9-1.7.9zm8.3-4.3c.1-1.1-.7-2.2-1.9-2.3h-.3c-1.4 0-2.5 1.2-2.5 2.6s1.2 2.5 2.6 2.5c.7 0 1.3-.2 1.9-.6l-.3-.5c-.4.3-1 .5-1.5.4-1 .1-1.8-.6-1.9-1.6v-.1h3.8c.1-.1.1-.2.1-.4zm-2.2-1.7c.8 0 1.4.5 1.4 1.5h-3.1c.2-.8.9-1.4 1.7-1.5zm3.5-.4h1.4l.1-1.6h.7v1.6h2.4v.7h-2.4v2.3c0 .9.3 1.3 1.2 1.3.4 0 .8-.1 1.2-.2l.2.6c-.5.2-1 .3-1.5.3-1.4 0-1.9-.8-1.9-2v-2.3h-1.4zm7.9-1.8l-2.2 6.6h.9l.6-2h2.4l.6 2h.9l-2.2-6.6zm1.4 3.9h-2l.3-1 .6-2.2.6 2.2zm4.6 2.7l-2.1-4.9h.9l1.1 2.8.5 1.4.5-1.4 1.1-2.8h.8l-2 4.9zm4.2-1.3c0 .8.7 1.4 1.5 1.4h.1c.7-.1 1.4-.3 1.9-.8l.1.7h.7v-3c.1-1-.6-1.9-1.6-2h-.4c-.8 0-1.5.3-2.2.7l.3.6c.5-.3 1.1-.5 1.7-.6s1.2.4 1.3 1v.2c-2.3.2-3.3.7-3.4 1.8zm3.6-1.3v1.3c-.4.4-1 .7-1.6.7s-1.1-.2-1.1-.8.6-1 2.7-1.2zm5.6 2.6h-.8v-4.2h-2.3v-.7h3.1zm.2-6.6c0 .4-.3.7-.6.7-.4 0-.7-.3-.7-.6 0-.4.3-.7.6-.7.4 0 .7.2.7.6zm5.1-.6v5.6c-.1.5.3.9.7 1h.3c.3 0 .6-.1.9-.2l.2.6a3.08 3.08 0 0 1-1.3.3c-1 0-1.6-.6-1.6-1.8v-4.8h-1.7v-.7zm3.5 5.9c0 .8.7 1.4 1.5 1.4h.1c.7-.1 1.4-.3 1.9-.8l.1.7h.7v-3c.1-1-.6-1.9-1.6-2h-.4c-.8 0-1.5.3-2.2.7l.3.6c.5-.3 1.1-.5 1.7-.6s1.2.4 1.3 1v.2c-2.3.2-3.3.7-3.4 1.8zm3.6-1.3v1.3c-.4.4-1 .7-1.6.7s-1.1-.2-1.1-.8.6-1 2.7-1.2zm5-2.4c-.6 0-1.2.3-1.6.7v-2.8h-.8v7.1h.7l.1-.6c.8.9 2.2.9 3.1.1.6-.5.8-1.3.6-2.1 0-1.4-.7-2.4-2.1-2.4zm-.3 4.4c-.5 0-1-.2-1.3-.6v-2.4c.4-.4.9-.7 1.4-.7 1 0 1.4.7 1.4 1.8s-.6 1.9-1.5 1.9zm8.3.4a3.08 3.08 0 0 1-1.3.3c-1 0-1.6-.6-1.6-1.8v-4.8h-1.7v-.7h2.5v5.6c-.1.5.3.9.7 1h.3c.3 0 .6-.1.9-.2zm3.9.3c.7 0 1.3-.2 1.9-.6l-.3-.5c-.4.3-1 .5-1.5.4-1 .1-1.8-.6-1.9-1.6v-.1h3.8v-.5c.1-1.1-.7-2.2-1.9-2.3h-.3c-1.4 0-2.5 1.2-2.5 2.6.1 1.5 1.3 2.6 2.7 2.6zm-.1-4.5c.8 0 1.4.5 1.4 1.5h-3.1c.2-.8.9-1.4 1.7-1.5zm3.6-2.2h.9v4.1c0 1.3.6 1.8 1.4 1.8s1.4-.5 1.4-1.8v-4.1h.8v4.1c0 1.9-.9 2.6-2.2 2.6s-2.2-.7-2.2-2.6zm9.7 5.3c0-.4-.2-.6-1.5-.9s-1.9-.7-1.9-1.4.7-1.4 2-1.4c.7 0 1.4.2 2 .6l-.4.5c-.5-.3-1-.5-1.6-.5-.8 0-1.1.3-1.1.7s.4.6 1.4.8c1.6.3 2 .8 2 1.5s-.8 1.4-2.2 1.4c-.9 0-1.7-.3-2.4-.8l.4-.6c.6.4 1.4.7 2.1.7.8.2 1.2-.2 1.2-.6zm2.2-1.2c-.1 1.4 1 2.5 2.4 2.6h.3c.7 0 1.3-.2 1.9-.6l-.3-.5c-.4.3-1 .5-1.5.4-1 .1-1.8-.6-1.9-1.6v-.1h3.8v-.5c.1-1.1-.7-2.2-1.9-2.3h-.3c-1.4.1-2.5 1.2-2.5 2.6zm2.5-1.9c.8 0 1.4.5 1.4 1.5h-3.1c.2-.8.9-1.4 1.7-1.5zm5-.5l.1 1.2c.5-.8 1.3-1.3 2.2-1.3.3 0 .7 0 1 .2l-.2.7c-.3-.1-.6-.2-.9-.2-.9 0-1.7.6-2 1.4v2.9h-.8v-4.9zm8.3 3.6c0-.4-.2-.6-1.5-.9s-1.9-.7-1.9-1.4.7-1.4 2-1.4c.7 0 1.4.2 2 .6l-.4.5c-.5-.3-1-.5-1.6-.5-.8 0-1.1.3-1.1.7s.4.6 1.4.8c1.6.3 2 .8 2 1.5s-.8 1.4-2.2 1.4c-.9 0-1.7-.3-2.4-.8l.4-.6c.6.4 1.4.7 2.1.7.8.2 1.2-.2 1.2-.6zm4.4-1.5c0 1.6.7 3.1 2 4.1l-.5.4a5.73 5.73 0 0 1 0-9.1l.5.4c-1.3 1-2.1 2.6-2 4.2zm8.2 2.8h-.7l-.1-.8c-.4.6-1.1 1-1.8 1-1.1 0-1.7-.7-1.7-2v-3h.8v2.9c0 .9.3 1.3 1.1 1.3.6 0 1.2-.4 1.5-.9v-3.4h.8zm6.2-4.1c-.3-.1-.6-.2-.9-.2-.9 0-1.7.6-2 1.4v2.9h-.8v-4.9h.7l.1 1.2c.5-.8 1.3-1.3 2.2-1.3.3 0 .7 0 1 .2zm6.2 3.9a3.08 3.08 0 0 1-1.3.3c-1 0-1.6-.6-1.6-1.8v-4.8h-1.7v-.7h2.5v5.6c-.1.5.3.9.7 1h.3c.3 0 .6-.1.9-.2zm2.8-4.1c0-.4.4-.8.8-.8s.8.4.8.8-.4.8-.8.8c-.5 0-.8-.3-.8-.8zm0 3.5c0-.4.4-.8.8-.8s.8.4.8.8-.4.8-.8.8c-.5.1-.8-.3-.8-.8 0 .1 0 .1 0 0zm6.9.9c-.9 0-1.7-.3-2.4-.8l.4-.6c.6.4 1.4.7 2.1.7.8 0 1.2-.3 1.2-.8s-.2-.6-1.5-.9-1.9-.7-1.9-1.4.7-1.4 2-1.4c.7 0 1.4.2 2 .6l-.4.5c-.5-.3-1-.5-1.6-.5-.8 0-1.1.3-1.1.7s.4.6 1.4.8c1.6.3 2 .8 2 1.5s-.8 1.6-2.2 1.6zm8.3-.3c-.5.2-1 .3-1.5.3-1.4 0-1.9-.8-1.9-2v-2.3h-1.4v-.6h1.4l.1-1.6h.7v1.6h2.4v.7h-2.4v2.3c0 .9.3 1.3 1.2 1.3.4 0 .8-.1 1.2-.2zm5-4.8c.3 0 .7 0 1 .2l-.2.7c-.3-.1-.6-.2-.9-.2-.9 0-1.7.6-2 1.4v2.9h-.8v-4.9h.7l.1 1.2a2.33 2.33 0 0 1 2.1-1.3zm5.1-2.2c.4 0 .6.3.6.7s-.3.6-.7.6a.65.65 0 0 1-.6-.6.68.68 0 0 1 .7-.7zm-2.6 2.3h3.1v4.9h-.8v-4.2h-2.3zm9.5 4.9v-2.9c0-.9-.3-1.3-1.1-1.3-.6 0-1 .3-1.5.9v3.4h-.8v-4.9h.7l.1.8c.4-.6 1.1-.9 1.8-.9 1.1 0 1.7.7 1.7 2v3zm5.4-.6h-1.1c-.6 0-1-.2-1-.6 0-.2.2-.5.4-.6.3.1.5.2.8.2a1.77 1.77 0 0 0 1.9-1.5v-.2c0-.4-.2-.7-.4-1h1.3v-.7h-2c-.2-.1-.5-.1-.7-.1-1-.1-1.8.7-1.9 1.6v.1c0 .5.2 1 .6 1.3-.3.2-.5.5-.6.9 0 .3.2.6.5.8-.4.2-.7.6-.8 1.1 0 .9.8 1.3 2.2 1.3 1.6 0 2.7-.8 2.7-1.7s-.7-.9-1.9-.9zm-.9-3.8c.6 0 1.2.5 1.2 1.1s-.5 1.2-1.1 1.2-1.2-.5-1.2-1.1c0-.7.5-1.2 1.1-1.2zm.1 6c-1 0-1.6-.3-1.6-.8 0-.3.2-.6.6-.8.2.1.5.1.7.1h.9c.7 0 1.1.1 1.1.6s-.6.9-1.7.9zm6.2-1.7h-.2c-.4 0-.7-.3-.8-.7v-.1c0-.4.3-.7.7-.8h.1c.6 0 .9.5.9 1.3 0 1.1-.7 2.1-1.8 2.4l-.2-.5c.7-.2 1.2-.8 1.3-1.6zm-214.8 14.8c0-.4-.2-.6-1.5-.9s-1.9-.7-1.9-1.4.7-1.4 2-1.4c.7 0 1.4.2 2 .6l-.4.5c-.5-.3-1-.5-1.6-.5-.8 0-1.1.3-1.1.7s.4.6 1.4.8c1.6.3 2 .8 2 1.5s-.8 1.4-2.2 1.4c-.9 0-1.7-.3-2.4-.8l.4-.6c.6.4 1.4.7 2.1.7.8.2 1.2-.2 1.2-.6zm4.7-3.7c-1.4 0-2.5 1.2-2.5 2.6s1.2 2.5 2.6 2.5c.7 0 1.3-.2 1.9-.6l-.3-.5c-.4.3-1 .5-1.5.4-1 .1-1.8-.6-1.9-1.6v-.1h3.8v-.5a2.13 2.13 0 0 0-1.9-2.3c0 .1-.1.1-.2.1zm0 .6c.8 0 1.4.5 1.4 1.5h-3.1c.2-.8.9-1.4 1.7-1.5zm3.7 3.1c0 .8.7 1.4 1.5 1.4h.1c.7-.1 1.4-.3 1.9-.8l.1.7h.7v-3c.1-1-.6-1.9-1.6-2h-.4c-.8 0-1.5.3-2.2.7l.3.6c.5-.3 1.1-.5 1.7-.6s1.2.4 1.3 1v.2c-2.4.2-3.4.7-3.4 1.8zm3.5-1.3v1.3c-.4.4-1 .7-1.6.7s-1.1-.2-1.1-.8.6-1 2.7-1.2zm6.8-1.5c-.3-.1-.6-.2-.9-.2-.9 0-1.7.6-2 1.4v2.9h-.8v-4.9h.7l.1 1.2c.5-.8 1.3-1.3 2.2-1.3.3 0 .7 0 1 .2zm6.3 3.4c-.5.5-1.2.7-1.9.8-1.3.1-2.5-.9-2.7-2.2v-.3c0-1.4 1.1-2.5 2.5-2.6h.2c.7 0 1.3.2 1.8.7l-.4.5c-.4-.3-.8-.5-1.3-.6-1-.1-1.8.7-1.9 1.7v.2c-.1 1 .7 1.8 1.7 1.9h.2c.6 0 1.1-.2 1.5-.6zm5.8.7h-.8v-2.9c0-.9-.3-1.3-1.1-1.3-.6 0-1 .3-1.5.9v3.4h-.8v-7.1h.8v3.1c.4-.6 1.1-1 1.8-1 1.1 0 1.7.7 1.7 2zm3.3-5.9h-2.2v-.7h5.2v.7h-2.2v5.9h-.8zm6.8 6c.7 0 1.3-.2 1.9-.6l-.3-.5c-.4.3-1 .5-1.5.4-1 .1-1.8-.6-1.9-1.6v-.1h3.8v-.5c.1-1.1-.7-2.2-1.9-2.3h-.3c-1.4 0-2.5 1.2-2.5 2.6 0 1.5 1.2 2.6 2.7 2.6zm-.2-4.4c.8 0 1.4.5 1.4 1.5h-3.1c.2-.9.9-1.5 1.7-1.5zm5.1 4.3h-.8v-4.9h.7l.1 1.2c.5-.8 1.3-1.3 2.2-1.3.3 0 .7 0 1 .2l-.2.7c-.3-.1-.6-.2-.9-.2-.9 0-1.7.6-2 1.4zm9.3-3.5v3.5h-.8v-3.4c0-.6-.2-.8-.5-.8s-.5.3-.8.8v3.5h-.8v-3.4c0-.6-.1-.8-.5-.8s-.6.3-.8.8v3.5h-.8v-4.9h.7l.1.6c.2-.5.6-.8 1.1-.8s.8.3.9.8c.3-.5.6-.8 1.1-.8s1.1.5 1.1 1.4zm2.7 2.8c0-.4.4-.8.8-.8s.8.4.8.8-.4.8-.8.8c-.5 0-.8-.4-.8-.8zm0-3.6c0-.4.4-.8.8-.8s.8.4.8.8-.4.8-.8.8c-.5 0-.8-.3-.8-.8zm4.6 3c0 .8.7 1.4 1.5 1.4h.1c.7-.1 1.4-.3 1.9-.8l.1.7h.7v-3c.1-1-.6-1.9-1.6-2h-.4c-.8 0-1.5.3-2.2.7l.3.6c.5-.3 1.1-.5 1.7-.6s1.2.4 1.3 1v.2c-2.4.2-3.4.7-3.4 1.8zm3.5-1.3v1.3c-.4.4-1 .7-1.6.7s-1.1-.2-1.1-.8.6-1 2.7-1.2zm6.1 2.5v-2.9c0-.9-.3-1.3-1.1-1.3-.6 0-1 .3-1.5.9v3.4h-.8v-4.9h.7l.1.8c.4-.6 1.1-.9 1.8-.9 1.1 0 1.7.7 1.7 2v3zm6.3-4.8h.8l-2.1 5.3c-.2 1-1.1 1.7-2.1 1.7-.2 0-.4 0-.6-.1l.2-.7c.1 0 .3.1.4.1.6 0 1.2-.4 1.3-1l.1-.4-2.3-4.9h.8l1.2 2.7c.2.4.4.9.6 1.4l.5-1.4zm4.4 2.1c0-1.6-.7-3.1-2-4.1l.5-.4a5.73 5.73 0 0 1 0 9.1l-.5-.4c1.3-1.1 2.1-2.6 2-4.2zm6.7 2c0 .4-.4.8-.8.8s-.8-.4-.8-.8.4-.8.8-.8c.4-.1.8.2.8.8v.1zm0-3.6c0 .4-.4.8-.8.8s-.8-.4-.8-.8.4-.8.8-.8c.4-.1.8.3.8.8v.1zm5.2 4.4c1.5 0 2.5-1.3 2.5-3.4s-1-3.4-2.5-3.4-2.5 1.3-2.5 3.4 1 3.5 2.5 3.5zm0-6.1c1 0 1.6 1 1.6 2.6s-.7 2.7-1.6 2.7-1.6-1-1.6-2.7.7-2.5 1.6-2.5zm4.6 5.4c.8.9 2.2.9 3.1.1.6-.5.8-1.3.6-2.1 0-1.5-.7-2.5-2-2.5-.6 0-1.2.3-1.6.7v-2.8h-.8v7.3h.7zm.1-3c.4-.4.9-.7 1.4-.7 1 0 1.4.7 1.4 1.8s-.6 1.9-1.5 1.9c-.5 0-1-.2-1.3-.6zm9.5 2.3c0 .8-.8 1.4-2.2 1.4-.9 0-1.7-.3-2.4-.8l.4-.6c.6.4 1.4.7 2.1.7.8 0 1.2-.3 1.2-.8s-.2-.6-1.5-.9-1.9-.7-1.9-1.4.7-1.4 2-1.4c.7 0 1.4.2 2 .6l-.4.5c-.5-.3-1-.5-1.6-.5-.8 0-1.1.3-1.1.7s.4.6 1.4.8c1.6.5 2 .9 2 1.6zm4 1.4c.7 0 1.3-.2 1.9-.6l-.3-.5c-.4.3-1 .5-1.5.4-1 .1-1.8-.6-1.9-1.6v-.1h3.8v-.5c.1-1.1-.7-2.2-1.9-2.3h-.3c-1.4 0-2.5 1.2-2.5 2.6.1 1.5 1.3 2.6 2.7 2.6zm-.1-4.4c.8 0 1.4.5 1.4 1.5h-3.1c.1-.8.9-1.4 1.7-1.4zm7.2-.7c.3 0 .7 0 1 .2l-.2.7c-.3-.1-.6-.2-.9-.2-.9 0-1.7.6-2 1.4v2.9h-.8v-4.9h.7l.1 1.2c.4-.7 1.3-1.2 2.1-1.3zm2.1.1h.9l1.1 2.8.5 1.4.5-1.4 1.1-2.8h.8l-2 4.9h-.9zm6.3 3.6c0 .8.7 1.4 1.5 1.4h.1c.7-.1 1.4-.3 1.9-.8l.1.7h.7v-3c.1-1-.6-1.9-1.6-2h-.4c-.8 0-1.5.3-2.2.7l.3.6c.5-.3 1.1-.5 1.7-.6s1.2.4 1.3 1v.2c-2.4.3-3.4.9-3.4 1.9zm3.6-1.2v1.3c-.4.4-1 .7-1.6.7s-1.1-.2-1.1-.8.7-.9 2.7-1.1zm5-2.5c-.6 0-1.2.3-1.6.7v-2.8h-.8v7.2h.7l.1-.6c.8.9 2.2.9 3.1.1.6-.5.8-1.3.6-2.1 0-1.4-.7-2.4-2.1-2.5zm-.3 4.4c-.5 0-1-.2-1.3-.6v-2.4c.4-.4.9-.7 1.4-.7 1 0 1.4.7 1.4 1.8s-.6 2-1.4 2zm8.3.4a3.08 3.08 0 0 1-1.3.3c-1 0-1.6-.6-1.6-1.8v-4.8h-1.7v-.7h2.6v5.6c-.1.5.3.9.7 1h.3c.3 0 .6-.1.9-.2zm3.8-4.8c-1.4 0-2.5 1.2-2.5 2.6s1.2 2.5 2.6 2.5c.7 0 1.3-.2 1.9-.6l-.3-.5c-.4.3-1 .5-1.5.4-1 .1-1.8-.6-1.9-1.6v-.1h3.8v-.5c.1-1.2-.8-2.1-2-2.2 0 .1 0 .1-.1 0zm0 .7c.8 0 1.4.5 1.4 1.5h-3.1c.1-.8.9-1.4 1.7-1.4zm4.7 1l3 2v.8l-3.7-2.5v-.6l3.7-2.5v.8zm7.4-2.4c0 .6.1 1.2.1 1.8.1.5-.3 1-.8 1.1h-.1c.5 0 .9.4.9 1v.1c0 .7-.1 1.2-.1 1.8s.2.9 1.2.9h.5v.5h-.6c-1.3 0-1.9-.3-1.9-1.3 0-.7.1-1.3.1-1.9 0-.4-.3-.8-1.4-.8v-.4c1.2 0 1.4-.4 1.4-.8 0-.6-.1-1.2-.1-1.9 0-1 .6-1.3 1.9-1.3h.6v.5h-.5c-1-.1-1.2.1-1.2.7zm11.6-.9v7.7h2.1v.5h-2.7v-8.6h2.8v.5h-2.2zm6.6 3.6l2.2 3h-.9l-1.8-2.4-1.1 1.1v1.4h-.8v-7.1h.8v4.8l2.6-2.6h.9zm5.7-2c-1.4 0-2.5 1.2-2.5 2.6s1.2 2.5 2.6 2.5c.7 0 1.3-.2 1.9-.6l-.3-.5c-.4.3-1 .5-1.5.4-1 .1-1.8-.6-1.9-1.6v-.1h3.8v-.5c.1-1.2-.8-2.1-1.9-2.2-.1.1-.1.1-.2 0zm0 .7c.8 0 1.4.5 1.4 1.5h-3.1c.1-.9.9-1.5 1.7-1.5zm5.5 4.3l-2.3-4.9h.8l1.2 2.7c.2.4.4.9.6 1.4l.5-1.4 1-2.7h.8l-2.1 5.3c-.2 1-1.1 1.7-2.1 1.7-.2 0-.4 0-.6-.1l.2-.7c.1 0 .3.1.4.1.6 0 1.2-.4 1.3-1zm7.1-4.3c0 .4-.4.8-.8.8s-.8-.4-.8-.8.4-.8.8-.8c.4-.1.8.3.9.7 0 0 0 .1-.1.1zm0 3.6c0 .4-.4.8-.8.8s-.8-.4-.8-.8.4-.8.8-.8c.4-.1.8.3.9.7 0 0 0 .1-.1.1zm6.6-.6c0-.4-.2-.6-1.5-.9s-1.9-.7-1.9-1.4.7-1.4 2-1.4c.7 0 1.4.2 2 .6l-.4.5c-.5-.3-1-.5-1.6-.5-.8 0-1.1.3-1.1.7s.4.6 1.4.8c1.6.3 2 .8 2 1.5s-.8 1.4-2.2 1.4c-.9 0-1.7-.3-2.4-.8l.4-.6c.6.4 1.4.7 2.1.7.9.3 1.3-.1 1.2-.6zm6.9.5l.2.6c-.5.2-1 .3-1.5.3-1.4 0-1.9-.8-1.9-2v-2.3h-1.4v-.6h1.4l.1-1.6h.7v1.6h2.5v.7h-2.4v2.3c0 .9.3 1.3 1.2 1.3.4 0 .8 0 1.1-.3zm2.1-4h.7l.1 1.2c.5-.8 1.3-1.3 2.2-1.3.3 0 .7 0 1 .2l-.2.7c-.3-.1-.6-.2-.9-.2-.9 0-1.7.6-2 1.4v2.9h-.8zm8-1c-.4 0-.6-.3-.6-.7s.3-.6.7-.6a.65.65 0 0 1 .6.6c0 .3-.2.7-.5.7zm-2.5 1h3.1v4.9h-.8v-4.2h-2.3zm10.4 1.9v3h-.8v-2.9c0-.9-.3-1.3-1.1-1.3-.6 0-1 .3-1.5.9v3.4h-.8v-4.9h.7l.1.8c.4-.6 1.1-.9 1.8-.9 1.1-.1 1.6.6 1.6 1.9zm4.6 2.4h-1.1c-.6 0-1-.2-1-.6 0-.2.2-.5.4-.6.3.1.5.2.8.2a1.77 1.77 0 0 0 1.9-1.5v-.2c0-.4-.2-.7-.4-1h1.3v-.7h-2c-.2-.1-.5-.1-.7-.1-1-.1-1.8.7-1.9 1.6v.1c0 .5.2 1 .6 1.3-.3.2-.5.5-.6.9 0 .3.2.6.5.8-.4.2-.7.6-.8 1.1 0 .9.8 1.3 2.2 1.3 1.6 0 2.7-.8 2.7-1.7s-.7-.9-1.9-.9zm-.9-3.8c.6 0 1.2.5 1.2 1.1s-.5 1.2-1.1 1.2-1.2-.5-1.2-1.1.4-1.2 1.1-1.2zm.1 6c-1 0-1.6-.3-1.6-.8 0-.3.2-.6.6-.8.2.1.5.1.7.1h.9c.7 0 1.1.1 1.1.6s-.6.9-1.7.9zm6.1-.6v-7.7h-2.1v-.5h2.8v8.6h-2.8v-.5h2.1zm6.7-1.7c0 .4-.4.8-.8.8s-.8-.4-.8-.8.4-.8.8-.8c.4-.1.8.3.8.8zm0-3.6c0 .4-.4.8-.8.8s-.8-.4-.8-.8.4-.8.8-.8.8.3.8.8zm6.6 3c0-.4-.2-.6-1.5-.9s-1.9-.7-1.9-1.4.7-1.4 2-1.4c.7 0 1.4.2 2 .6l-.4.5c-.5-.3-1-.5-1.6-.5-.8 0-1.1.3-1.1.7s.4.6 1.4.8c1.6.3 2 .8 2 1.5s-.8 1.4-2.2 1.4c-.9 0-1.7-.3-2.4-.8l.4-.6c.6.4 1.4.7 2.1.7.8.2 1.2-.2 1.2-.6zm6.9.5l.2.6c-.5.2-1 .3-1.5.3-1.4 0-1.9-.8-1.9-2v-2.3h-1.4v-.6h1.4l.1-1.6h.7v1.6h2.3v.7h-2.4v2.3c0 .9.3 1.3 1.2 1.3.5 0 .9-.1 1.3-.3zm5.1-4.2c.3 0 .7 0 1 .2l-.2.7c-.3-.1-.6-.2-.9-.2-.9 0-1.7.6-2 1.4v2.9h-.8v-4.9h.7l.1 1.2a2.33 2.33 0 0 1 2.1-1.3zm5.7-1.5c0 .4-.3.7-.6.7-.4 0-.7-.3-.7-.6 0-.4.3-.7.6-.7.4-.1.7.2.7.6 0-.1 0 0 0 0zm-1 6.5v-4.2h-2.3v-.7h3.1v4.9zm7.3 0v-2.9c0-.9-.3-1.3-1.1-1.3-.6 0-1 .3-1.5.9v3.4h-.8v-4.9h.7l.1.8c.4-.6 1.1-.9 1.8-.9 1.1 0 1.7.7 1.7 2v3zm5.4-.6h-1.1c-.6 0-1-.2-1-.6 0-.2.2-.5.4-.6.3.1.5.2.8.2a1.77 1.77 0 0 0 1.9-1.5v-.2c0-.4-.2-.7-.4-1h1.3v-.7h-2c-.2-.1-.5-.1-.7-.1-1-.1-1.8.7-1.9 1.6v.1c0 .5.2 1 .6 1.3-.3.2-.5.5-.6.9 0 .3.2.6.5.8-.4.2-.7.6-.8 1.1 0 .9.8 1.3 2.2 1.3 1.6 0 2.7-.8 2.7-1.7s-.7-.9-1.9-.9zm-.9-3.8c.6 0 1.2.5 1.2 1.1s-.5 1.2-1.1 1.2-1.2-.5-1.2-1.1c0-.7.5-1.2 1.1-1.2zm.1 6c-1 0-1.6-.3-1.6-.8 0-.3.2-.6.6-.8.2.1.5.1.7.1h.9c.7 0 1.1.1 1.1.6s-.6.9-1.7.9zm5.6-9.1h.7v10h-.7zm5.2 7.5h-.8v-4.9h.7l.1.8c.4-.6 1.1-.9 1.8-.9 1.1 0 1.7.7 1.7 2v3h-.8v-2.9c0-.9-.3-1.3-1.1-1.3-.6 0-1 .3-1.5.9zm5.8-4.9v2.9c0 .9.3 1.3 1.1 1.3.6 0 1.2-.4 1.5-.9v-3.4h.8v4.9h-.7l-.1-.8c-.4.6-1.1 1-1.8 1-1.1 0-1.7-.7-1.7-2v-3zm6.9-1.6h-1.7v-.7h2.5v5.6c-.1.5.3.9.7 1h.3c.3 0 .6-.1.9-.2l.2.6a3.08 3.08 0 0 1-1.3.3c-1 0-1.6-.6-1.6-1.8zm8.9 6.3a3.08 3.08 0 0 1-1.3.3c-1 0-1.6-.6-1.6-1.8v-4.8h-1.7v-.7h2.5v5.6c-.1.5.3.9.7 1h.3c.3 0 .6-.1.9-.2zm10-1.6c0 .7.1 1.2.1 1.9 0 1-.6 1.3-1.8 1.3h-.6v-.5h.5c1 0 1.3-.3 1.3-.9s-.1-1.1-.1-1.8c-.1-.5.3-1 .8-1.1h.1c-.5 0-.9-.4-.9-.9v-.1c0-.6.1-1.2.1-1.8s-.2-.9-1.3-.9h-.5v-.5h.6c1.3 0 1.8.3 1.8 1.3 0 .7-.1 1.3-.1 1.9 0 .4.3.8 1.4.8v.5c-1.2.1-1.5.5-1.4.8zm5.5-4.8v7.7h2.1v.5h-2.8v-8.6h2.8v.5h-2.1zm6.2 7.6v-7.7h-2.1v-.5h2.8v8.6h-2.8v-.5h2.1zm7-4.3l-3-2v-.8l3.7 2.5v.6l-3.7 2.5v-.8zm9.1.7v-.5c1.2 0 1.4-.4 1.4-.8 0-.6-.1-1.2-.1-1.9 0-1 .6-1.3 1.9-1.3h.6v.5h-.5c-1 0-1.2.3-1.2.9s.1 1.2.1 1.8c.1.5-.3 1-.8 1.1h-.1c.5 0 .9.4.9 1v.1c0 .7-.1 1.2-.1 1.8s.2.9 1.2.9h.5v.5h-.6c-1.3 0-1.9-.3-1.9-1.3 0-.7.1-1.3.1-1.9 0-.4-.3-.8-1.4-.9zm-350.8 13.6c.3 0 .7 0 1 .2l-.2.7c-.3-.1-.6-.2-.9-.2-.9 0-1.7.6-2 1.4v2.9h-.8v-4.9h.7l.1 1.2a2.33 2.33 0 0 1 2.1-1.3zm4.7 0c-1.4 0-2.5 1.2-2.5 2.6s1.2 2.5 2.6 2.5c.7 0 1.3-.2 1.9-.6l-.3-.5c-.4.3-1 .5-1.5.4-1 .1-1.8-.6-1.9-1.6v-.1h3.8v-.5c.1-1.1-.7-2.2-1.9-2.3 0 .1-.1.1-.2.1zm0 .6c.8 0 1.4.5 1.4 1.5h-3.1c.2-.8.9-1.4 1.7-1.5zm8.1 3.6l.2.6c-.5.2-1 .3-1.5.3-1.4 0-1.9-.8-1.9-2v-2.3h-1.4v-.6h1.4l.1-1.6h.7v1.6h2.4v.7h-2.4v2.3c0 .9.3 1.3 1.2 1.3.5 0 .9-.1 1.2-.3zm2.3-4.1v2.9c0 .9.3 1.3 1.1 1.3.6 0 1.2-.4 1.5-.9v-3.4h.8v4.9h-.7l-.1-.8c-.4.6-1.1 1-1.8 1-1.1 0-1.7-.7-1.7-2v-3zm6.7 2v2.9h-.8v-4.9h.7l.1 1.2c.5-.8 1.3-1.3 2.2-1.3.3 0 .7 0 1 .2l-.2.7c-.3-.1-.6-.2-.9-.2-.9.1-1.7.6-2.1 1.4zm8.1 2.9v-2.9c0-.9-.3-1.3-1.1-1.3-.6 0-1 .3-1.5.9v3.4h-.8v-4.9h.7l.1.8c.4-.6 1.1-.9 1.8-.9 1.1 0 1.7.7 1.7 2v3zm12.9-.8l.2.6c-.5.2-1 .3-1.5.3-1.4 0-1.9-.8-1.9-2v-2.3h-1.4v-.6h1.4l.1-1.6h.7v1.6h2.4v.7h-2.4v2.3c0 .9.3 1.3 1.2 1.3.5-.1.9-.1 1.2-.3zm1.7-6.4h.8v3.1c.4-.6 1.1-1 1.8-1 1.1 0 1.7.7 1.7 2v3h-.8v-2.9c0-.9-.3-1.3-1.1-1.3-.6 0-1 .3-1.5.9v3.5h-.8zm8.5 1.3c-.4 0-.6-.3-.6-.7s.3-.6.7-.6a.65.65 0 0 1 .6.6c0 .3-.2.6-.5.7zm-2.6 1h3.1v4.9h-.8v-4.2h-2.3zm8.2 5c-.9 0-1.7-.3-2.4-.8l.4-.6c.6.4 1.4.7 2.1.7.8 0 1.2-.3 1.2-.8s-.2-.6-1.5-.9-1.9-.7-1.9-1.4.7-1.4 2-1.4c.7 0 1.4.2 2 .6l-.4.5c-.5-.3-1-.5-1.6-.5-.8 0-1.1.3-1.1.7s.4.6 1.4.8c1.6.3 2 .8 2 1.5s-.7 1.6-2.2 1.6zm5.9-1.7c.5 0 .9.3.9.8s-.3.9-.8.9-.9-.3-.9-.8.4-.9.8-.9h0zm4-5.6h.8v3.1c.4-.6 1.1-1 1.8-1 1.1 0 1.7.7 1.7 2v3h-.8v-2.9c0-.9-.3-1.3-1.1-1.3-.6 0-1 .3-1.5.9v3.5h-.8zm10.3 6.4l.2.6c-.5.2-1 .3-1.5.3-1.4 0-1.9-.8-1.9-2v-2.3h-1.4v-.6h1.4l.1-1.6h.7v1.6h2.4v.7h-2.4v2.3c0 .9.3 1.3 1.2 1.3.5-.1.9-.1 1.2-.3zm2.8-3.4h-1.4v-.6h1.4l.1-1.6h.7v1.6h2.4v.7h-2.4v2.3c0 .9.3 1.3 1.2 1.3.4 0 .8-.1 1.2-.2l.2.6c-.5.2-1 .3-1.5.3-1.4 0-1.9-.8-1.9-2zm7.1 4.3c1.3-.1 2.3-1.2 2.2-2.5v-.1c0-1.5-.7-2.5-2-2.5-.6 0-1.2.3-1.7.7l-.1-.6h-.7v6.9h.8v-2.5c.5.3 1 .6 1.5.6zm-1.4-3.7c.4-.4.9-.7 1.4-.7 1 0 1.4.7 1.4 1.8s-.6 1.9-1.5 1.9c-.5 0-.9-.2-1.3-.6zm-76.8 19.7c-.5 0-.9-.3-.9-.8s.3-.9.8-.9.9.3.9.8c.1.4-.3.8-.7.9zm6.9-.7h-1.1c-.6 0-1-.2-1-.6 0-.2.2-.5.4-.6.3.1.5.2.8.2a1.77 1.77 0 0 0 1.9-1.5v-.2c0-.4-.2-.7-.4-1h1.3v-.7h-2c-.2-.1-.5-.1-.7-.1-1-.1-1.8.7-1.9 1.6v.1c0 .5.2 1 .6 1.3-.3.2-.5.5-.6.9 0 .3.2.6.5.8-.4.2-.7.6-.8 1.1 0 .9.8 1.3 2.2 1.3 1.6 0 2.7-.8 2.7-1.7s-.7-.9-1.9-.9zm-.9-3.8c.6 0 1.2.5 1.2 1.1s-.5 1.2-1.1 1.2-1.2-.5-1.2-1.1c-.1-.7.4-1.2 1.1-1.2zm.1 6c-1 0-1.6-.3-1.6-.8 0-.3.2-.6.6-.8.2.1.5.1.7.1h.9c.7 0 1.1.1 1.1.6s-.6.9-1.7.9zm8.3-4.4c.1-1.1-.7-2.2-1.9-2.3h-.3c-1.4 0-2.5 1.2-2.5 2.6s1.2 2.5 2.6 2.5c.7 0 1.3-.2 1.9-.6l-.3-.5c-.4.3-1 .5-1.5.4-1 .1-1.8-.6-1.9-1.6v-.1h3.8c.1 0 .1-.2.1-.4zm-2.2-1.6c.8 0 1.4.5 1.4 1.5h-3.1c.2-.8.9-1.4 1.7-1.5zm8.1 3.6l.2.6c-.5.2-1 .3-1.5.3-1.4 0-1.9-.8-1.9-2v-2.3h-1.4v-.6h1.4l.1-1.6h.7v1.6h2.4v.7h-2.4v2.3c0 .9.3 1.3 1.2 1.3.5-.1.9-.1 1.2-.3zm3.6-2c0 1.6.7 3.1 2 4.1l-.5.4a5.73 5.73 0 0 1 0-9.1l.5.4c-1.3 1-2.1 2.6-2 4.2zm4.7-2.1v2.9c0 .9.3 1.3 1.1 1.3.6 0 1.2-.4 1.5-.9v-3.4h.8v4.9h-.7l-.1-.8c-.4.6-1.1 1-1.8 1-1.1 0-1.7-.7-1.7-2v-3zm9.8.1l-.2.7c-.3-.1-.6-.2-.9-.2-.9 0-1.7.6-2 1.4v2.9h-.8v-4.9h.7l.1 1.2c.5-.8 1.3-1.3 2.2-1.3.3 0 .6.1.9.2zm1.4-2.4h2.5v5.6c-.1.5.3.9.7 1h.3c.3 0 .6-.1.9-.2l.2.6a3.08 3.08 0 0 1-1.3.3c-1 0-1.6-.6-1.6-1.8v-4.8h-1.7zm8.5 7h-.2c-.4 0-.7-.3-.8-.7v-.1c0-.4.3-.7.7-.8h.1c.6 0 .9.5.9 1.3 0 1.1-.7 2.1-1.8 2.4l-.2-.5a1.83 1.83 0 0 0 1.3-1.5zm-36 10.4c0 .6.1 1.2.1 1.8.1.5-.3 1-.8 1.1h-.1c.5 0 .9.4.9 1v.1c0 .7-.1 1.2-.1 1.8s.2.9 1.2.9h.5v.5h-.6c-1.3 0-1.9-.3-1.9-1.3 0-.7.1-1.3.1-1.9 0-.4-.3-.8-1.4-.8v-.3c1.2 0 1.4-.4 1.4-.8 0-.6-.1-1.2-.1-1.9 0-1 .6-1.3 1.9-1.3h.6v.5h-.5c-1 0-1.2.2-1.2.9zm11.9 21.8c1.3-.1 2.3-1.2 2.2-2.5v-.1c0-1.5-.7-2.5-2-2.5-.6 0-1.2.3-1.7.7l-.1-.6h-.7v6.9h.8v-2.5c.4.4.9.7 1.5.7zm-1.4-3.7c.4-.4.9-.7 1.4-.7 1 0 1.4.7 1.4 1.8s-.6 1.9-1.5 1.9c-.5 0-.9-.2-1.3-.6zm7.4-1.4c-.8 0-1.5.3-2.2.7l.3.6c.5-.3 1.1-.5 1.7-.6s1.2.4 1.3 1v.2c-2.5.2-3.5.7-3.5 1.8 0 .8.7 1.4 1.5 1.4h.1c.7-.1 1.4-.3 1.9-.8l.1.7h.7v-3c.1-1-.7-1.8-1.7-1.9 0 0-.1 0-.2-.1zm1.1 3.7c-.4.4-1 .7-1.6.7s-1.1-.2-1.1-.8.6-1 2.7-1.2zm6.1-3.7c.3 0 .7 0 1 .2l-.2.7c-.3-.1-.6-.2-.9-.2-.9 0-1.7.6-2 1.4v2.9h-.8v-4.9h.7l.1 1.2c.4-.7 1.3-1.2 2.1-1.3zm2.4 3.7c0 .8.7 1.4 1.5 1.4h.1c.7-.1 1.4-.3 1.9-.8l.1.7h.7v-3c.1-1-.6-1.9-1.6-2h-.4c-.8 0-1.5.3-2.2.7l.3.6c.5-.3 1.1-.5 1.7-.6s1.2.4 1.3 1v.2c-2.4.3-3.4.9-3.4 1.9zm3.5-1.2v1.3c-.4.4-1 .7-1.6.7s-1.1-.2-1.1-.8.7-.9 2.8-1.1zm7.3-1v3.6h-.8v-3.4c0-.6-.2-.8-.5-.8s-.5.3-.8.8v3.5h-.8v-3.4c0-.6-.1-.8-.5-.8s-.6.3-.8.8v3.5h-.8v-4.9h.7l.1.6c.2-.5.6-.8 1.1-.8s.8.3.9.8c.3-.5.6-.8 1.1-.8s1.2.5 1.2 1.5zm4.8 2.2c0-.4-.2-.6-1.5-.9s-1.9-.7-1.9-1.4.7-1.4 2-1.4c.7 0 1.4.2 2 .6l-.4.5c-.5-.3-1-.5-1.6-.5-.8 0-1.1.3-1.1.7s.4.6 1.4.8c1.6.3 2 .8 2 1.5s-.8 1.4-2.2 1.4c-.9 0-1.7-.3-2.4-.8l.4-.6c.6.4 1.4.7 2.1.7.9.2 1.3-.2 1.3-.6zm3.8.5c0-.4.4-.8.8-.8s.8.4.8.8-.4.8-.8.8a.68.68 0 0 1-.7-.7zm.8-4.4c.5 0 .9.3.9.8s-.3.9-.8.9-.9-.3-.9-.8c.1-.4.4-.7.9-.7zm13.4 5.1v-2.9c0-.9-.3-1.3-1.1-1.3-.6 0-1 .3-1.5.9v3.5h-.8v-4.9h.7l.1.8c.4-.6 1.1-.9 1.8-.9 1.1 0 1.7.7 1.7 2v3zm4.9.2c.7 0 1.3-.2 1.9-.6l-.3-.5c-.4.3-1 .5-1.5.4-1 .1-1.8-.6-1.9-1.6v-.1h3.8v-.5c.1-1.1-.7-2.2-1.9-2.3h-.3c-1.4 0-2.5 1.2-2.5 2.6.1 1.5 1.2 2.6 2.7 2.6zm-.1-4.5c.8 0 1.4.5 1.4 1.5h-3.1c.2-.8.9-1.4 1.7-1.3zm8-.5h.8l-1 4.9h-1.1l-.6-2.3c-.1-.3-.2-.8-.2-1.4l-.2 1.4-.5 2.3h-1.1l-1.1-4.9h.8l.6 2.8c.1.5.2.9.2 1.3l.3-1.3.6-2.5h.8l.6 2.5.3 1.3.2-1.3zm12 4.8h-.9v-3.1h-2.7v3.2h-.9v-6.6h.9v2.7h2.7v-2.7h.9zm6.3-.1c-.5.2-1 .3-1.5.3-1.4 0-1.9-.8-1.9-2v-2.3h-1.4v-.6h1.4l.1-1.6h.7v1.6h2.4v.7h-2.4v2.3c0 .9.3 1.3 1.2 1.3.4 0 .8-.1 1.2-.2zm2.6-1.8v-2.3h-1.4v-.6h1.4l.1-1.6h.7v1.6h2.4v.7h-2.4v2.3c0 .9.3 1.3 1.2 1.3.4 0 .8-.1 1.2-.2l.2.6c-.5.2-1 .3-1.5.3-1.4.1-1.9-.7-1.9-1.9zm9.3-.6c0-1.5-.7-2.5-2-2.5-.6 0-1.2.3-1.7.7l-.1-.6h-.7v6.9h.8v-2.5c.8.9 2.2.9 3.1 0 .6-.5.8-1.2.6-2zm-2.3 1.9c-.5 0-.9-.2-1.3-.6v-2.4c.4-.4.9-.7 1.4-.7 1 0 1.4.7 1.4 1.8s-.6 2.1-1.5 2.1zm5.9-6h-2v6.7h.8v-2.6h1.1c1.4 0 2.4-.6 2.4-2s-.9-2-2.4-2zm-.1 3.3h-1v-2.6h1c1.1 0 1.7.3 1.7 1.3s-.5 1.5-1.6 1.5zm3.9 2c0 .8.7 1.4 1.5 1.4h.1c.7-.1 1.4-.3 1.9-.8l.1.7h.7v-3c.1-1-.6-1.9-1.6-2h-.4c-.8 0-1.5.3-2.2.7l.3.6c.5-.3 1.1-.5 1.7-.6s1.2.4 1.3 1v.2c-2.4.4-3.4 1-3.4 2zm3.5-1.2v1.3c-.4.4-1 .7-1.6.7s-1.1-.2-1.1-.8.7-.8 2.8-1zm6.1-2.5c.3 0 .7 0 1 .2l-.2.7c-.3-.1-.6-.2-.9-.2-.9 0-1.7.6-2 1.4v3h-.8v-4.9h.7l.1 1.2c.5-.8 1.3-1.3 2.2-1.3zm4.8 0c-.8 0-1.5.3-2.2.7l.3.6c.5-.3 1.1-.5 1.7-.6s1.2.4 1.3 1v.2c-2.5.2-3.5.7-3.5 1.8 0 .8.7 1.4 1.5 1.4h.1c.7-.1 1.4-.3 1.9-.8l.1.7h.7v-3a1.79 1.79 0 0 0-1.8-1.8h-.1zm1.1 3.7c-.4.4-1 .7-1.6.7s-1.1-.2-1.1-.8.6-1 2.7-1.2zm7.3-2.2v3.7h-.8v-3.4c0-.6-.2-.8-.5-.8s-.5.3-.8.8v3.5h-.8v-3.4c0-.6-.1-.8-.5-.8s-.6.3-.8.8v3.5h-.8v-4.9h.7l.1.6c.2-.5.6-.8 1.1-.8s.8.3.9.8c.3-.5.6-.8 1.1-.8s1.2.5 1.2 1.5zm4.8 2.2c0-.4-.2-.6-1.5-.9s-1.9-.7-1.9-1.4.7-1.4 2-1.4c.7 0 1.4.2 2 .6l-.4.5c-.5-.3-1-.5-1.6-.5-.8 0-1.1.3-1.1.7s.4.6 1.4.8c1.6.3 2 .8 2 1.5s-.8 1.4-2.2 1.4c-.9 0-1.7-.3-2.4-.8l.4-.6c.6.4 1.4.7 2.1.7.8.2 1.2-.1 1.2-.5zm4.4-1.5c0 1.6.7 3.1 2 4.1l-.5.4a5.73 5.73 0 0 1 0-9.1l.5.4c-1.3 1-2.1 2.7-1.9 4.3zm6.5-2.9c0 .6.1 1.2.1 1.8.1.5-.3 1-.8 1.1h-.1c.5 0 .9.4.9 1v.1c0 .7-.1 1.2-.1 1.8s.2.9 1.2.9h.5v.5h-.6c-1.3 0-1.9-.3-1.9-1.3 0-.7.1-1.3.1-1.9 0-.4-.3-.8-1.4-.8v-.2c1.2 0 1.4-.4 1.4-.8 0-.6-.1-1.2-.1-1.9 0-1 .6-1.3 1.9-1.3h.6v.5h-.5c-1 0-1.2.2-1.2.9zm11.9.7c-1.4 0-2.5 1.2-2.5 2.6s1.2 2.5 2.6 2.5c.7 0 1.3-.2 1.9-.6l-.3-.5c-.4.3-1 .5-1.5.4-1 .1-1.8-.6-1.9-1.6v-.1h3.8v-.5c0-1.2-.9-2.1-2.1-2.1h-.1zm0 .7c.8 0 1.4.5 1.4 1.5h-3.1c.2-.8.9-1.3 1.7-1.3zm7.2 4.3v-2.9c0-.9-.3-1.3-1.1-1.3-.6 0-1 .3-1.5.9v3.6h-.8v-4.9h.7l.1.8c.4-.6 1.1-.9 1.8-.9 1.1 0 1.7.7 1.7 2v3zm2.4-2.4c0-1.4 1.1-2.5 2.5-2.6h.2c.7 0 1.3.2 1.8.7l-.4.5c-.4-.3-.8-.5-1.3-.6-1-.1-1.8.7-1.9 1.7v.2c-.1 1 .7 1.8 1.7 1.9h.2c.6 0 1.1-.2 1.5-.6l.4.5c-.5.5-1.2.7-1.9.8-1.4.1-2.5-1-2.6-2.3zm8.2-2.6c-1.4-.1-2.6 1-2.7 2.4s1 2.6 2.4 2.7 2.6-1 2.7-2.4v-.1c0-1.3-1-2.4-2.3-2.4zm0 4.4c-.9 0-1.6-.7-1.6-1.8s.6-1.9 1.6-1.9 1.6.8 1.6 1.9-.5 2.1-1.5 2.1zm5.7.7c.6 0 1.2-.3 1.6-.8l.1.6h.7v-7.1h-.7v2.8c-.4-.4-.9-.6-1.5-.6-1.3.1-2.3 1.2-2.2 2.5v.1c0 1.8.8 2.8 2.1 2.8zm.3-4.4c.5 0 .9.2 1.3.6v2.4a1.75 1.75 0 0 1-1.4.7c-.9 0-1.4-.7-1.4-1.8a1.58 1.58 0 0 1 1.6-1.6zm6.2-.7c-1.4 0-2.5 1.2-2.5 2.6s1.2 2.5 2.6 2.5c.7 0 1.3-.2 1.9-.6l-.3-.5c-.4.3-1 .5-1.5.4-1 .1-1.8-.6-1.9-1.6v-.1h3.8v-.5c0-1.2-.9-2.1-2.1-2.1zm0 .7c.8 0 1.4.5 1.4 1.5h-3.1c.2-.8.9-1.3 1.7-1.3zm7.1.1c-.9 0-1.7.6-2 1.4v3h-.8v-4.9h.7l.1 1.2c.5-.8 1.3-1.3 2.2-1.3.3 0 .7 0 1 .2l-.2.7c-.3-.1-.6-.1-.8-.1zm3.9-.1c0-.4.4-.8.8-.8s.8.4.8.8-.4.8-.8.8-.6-.3-.7-.6zm0 3.6c0-.4.4-.8.8-.8s.8.4.8.8-.4.8-.8.8-.6-.3-.7-.6zm15 .7h-.8v-2.9c0-.9-.3-1.3-1.1-1.3-.6 0-1 .3-1.5.9v3.6h-.8v-4.9h.7l.1.8c.4-.6 1.1-.9 1.8-.9 1.1 0 1.7.7 1.7 2zm4 .1c.7 0 1.3-.2 1.9-.6l-.3-.5c-.4.3-1 .5-1.5.4-1 .1-1.8-.6-1.9-1.6v-.1h3.8v-.5c.1-1.1-.7-2.2-1.9-2.3h-.3c-1.4 0-2.5 1.2-2.5 2.6.1 1.5 1.3 2.6 2.7 2.6zm-.1-4.4c.8 0 1.4.5 1.4 1.5h-3.1c.2-.8.9-1.4 1.8-1.3zm8-.6h.8l-1 4.9h-1.1l-.6-2.3c-.1-.3-.2-.8-.2-1.4l-.2 1.4-.5 2.3h-1.1l-1.1-4.9h.8l.6 2.8c.1.5.2.9.2 1.3l.3-1.3.6-2.5h.8l.6 2.5.3 1.3.2-1.3zm8.5-1.7v4.1c0 1.3.6 1.8 1.4 1.8s1.4-.5 1.4-1.8v-4.1h.8v4.1c0 1.9-.9 2.6-2.2 2.6s-2.2-.7-2.2-2.6v-4.1zm9.7 1.9c0-1.4-1-1.8-2.3-1.8h-2.1v6.8h.9v-2.8h1.2l1.6 2.8h1l-1.7-2.9c.9-.1 1.6-.9 1.5-1.8zm-3.5-1.2h1.1c1 0 1.6.3 1.6 1.2s-.6 1.3-1.6 1.3h-1.1zm9.6 5.9h-4.1v-6.6h.8v5.8h3.2v.8zm2.4-2.6h1.1c1.4 0 2.4-.6 2.4-2s-1-1.9-2.4-1.9h-2v6.7h.8zm0-3.3h1c1.1 0 1.7.3 1.7 1.3s-.6 1.3-1.7 1.3h-1zm7.3.9c-.8 0-1.5.3-2.2.7l.3.6c.5-.3 1.1-.5 1.7-.6s1.2.4 1.3 1v.2c-2.5.2-3.5.7-3.5 1.8 0 .8.7 1.4 1.5 1.4h.1c.7-.1 1.4-.3 1.9-.8l.1.7h.7v-3a1.79 1.79 0 0 0-1.8-1.8zm1.2 3.7c-.4.4-1 .7-1.6.7s-1.1-.2-1.1-.8.6-1 2.7-1.2zm6.1-3.7c.3 0 .7 0 1 .2l-.2.7c-.3-.1-.6-.2-.9-.2-.9 0-1.7.6-2 1.4v3h-.8v-4.9h.7l.1 1.2c.5-.8 1.3-1.3 2.3-1.3zm2.4 3.7c0 .8.7 1.4 1.5 1.4h.1c.7-.1 1.4-.3 1.9-.8l.1.7h.7v-3c.1-1-.6-1.9-1.6-2h-.4c-.8 0-1.5.3-2.2.7l.3.6c.5-.3 1.1-.5 1.7-.6s1.2.4 1.3 1v.2c-2.3.4-3.4 1-3.4 2.1zm3.5-1.2v1.3c-.4.4-1 .7-1.6.7s-1.1-.2-1.1-.8.8-.8 2.8-1zm7.2-1v3.7h-.8v-3.4c0-.6-.2-.8-.5-.8s-.5.3-.8.8v3.5h-.8v-3.4c0-.6-.1-.8-.5-.8s-.6.3-.8.8v3.5h-.8v-4.9h.7l.1.6c.2-.5.6-.8 1.1-.8s.8.3.9.8c.3-.5.6-.8 1.1-.8s1.2.5 1.2 1.5zm4.9 2.2c0-.4-.2-.6-1.5-.9s-1.9-.7-1.9-1.4.7-1.4 2-1.4c.7 0 1.4.2 2 .6l-.4.5c-.5-.3-1-.5-1.6-.5-.8 0-1.1.3-1.1.7s.4.6 1.4.8c1.6.3 2 .8 2 1.5s-.8 1.4-2.2 1.4c-.9 0-1.7-.3-2.4-.8l.4-.6c.6.4 1.4.7 2.1.7.9.3 1.3-.1 1.3-.5zm3.5.5h3.4v.7h-4.2v-6.6h4.1v.7h-3.2v2h2.7v.7h-2.7zm5.8.7h-.8v-4.9h.7l.1.8c.4-.6 1.1-.9 1.8-.9 1.1 0 1.7.7 1.7 2v3h-.8v-2.9c0-.9-.3-1.3-1.1-1.3-.6 0-1 .3-1.5.9zm7.8-5c.7 0 1.3.2 1.8.7l-.4.5c-.4-.3-.8-.5-1.3-.6-1-.1-1.8.7-1.9 1.7v.2c-.1 1 .7 1.8 1.7 1.9h.2c.6 0 1.1-.2 1.5-.6l.4.5c-.5.5-1.2.7-1.9.8-1.3.1-2.5-.9-2.7-2.2v-.3c.1-1.4 1.3-2.4 2.7-2.3h.1zm5.5 5.1c1.4.1 2.6-1 2.7-2.4s-1-2.6-2.4-2.7-2.6 1-2.7 2.4v.2c-.2 1.3.6 2.5 1.9 2.8.2 0 .4.1.6 0zm0-4.4c.9 0 1.6.8 1.6 1.9s-.6 1.8-1.6 1.8-1.6-.7-1.6-1.8.7-1.6 1.7-1.6zm5.7 4.4c.6 0 1.2-.3 1.6-.8l.1.6h.7v-7.1h-.7v2.8c-.4-.4-.9-.6-1.5-.6-1.3.1-2.3 1.2-2.2 2.5v.1c0 1.9.8 2.8 2.1 2.8zm.2-4.4c.5 0 .9.2 1.3.6v2.4a1.75 1.75 0 0 1-1.4.7c-.9 0-1.4-.7-1.4-1.8 0-.9.8-1.6 1.6-1.6zm6.2-.7c-1.4 0-2.5 1.2-2.5 2.6s1.2 2.5 2.6 2.5c.7 0 1.3-.2 1.9-.6l-.3-.5c-.4.3-1 .5-1.5.4-1 .1-1.8-.6-1.9-1.6v-.1h3.8v-.5c0-1.1-.9-2-2.1-2zm0 .7c.8 0 1.4.5 1.4 1.5h-3.1c.2-.8 1-1.3 1.8-1.2zm7.1.1c-.9 0-1.7.6-2 1.4v3.1h-.8v-4.9h.7l.1 1.2c.5-.8 1.3-1.3 2.2-1.3.3 0 .7 0 1 .2l-.2.7c-.3-.1-.5-.1-.8-.1zm3.8 1.4c0-1.8.8-3.5 2.2-4.5l.5.4c-2.3 1.8-2.6 5.2-.8 7.5.2.3.5.5.8.8l-.5.4c-1.3-1-2.1-2.6-2.1-4.2zm7.1 0c0-1.6-.7-3.1-2-4.1l.5-.4a5.73 5.73 0 0 1 0 9.1l-.5-.4c1.3-.9 2-2.3 2.1-3.8zm6 2.7h-.2c-.4 0-.7-.3-.8-.7v-.1c0-.4.3-.7.7-.8h.1c.6 0 .9.5.9 1.3 0 1.1-.7 2.1-1.8 2.4l-.2-.5a1.7 1.7 0 0 0 1.4-1.4zm-334.8 8.9c.5 0 1 .1 1.4.3l-.2.6c-.4-.2-.7-.2-1.1-.2-.9 0-1.2.5-1.2 1.3v.4h2v.7h-2v4.5h-.8v-4.2h-1.4v-.6h1.4v-.4c-.1-1 .5-1.9 1.5-2h.6zm6 2.2c.3 0 .7 0 1 .2l-.2.7c-.3-.1-.6-.2-.9-.2-.9 0-1.7.6-2 1.4v3.1h-.8v-4.9h.7l.1 1.2c.5-.8 1.4-1.3 2.3-1.3zm4.6 5.1c1.4.1 2.6-1 2.7-2.4s-1-2.6-2.4-2.7-2.6 1-2.7 2.4v.2c-.3 1.3.6 2.5 1.9 2.8.2 0 .5.1.7 0zm0-4.4c.9 0 1.6.8 1.6 1.9s-.6 1.8-1.6 1.8-1.6-.7-1.6-1.8.8-1.6 1.7-1.6zm8.6.8v3.8h-.8v-3.4c0-.6-.2-.8-.5-.8s-.5.3-.8.8v3.5h-.8v-3.4c0-.6-.1-.8-.5-.8s-.6.3-.8.8v3.5h-.8v-4.9h.7l.1.6c.2-.5.6-.8 1.1-.8s.8.3.9.8c.3-.5.6-.8 1.1-.8s1.3.5 1.3 1.5zm3.4-3.2c-1.5 0-2.5 1.3-2.5 3.4s1 3.4 2.5 3.4 2.5-1.3 2.5-3.4-.8-3.1-2.3-3.1zm0 6.1c-1 0-1.6-1-1.6-2.7s.7-2.6 1.6-2.6 1.6 1 1.6 2.6-.5 3-1.5 3zm6.4-4.4c-.6 0-1.2.3-1.6.7v-2.8h-.8v7.4h.7l.1-.6c.8.9 2.2.9 3.1.1.6-.5.8-1.3.6-2.1.2-1.4-.5-2.4-1.8-2.4zm-.4 4.4c-.5 0-1-.2-1.3-.6v-2.4c.4-.4.9-.7 1.4-.7 1 0 1.4.7 1.4 1.8s-.4 2.2-1.3 2.2zm5.8-5.9c0-.4.3-.7.6-.7.4 0 .7.3.7.6 0 .4-.3.7-.6.7-.2 0-.4-.2-.5-.4zm-.9 8.7c-.5 0-1-.1-1.4-.3l.3-.6c.3.2.7.3 1.1.3 1 0 1.2-.5 1.2-1.3v-4.4h-2.3v-.7h3.1v5c.3.9-.3 1.9-1.2 2.2-.2.1-.4.1-.7.1zm9.5-4.9c.1-1.1-.7-2.2-1.9-2.3h-.3c-1.4 0-2.5 1.2-2.5 2.6s1.2 2.5 2.6 2.5c.7 0 1.3-.2 1.9-.6l-.3-.5c-.4.3-1 .5-1.5.4-1 .1-1.8-.6-1.9-1.6v-.1h3.8c.1-.1.2-.1.2-.2zm-2.2-1.6c.8 0 1.4.5 1.4 1.5h-3.1c.2-.8 1-1.3 1.8-1.2zm3.6 1.9c0-1.4 1.1-2.5 2.5-2.6h.2c.7 0 1.3.2 1.8.7l-.4.5c-.4-.3-.8-.5-1.3-.6-1-.1-1.8.7-1.9 1.7v.2c-.1 1 .7 1.8 1.7 1.9h.2c.6 0 1.1-.2 1.5-.6l.4.5c-.5.5-1.2.7-1.9.8-1.3 0-2.4-1-2.5-2.3zm5.9-2.4h1.4l.1-1.6h.7v1.6h2.6v.7h-2.4v2.3c0 .9.3 1.3 1.2 1.3.4 0 .8-.1 1.2-.2l.2.6c-.5.2-1 .3-1.5.3-1.4 0-1.9-.8-1.9-2v-2.3h-1.4zm7.5.5c0-.4.4-.8.8-.8s.8.4.8.8-.4.8-.8.8a.9.9 0 0 1-.6-.6zm0 3.6c0-.4.4-.8.8-.8s.8.4.8.8-.4.8-.8.8a.9.9 0 0 1-.6-.6zm13-5c0 .6.1 1.2.1 1.8.1.5-.3 1-.8 1.1h-.1c.5 0 .9.4.9 1v.1c0 .7-.1 1.2-.1 1.8s.2.9 1.2.9h.5v.5h-.6c-1.3 0-1.9-.3-1.9-1.3 0-.7.1-1.3.1-1.9 0-.4-.3-.8-1.4-.8v-.1c1.2 0 1.4-.4 1.4-.8 0-.6-.1-1.2-.1-1.9 0-1 .6-1.3 1.9-1.3h.6v.5h-.5c-.8 0-1 .2-1 .9zm11.5 5.8c.6 0 1.2-.3 1.6-.8v2.7h.8v-6.9h-.7l-.1.5c-.4-.4-.9-.7-1.5-.7-1.3.1-2.3 1.2-2.2 2.5v.1c.1 1.9 1 2.9 2.2 2.9zm.2-4.4c.5 0 .9.2 1.3.6v2.4a1.75 1.75 0 0 1-1.4.7c-.9 0-1.4-.7-1.4-1.8.1-.9.8-1.6 1.7-1.5zm5.3 3.6c0-.4.4-.8.8-.8s.8.4.8.8-.4.8-.8.8c-.3-.1-.5-.3-.6-.5zm0-3.6c0-.4.4-.8.8-.8s.8.4.8.8-.4.8-.8.8c-.3-.1-.5-.3-.6-.5zm12.9 4.4c-.9 0-1.7-.3-2.4-.8l.4-.6c.6.4 1.4.7 2.1.7.8 0 1.2-.3 1.2-.8s-.2-.6-1.5-.9-1.9-.7-1.9-1.4.7-1.4 2-1.4c.7 0 1.4.2 2 .6l-.4.5c-.5-.3-1-.5-1.6-.5-.8 0-1.1.3-1.1.7s.4.6 1.4.8c1.6.3 2 .8 2 1.5s-.6 1.8-2 1.8zm6-5.1c-1.4 0-2.5 1.2-2.5 2.6s1.2 2.5 2.6 2.5c.7 0 1.3-.2 1.9-.6l-.3-.5c-.4.3-1 .5-1.5.4-1 .1-1.8-.6-1.9-1.6v-.1h3.8v-.5c0-1.1-.9-1.9-2-2zm0 .7c.8 0 1.4.5 1.4 1.5h-3.1c.2-.8 1-1.3 1.9-1.2zm6-.7c-.8 0-1.5.3-2.2.7l.3.6c.5-.3 1.1-.5 1.7-.6s1.2.4 1.3 1v.2c-2.5.2-3.5.7-3.5 1.8 0 .8.7 1.4 1.5 1.4h.1c.7-.1 1.4-.3 1.9-.8l.1.7h.7v-3c-.1-.9-.8-1.7-1.7-1.7zm1.2 3.7c-.4.4-1 .7-1.6.7s-1.1-.2-1.1-.8.6-1 2.7-1.2zm6-3c-.9 0-1.7.6-2 1.4v3.2h-.8v-4.9h.7l.1 1.2c.5-.8 1.3-1.3 2.2-1.3.3 0 .7 0 1 .2l-.2.7c-.2-.1-.5-.1-.8-.1zm6.7 3l.4.5c-.5.5-1.2.7-1.9.8-1.3.1-2.5-.9-2.7-2.2v-.3c0-1.4 1.1-2.5 2.5-2.6h.2c.7 0 1.3.2 1.8.7l-.4.5c-.4-.3-.8-.5-1.3-.6-1-.1-1.8.7-1.9 1.7v.2c-.1 1 .7 1.8 1.7 1.9h.2c.6.1 1.2.1 1.7-.2zm6.4 1.6h-.8v-2.9c0-.9-.3-1.3-1.1-1.3-.6 0-1 .3-1.5.9v3.4h-.8v-7.1h.8v3.1c.4-.6 1.1-1 1.8-1 1.1 0 1.7.7 1.7 2zm1.2-6.6h5.2v.7h-2.2v5.9h-.8v-5.8h-2.2zm8.9 6.7c.7 0 1.3-.2 1.9-.6l-.3-.5c-.4.3-1 .5-1.5.4-1 .1-1.8-.6-1.9-1.6v-.1h3.8v-.5c.1-1.1-.7-2.2-1.9-2.3h-.3c-1.4 0-2.5 1.2-2.5 2.6.1 1.5 1.3 2.6 2.7 2.6zm-.1-4.4c.8 0 1.4.5 1.4 1.5h-3.1c.1-.9.8-1.5 1.7-1.5zm8.2-.5l-.2.7c-.3-.1-.6-.2-.9-.2-.9 0-1.7.6-2 1.4v2.8h-.8v-4.9h.7l.1 1.2c.5-.8 1.3-1.3 2.2-1.3.2.1.5.2.9.3zm6.2 1.3v3.5h-.8v-3.4c0-.6-.2-.8-.5-.8s-.5.3-.8.8v3.5h-.8v-3.4c0-.6-.1-.8-.5-.8s-.6.3-.8.8v3.5h-.8v-4.9h.7l.1.6c.2-.5.6-.8 1.1-.8s.8.3.9.8c.3-.5.6-.8 1.1-.8s1 .5 1.1 1.4zm9.2 3.6c0-.6-.1-1.1-.1-1.8-.1-.5.3-1 .8-1.1h.1c-.5 0-.9-.4-.9-.9v-.1c0-.6.1-1.2.1-1.8s-.2-.9-1.3-.9h-.5v-.5h.6c1.3 0 1.8.3 1.8 1.3 0 .7-.1 1.3-.1 1.9 0 .4.3.8 1.4.8v.5c-1.2 0-1.4.4-1.4.8 0 .7.1 1.2.1 1.9 0 1-.6 1.3-1.8 1.3h-.6v-.5h.5c1 0 1.2-.2 1.3-.9zm12 0c0-.6-.1-1.1-.1-1.8-.1-.5.3-1 .8-1.1h.1c-.5 0-.9-.4-.9-.9v-.1c0-.6.1-1.2.1-1.8s-.2-.9-1.3-.9h-.5v-.5h.6c1.3 0 1.8.3 1.8 1.3 0 .7-.1 1.3-.1 1.9 0 .4.3.8 1.4.8v.5c-1.2 0-1.4.4-1.4.8 0 .7.1 1.2.1 1.9 0 1-.6 1.3-1.8 1.3h-.6v-.5h.5c1 0 1.2-.2 1.3-.9zm6.4-2.9c0-1.6-.7-3.1-2-4.1l.5-.4a5.73 5.73 0 0 1 0 9.1l-.5-.4c1.3-1.1 2-2.6 2-4.2zm6 2.7h-.2c-.4 0-.7-.3-.8-.7v-.1c0-.4.3-.7.7-.8h.1c.6 0 .9.5.9 1.3 0 1.1-.7 2.1-1.8 2.4l-.2-.5c.8-.2 1.2-.8 1.3-1.6zm-193 16.1h-.8v-4.9h.7l.1 1.2c.5-.8 1.3-1.3 2.2-1.3.3 0 .7 0 1 .2l-.2.7c-.3-.1-.6-.2-.9-.2-.9 0-1.7.6-2 1.4zm7 .1c.7 0 1.3-.2 1.9-.6l-.3-.5c-.4.3-1 .5-1.5.4-1 .1-1.8-.6-1.9-1.6v-.1h3.8v-.5c.1-1.1-.7-2.2-1.9-2.3h-.3c-1.4 0-2.5 1.2-2.5 2.6.1 1.5 1.3 2.6 2.7 2.6zm-.1-4.4c.8 0 1.4.5 1.4 1.5h-3.1c.2-.9.9-1.5 1.7-1.5zm8.1 3c0 .8-.8 1.4-2.2 1.4-.9 0-1.7-.3-2.4-.8l.4-.6c.6.4 1.4.7 2.1.7.8 0 1.2-.3 1.2-.8s-.2-.6-1.5-.9-1.9-.7-1.9-1.4.7-1.4 2-1.4c.7 0 1.4.2 2 .6l-.4.5c-.5-.3-1-.5-1.6-.5-.8 0-1.1.3-1.1.7s.4.6 1.4.8c1.6.5 2 .9 2 1.7zm3.9 1.4c1.3-.1 2.3-1.2 2.2-2.5v-.1c0-1.5-.7-2.5-2-2.5-.6 0-1.2.3-1.7.7l-.1-.6h-.7v6.9h.8v-2.5c.5.3 1 .6 1.5.6zm-1.4-3.7c.4-.4.9-.7 1.4-.7 1 0 1.4.7 1.4 1.8s-.6 1.9-1.5 1.9c-.5 0-.9-.2-1.3-.6zm7.2-1.4c-1.4-.1-2.6 1-2.7 2.4s1 2.6 2.4 2.7 2.6-1 2.7-2.4v-.1c.1-1.3-.9-2.5-2.2-2.6zm0 4.4c-.9 0-1.6-.7-1.6-1.8s.6-1.9 1.6-1.9 1.6.8 1.6 1.9-.6 1.8-1.6 1.8zm7.4.6v-2.9c0-.9-.3-1.3-1.1-1.3-.6 0-1 .3-1.5.9v3.4h-.8v-4.9h.7l.1.8c.4-.6 1.1-.9 1.8-.9 1.1 0 1.7.7 1.7 2v3zm6.9-1.3c0 .8-.8 1.4-2.2 1.4-.9 0-1.7-.3-2.4-.8l.4-.6c.6.4 1.4.7 2.1.7.8 0 1.2-.3 1.2-.8s-.2-.6-1.5-.9-1.9-.7-1.9-1.4.7-1.4 2-1.4c.7 0 1.4.2 2 .6l-.4.5c-.5-.3-1-.5-1.6-.5-.8 0-1.1.3-1.1.7s.4.6 1.4.8c1.6.5 2 .9 2 1.7zm4 1.4c.7 0 1.3-.2 1.9-.6l-.3-.5c-.4.3-1 .5-1.5.4-1 .1-1.8-.6-1.9-1.6v-.1h3.8v-.5c.1-1.1-.7-2.2-1.9-2.3h-.3c-1.4 0-2.5 1.2-2.5 2.6.1 1.5 1.2 2.6 2.7 2.6zm-.1-4.4c.8 0 1.4.5 1.4 1.5h-3.1c.1-.9.9-1.6 1.7-1.5zm3.2-2.3h5.2v.7h-2.2v5.9h-.8v-5.8h-2.2zm10.3 1.7h.8l-2.1 5.3c-.2 1-1.1 1.7-2.1 1.7-.2 0-.4 0-.6-.1l.2-.7c.1 0 .3.1.4.1.6 0 1.2-.4 1.3-1l.1-.4-2.3-4.9h.8l1.2 2.7c.2.4.4.9.6 1.4l.5-1.4zm4.7-.1c-.6 0-1.2.3-1.7.7l-.1-.6h-.7v6.9h.8v-2.5c.8.9 2.2.9 3.1 0 .5-.5.8-1.3.6-2 .1-1.5-.6-2.5-2-2.5zm-.4 4.4c-.5 0-.9-.2-1.3-.6v-2.4c.4-.4.9-.7 1.4-.7 1 0 1.4.7 1.4 1.8s-.5 1.9-1.5 1.9zm6.3.7c.7 0 1.3-.2 1.9-.6l-.3-.5c-.4.3-1 .5-1.5.4-1 .1-1.8-.6-1.9-1.6v-.1h3.8v-.5c.1-1.1-.7-2.2-1.9-2.3h-.3c-1.4 0-2.5 1.2-2.5 2.6.1 1.5 1.2 2.6 2.7 2.6zm-.1-4.4c.8 0 1.4.5 1.4 1.5h-3.1c.1-.9.9-1.6 1.7-1.5zm6.6 0c0 .4-.4.8-.8.8s-.8-.4-.8-.8.4-.8.8-.8.8.3.9.7zm0 3.5c0 .4-.4.8-.8.8s-.8-.4-.8-.8.4-.8.8-.8.8.3.9.7c0 .1 0 .1-.1.1zm10.6-6.1h1.1v1.1l-.3 2.3h-.6l-.3-2.3zm6.7 7v-4.4h-2.3v-.7h3.1v5c.1 1-.6 1.9-1.6 2h-.4c-.5 0-1-.1-1.4-.3l.3-.6c.3.2.7.3 1.1.3 1.1.1 1.3-.4 1.2-1.3zm1-6.7c0 .4-.3.7-.6.7-.4 0-.7-.3-.7-.6 0-.4.3-.7.6-.7.3-.1.7.2.7.5.1 0 .1.1 0 .1zm6.3 5.2c0-.4-.2-.6-1.5-.9s-1.9-.7-1.9-1.4.7-1.4 2-1.4c.7 0 1.4.2 2 .6l-.4.5c-.5-.3-1-.5-1.6-.5-.8 0-1.1.3-1.1.7s.4.6 1.4.8c1.6.3 2 .8 2 1.5s-.8 1.4-2.2 1.4c-.9 0-1.7-.3-2.4-.8l.4-.6c.6.4 1.4.7 2.1.7.9.3 1.3-.1 1.2-.6zm4.6-3.7c-1.4-.1-2.6 1-2.7 2.4s1 2.6 2.4 2.7 2.6-1 2.7-2.4v-.1c.1-1.3-.9-2.4-2.2-2.5-.1 0-.1 0-.2-.1zm0 4.5c-.9 0-1.6-.7-1.6-1.8s.6-1.9 1.6-1.9 1.6.8 1.6 1.9-.6 1.8-1.6 1.8zm7.4.5v-2.9c0-.9-.3-1.3-1.1-1.3-.6 0-1 .3-1.5.9v3.5h-.8v-4.9h.7l.1.8c.4-.6 1.1-.9 1.8-.9 1.1 0 1.7.7 1.7 2v3zm4.3-3.5l-.3-2.3v-1.1h1.1v1.1l-.3 2.3zm6.5 3.5h-.2c-.4 0-.7-.3-.8-.7v-.1c0-.4.3-.7.7-.8h.1c.6 0 .9.5.9 1.3 0 1.1-.7 2.1-1.8 2.4l-.2-.5c.8-.2 1.3-.8 1.3-1.6zm-122.3 9h.8v3.1c.4-.6 1.1-1 1.8-1 1.1 0 1.7.7 1.7 2v3h-.8v-2.9c0-.9-.3-1.3-1.1-1.3-.6 0-1 .3-1.5.9v3.4h-.8zm8.4 7.2c.7 0 1.3-.2 1.9-.6l-.3-.5c-.4.3-1 .5-1.5.4-1 .1-1.8-.6-1.9-1.6v-.1h3.8v-.5c.1-1.1-.7-2.2-1.9-2.3h-.3c-1.4 0-2.5 1.2-2.5 2.6.1 1.5 1.3 2.6 2.7 2.6zm-.1-4.5c.8 0 1.4.5 1.4 1.5h-3.1c.1-.8.9-1.5 1.7-1.5zm8 1.4c.1-1-.6-1.9-1.6-2h-.4c-.8 0-1.5.3-2.2.7l.3.6c.5-.3 1.1-.5 1.7-.6s1.2.4 1.3 1v.2c-2.5.2-3.5.7-3.5 1.8 0 .8.7 1.4 1.5 1.4h.1c.7-.1 1.4-.3 1.9-.8l.1.7h.7zm-.8 1.7c-.4.4-1 .7-1.6.7s-1.1-.2-1.1-.8.6-1 2.7-1.2zm4.3 1.4c.6 0 1.2-.3 1.6-.8l.1.6h.7v-7.1h-.7v2.8c-.4-.4-.9-.6-1.5-.6-1.3.1-2.3 1.2-2.2 2.5v.1c0 1.6.8 2.5 2 2.5zm.3-4.4c.5 0 .9.2 1.3.6v2.4a1.75 1.75 0 0 1-1.4.7c-.9 0-1.4-.7-1.4-1.8-.1-1 .5-1.8 1.5-1.9zm6.2-.7c-1.4 0-2.5 1.2-2.5 2.6s1.2 2.5 2.6 2.5c.7 0 1.3-.2 1.9-.6l-.3-.5c-.4.3-1 .5-1.5.4-1 .1-1.8-.6-1.9-1.6v-.1h3.8v-.5c.1-1.1-.7-2.2-1.9-2.3 0 .1-.1.1-.2.1zm0 .6c.8 0 1.4.5 1.4 1.5h-3.1c.1-.8.9-1.5 1.7-1.5zm7.2-.6c.3 0 .7 0 1 .2l-.2.7c-.3-.1-.6-.2-.9-.2-.9 0-1.7.6-2 1.4v2.9h-.8v-4.9h.7l.1 1.2a2.45 2.45 0 0 1 2.1-1.3zm6 3.7c0-.4-.2-.6-1.5-.9s-1.9-.7-1.9-1.4.7-1.4 2-1.4c.7 0 1.4.2 2 .6l-.4.5c-.5-.3-1-.5-1.6-.5-.8 0-1.1.3-1.1.7s.4.6 1.4.8c1.6.3 2 .8 2 1.5s-.8 1.4-2.2 1.4c-.9 0-1.7-.3-2.4-.8l.4-.6c.6.4 1.4.7 2.1.7.9.2 1.3-.2 1.2-.6zm5.4-3c0 .4-.4.8-.8.8s-.8-.4-.8-.8.4-.8.8-.8.8.3.9.7zm0 3.6c0 .4-.4.8-.8.8s-.8-.4-.8-.8.4-.8.8-.8.8.3.9.7zm-25.2 12.9c0-.6-.1-1.2-.1-1.9 0-1 .6-1.3 1.9-1.3h.6v.5h-.5c-1 0-1.2.3-1.2.9s.1 1.2.1 1.8c.1.5-.3 1-.8 1.1h-.1c.5 0 .9.4.9 1v.1c0 .7-.1 1.2-.1 1.8s.2.9 1.2.9h.5v.5h-.6c-1.3 0-1.9-.3-1.9-1.3 0-.7.1-1.3.1-1.9 0-.4-.3-.8-1.4-.8v-.5c1.2-.1 1.5-.5 1.4-.9zm12.1.3l-.3-2.3v-1.1h1.1v1.1l-.3 2.3zm8.4 2.2l.5.5c-.5.6-1.2 1-2 1-1.6 0-2.9-1.3-2.9-3.4s1.2-3.4 2.9-3.4c.7 0 1.3.3 1.8.8l-.5.5c-.3-.4-.8-.6-1.3-.6-1.3 0-2.1 1-2.1 2.6s.8 2.7 2.1 2.7c.6 0 1.2-.3 1.5-.7zm3.9-3.7c-1.4-.1-2.6 1-2.7 2.4s1 2.6 2.4 2.7 2.6-1 2.7-2.4v-.1c.1-1.3-.8-2.5-2.1-2.6zm0 4.4c-.9 0-1.6-.7-1.6-1.8s.6-1.9 1.6-1.9 1.6.8 1.6 1.9-.6 1.8-1.6 1.8zm7.4.6v-2.9c0-.9-.3-1.3-1.1-1.3-.6 0-1 .3-1.5.9v3.4h-.8v-4.9h.7l.1.8c.4-.6 1.1-.9 1.8-.9 1.1 0 1.7.7 1.7 2v3zm4.5-6.4v1.6h2.5v.7h-2.4v2.3c0 .9.3 1.3 1.2 1.3.4 0 .8-.1 1.2-.2l.2.6c-.5.2-1 .3-1.5.3-1.4 0-1.9-.8-1.9-2v-2.3h-1.4v-.6h1.4l.1-1.6zm6.3 1.4c-1.4 0-2.5 1.2-2.5 2.6s1.2 2.5 2.6 2.5c.7 0 1.3-.2 1.9-.6l-.3-.5c-.4.3-1 .5-1.5.4-1 .1-1.8-.6-1.9-1.6v-.1h3.8v-.5c.1-1.1-.7-2.2-1.8-2.3-.1.1-.2.1-.3.1zm0 .7c.8 0 1.4.5 1.4 1.5h-3.1c.1-.9.9-1.6 1.7-1.5zm7.2 4.3v-2.9c0-.9-.3-1.3-1.1-1.3-.6 0-1 .3-1.5.9v3.4h-.8v-4.9h.7l.1.8c.4-.6 1.1-.9 1.8-.9 1.1 0 1.7.7 1.7 2v3zm6.9-.8l.2.6c-.5.2-1 .3-1.5.3-1.4 0-1.9-.8-1.9-2v-2.3h-1.4v-.6h1.4l.1-1.6h.7v1.6h2.5v.7h-2.4v2.3c0 .9.3 1.3 1.2 1.3.4 0 .8-.1 1.1-.3zm5.8-2.2h-4.3v-.6h4.3zm1.3-3.6h5.2v.7h-2.2v5.8h-.8v-5.8h-2.2zm10.3 1.7h.8l-2.1 5.3c-.2 1-1.1 1.7-2.1 1.7-.2 0-.4 0-.6-.1l.2-.7c.1 0 .3.1.4.1.6 0 1.2-.4 1.3-1l.1-.4-2.3-4.9h.8l1.2 2.7c.2.4.4.9.6 1.4l.5-1.4zm4.5 5c1.3-.1 2.3-1.2 2.2-2.5v-.1c0-1.5-.7-2.5-2-2.5-.6 0-1.2.3-1.7.7l-.1-.6h-.7v6.9h.8v-2.5c.5.4 1 .6 1.5.6zm-1.5-3.6c.4-.4.9-.7 1.4-.7 1 0 1.4.7 1.4 1.8s-.6 1.9-1.5 1.9c-.5 0-.9-.2-1.3-.6zm7.4-1.5c-1.4 0-2.5 1.2-2.5 2.6s1.2 2.5 2.6 2.5c.7 0 1.3-.2 1.9-.6l-.3-.5c-.4.3-1 .5-1.5.4-1 .1-1.8-.6-1.9-1.6v-.1h3.8v-.5c.1-1.1-.7-2.2-1.8-2.3 0 .1-.1.1-.3.1zm0 .7c.8 0 1.4.5 1.4 1.5h-3.1c.1-.9.9-1.6 1.8-1.5zm5.6.8l-.3-2.3v-1.1h1.1v1.1l-.3 2.3zm5.4 2.8c0-.4.4-.8.8-.8s.8.4.8.8-.4.8-.8.8c-.4-.1-.7-.4-.7-.9zm.9-4.4c.5 0 .9.3.9.8s-.3.9-.8.9-.9-.3-.9-.8c-.1-.5.2-.9.8-.9h.1zm11.7 1.6l-.3-2.3v-1.1h1.1v1.1l-.3 2.3zm4.1 2.3c0 .8.7 1.4 1.5 1.4h.1c.7-.1 1.4-.3 1.9-.8l.1.7h.7v-3c.1-1-.6-1.9-1.6-2h-.4c-.8 0-1.5.3-2.2.7l.3.6c.5-.3 1.1-.5 1.7-.6s1.2.4 1.3 1v.2c-2.3.2-3.4.7-3.4 1.8zm3.5-1.3v1.3c-.4.4-1 .7-1.6.7s-1.1-.2-1.1-.8.8-1.1 2.8-1.2zm4.8 2.6c1.3-.1 2.3-1.2 2.2-2.5v-.1c0-1.5-.7-2.5-2-2.5-.6 0-1.2.3-1.7.7l-.1-.6h-.7v6.9h.8v-2.5c.4.4.9.6 1.5.6zm-1.4-3.6c.4-.4.9-.7 1.4-.7 1 0 1.4.7 1.4 1.8s-.6 1.9-1.5 1.9c-.5 0-.9-.2-1.3-.6zm7.6-1.5c-.6 0-1.2.3-1.7.7l-.1-.6h-.7v6.9h.8v-2.5c.8.9 2.2.9 3.1 0 .5-.5.8-1.3.6-2 .1-1.5-.6-2.5-1.9-2.5zm-.3 4.4c-.5 0-.9-.2-1.3-.6v-2.4c.4-.4.9-.7 1.4-.7 1 0 1.4.7 1.4 1.8s-.5 1.9-1.4 1.9zm5.4-1v-4.8h-1.7v-.7h2.6v5.6c-.1.5.3.9.7 1h.3c.3 0 .6-.1.9-.2l.2.6a3.08 3.08 0 0 1-1.3.3c-1.1-.1-1.6-.7-1.6-1.8zm4.5-3.2h3.1v4.8h-.8v-4.2h-2.3zm2.5-1c-.4 0-.6-.3-.6-.7s.3-.6.7-.6a.65.65 0 0 1 .6.6c0 .3-.3.5-.5.6zm3.4 3.5c0-1.4 1.1-2.5 2.5-2.6h.2c.7 0 1.3.2 1.8.7l-.4.5c-.4-.3-.8-.5-1.3-.6-1-.1-1.8.7-1.9 1.7v.2c-.1 1 .7 1.8 1.7 1.9h.2c.6 0 1.1-.2 1.5-.6l.4.5c-.5.5-1.2.7-1.9.8-1.4.1-2.5-1-2.6-2.3v-.3zm6 1.1c0 .8.7 1.4 1.5 1.4h.1c.7-.1 1.4-.3 1.9-.8l.1.7h.7v-3c.1-1-.6-1.9-1.6-2h-.4c-.8 0-1.5.3-2.2.7l.3.6c.5-.3 1.1-.5 1.7-.6s1.2.4 1.3 1v.2c-2.3.1-3.4.7-3.4 1.8zm3.5-1.2v1.3c-.4.4-1 .7-1.6.7s-1.1-.2-1.1-.8.8-1.1 2.8-1.3zm7 1.7l.2.6c-.5.2-1 .3-1.5.3-1.4 0-1.9-.8-1.9-2v-2.3h-1.4v-.6h1.4l.1-1.6h.7v1.6h2.4v.7h-2.4v2.3c0 .9.3 1.3 1.2 1.3l1.2-.3zm1.6-4.1h3.1v4.8h-.8v-4.2h-2.3zm2.6-2.3c.4 0 .6.3.6.7s-.3.6-.7.6a.65.65 0 0 1-.6-.6c-.1-.3.2-.7.5-.7.1-.1.2-.1.2 0zm5.5 2.2c-1.4-.1-2.6 1-2.7 2.4s1 2.6 2.4 2.7 2.6-1 2.7-2.4v-.1c.2-1.3-.8-2.5-2.1-2.7h-.3zm0 4.4c-.9 0-1.6-.7-1.6-1.8s.6-1.9 1.6-1.9 1.6.8 1.6 1.9-.6 1.7-1.6 1.8zm8.3-2.5v3h-.8v-2.9c0-.9-.3-1.3-1.1-1.3-.6 0-1 .3-1.5.9v3.4h-.8v-4.9h.7l.1.8c.4-.6 1.1-.9 1.8-.9 1.1-.1 1.6.6 1.6 1.9zm2.5 4.6h-.7l3.3-8.7h.7zm7.8-8.8c.4 0 .6.3.6.7s-.3.6-.7.6a.65.65 0 0 1-.6-.6c0-.4.3-.6.7-.7-.1 0-.1 0 0 0zm-2.9 9l.3-.6c.3.2.7.3 1.1.3 1 0 1.2-.5 1.2-1.3v-4.4h-2.3v-.7h3.1v5c.1 1-.6 1.9-1.6 2h-.4c-.5.1-1 0-1.4-.3zm9.8-3.1c0-.4-.2-.6-1.5-.9s-1.9-.7-1.9-1.4.7-1.4 2-1.4c.7 0 1.4.2 2 .6l-.4.5c-.5-.3-1-.5-1.6-.5-.8 0-1.1.3-1.1.7s.4.6 1.4.8c1.6.3 2 .8 2 1.5s-.8 1.4-2.2 1.4c-.9 0-1.7-.3-2.4-.8l.4-.6c.6.4 1.4.7 2.1.7.8.2 1.2-.2 1.2-.6zm4.6-3.7c-1.4-.1-2.6 1-2.7 2.4s1 2.6 2.4 2.7 2.6-1 2.7-2.4v-.1c.1-1.3-.8-2.5-2.1-2.6zm0 4.5c-.9 0-1.6-.7-1.6-1.8s.6-1.9 1.6-1.9 1.6.8 1.6 1.9-.7 1.7-1.6 1.8zm7.4.5v-2.9c0-.9-.3-1.3-1.1-1.3-.6 0-1 .3-1.5.9v3.4h-.8v-4.9h.7l.1.8c.4-.6 1.1-.9 1.8-.9 1.1 0 1.7.7 1.7 2v3zm4.8 0h-.2c-.4 0-.7-.3-.8-.7v-.1c0-.4.3-.7.7-.8h.1c.6 0 .9.5.9 1.3 0 1.1-.7 2.1-1.8 2.4l-.2-.5c.8-.2 1.3-.9 1.3-1.6zm-1-4.3c0-.4.4-.8.8-.8s.8.4.8.8-.4.8-.8.8-.8-.3-.9-.7c.1 0 .1-.1.1-.1zm10.6 1.9c0-1.4 1.1-2.5 2.5-2.6h.2c.7 0 1.3.2 1.8.7l-.4.5c-.4-.3-.8-.5-1.3-.6-1-.1-1.8.7-1.9 1.7v.2c-.1 1 .7 1.8 1.7 1.9h.2c.6 0 1.1-.2 1.5-.6l.4.5c-.5.5-1.2.7-1.9.8-1.3.2-2.6-.8-2.7-2.2-.1-.1-.1-.2-.1-.3zm6.2-4.7h.8v3.1c.4-.6 1.1-1 1.8-1 1.1 0 1.7.7 1.7 2v3h-.8v-2.9c0-.9-.3-1.3-1.1-1.3-.6 0-1 .3-1.5.9v3.4h-.8zm8.2 2.1c-.8 0-1.5.3-2.2.7l.3.6c.5-.3 1.1-.5 1.7-.6s1.2.4 1.3 1v.2c-2.5.2-3.5.7-3.5 1.8 0 .8.7 1.4 1.5 1.4h.1c.7-.1 1.4-.3 1.9-.8l.1.7h.7v-3c.1-1-.6-1.9-1.6-2zm1.2 3.8c-.4.4-1 .7-1.6.7s-1.1-.2-1.1-.8.6-1 2.7-1.2zm6-3.8c.3 0 .7 0 1 .2l-.2.7c-.3-.1-.6-.2-.9-.2-.9 0-1.7.6-2 1.4v2.8h-.8v-4.9h.7l.1 1.2c.4-.7 1.2-1.2 2.1-1.2zm2.3 4.4l.4-.6c.6.4 1.4.7 2.1.7.8 0 1.2-.3 1.2-.8s-.2-.6-1.5-.9-1.9-.7-1.9-1.4.7-1.4 2-1.4c.7 0 1.4.2 2 .6l-.4.5c-.5-.3-1-.5-1.6-.5-.8 0-1.1.3-1.1.7s.4.6 1.4.8c1.6.3 2 .8 2 1.5s-.8 1.4-2.2 1.4a3.48 3.48 0 0 1-2.4-.6zm8.5-4.4c-1.4 0-2.5 1.2-2.5 2.6s1.2 2.5 2.6 2.5c.7 0 1.3-.2 1.9-.6l-.3-.5c-.4.3-1 .5-1.5.4-1 .1-1.8-.6-1.9-1.6v-.1h3.8v-.5c.1-1.1-.7-2.2-1.8-2.3-.1.1-.2.1-.3.1zm0 .7c.8 0 1.4.5 1.4 1.5h-3.1c.1-.9.8-1.5 1.7-1.5zm4.9.1h-1.4v-.6h1.4l.1-1.6h.7v1.6h2.3v.7h-2.4v2.3c0 .9.3 1.3 1.2 1.3.4 0 .8-.1 1.2-.2l.2.6c-.5.2-1 .3-1.5.3-1.4 0-1.9-.8-1.9-2zm4.8 1.7h4.3v.6h-4.3zm0-2.2h4.3v.6h-4.3zm5.9 2.9v-3h.8v2.9c0 .9.3 1.3 1.1 1.3.6 0 1.2-.4 1.5-.9v-3.4h.8v4.8h-.7l-.1-.8c-.4.6-1.1 1-1.8 1-1.2 0-1.7-.7-1.6-1.9zm10.5 1l.2.6c-.5.2-1 .3-1.5.3-1.4 0-1.9-.8-1.9-2v-2.3h-1.4v-.6h1.4l.1-1.6h.7v1.6h2.3v.7h-2.4v2.3c0 .9.3 1.3 1.2 1.3.5 0 .9-.1 1.3-.3zm5.1-6.4c.5 0 1 .1 1.4.3l-.2.6c-.4-.2-.7-.2-1.1-.2-.9 0-1.2.5-1.2 1.3v.4h2v.7h-2v4.2h-.8v-4.2h-1.4v-.6h1.4v-.4c-.1-1 .6-1.9 1.5-2 .1-.1.2-.2.4-.1zm2.5 3.6h4.3v.6h-4.3zm9.2.4c.6-.3.9-.9 1-1.5 0-1-.7-1.7-2-1.7-1-.1-1.8.5-2 1.5v.2c0 .6.4 1.2 1 1.5-.8.2-1.3.9-1.4 1.7 0 1 .9 1.8 2.3 1.8s2.3-.8 2.3-1.7-.6-1.5-1.2-1.8zm-2.3-1.6c0-.6.5-1 1.1-1h.1c.6-.1 1.2.4 1.3 1v.1c0 .5-.3 1-.8 1.3-1-.4-1.7-.7-1.7-1.4zm1.2 4.3c-1 0-1.6-.5-1.6-1.2s.5-1 1.1-1.4c1.1.4 2 .6 2 1.5 0 .7-.6 1.1-1.5 1.1zm5.5-6.3h1.1v1.1l-.3 2.3h-.6l-.3-2.3zm11.1 8.3h-.6v-.5h.5c1 0 1.3-.3 1.3-.9s-.1-1.1-.1-1.8c-.1-.5.3-1 .8-1.1h.1c-.5 0-.9-.4-.9-.9v-.1c0-.6.1-1.2.1-1.8s-.2-.9-1.3-.9h-.5v-.5h.6c1.3 0 1.8.3 1.8 1.3 0 .7-.1 1.3-.1 1.9 0 .4.3.8 1.4.8v.5c-1.2 0-1.4.4-1.4.8 0 .7.1 1.2.1 1.9 0 1-.6 1.3-1.8 1.3zm-338.8 12c-1.2 0-1.4.4-1.4.8 0 .7.1 1.2.1 1.9 0 1-.6 1.3-1.8 1.3h-.6v-.5h.5c1 0 1.3-.3 1.3-.9s-.1-1.1-.1-1.8c-.1-.5.3-1 .8-1.1h.1c-.5 0-.9-.4-.9-.9v-.1c0-.6.1-1.2.1-1.8s-.2-.9-1.3-.9h-.5v-.5h.6c1.3 0 1.8.3 1.8 1.3 0 .7-.1 1.3-.1 1.9 0 .4.3.8 1.4.8zm4.4 2.5h-.2c-.4 0-.7-.3-.8-.7v-.1c0-.4.3-.7.7-.8h.1c.6 0 .9.5.9 1.3 0 1.1-.7 2.1-1.8 2.4l-.2-.5c.8-.2 1.3-.9 1.3-1.6zm-17.3 13.3c0 1.8-.8 3.5-2.2 4.5l-.5-.4c2.3-1.8 2.6-5.2.8-7.5-.2-.3-.5-.5-.8-.8l.5-.4c1.4 1.1 2.2 2.8 2.2 4.6zm-1.7 18c0-.4.4-.8.8-.8s.8.4.8.8-.4.8-.8.8-.8-.3-.8-.8zm7.2-4.3c-.6 0-1.2.3-1.7.7l-.1-.6h-.7v6.9h.8v-2.5c.8.9 2.2.9 3.1 0 .5-.5.8-1.3.6-2 0-1.5-.7-2.5-2-2.5zm-.3 4.4c-.5 0-.9-.2-1.3-.6v-2.4c.4-.4.9-.7 1.4-.7 1 0 1.4.7 1.4 1.8s-.7 1.9-1.5 1.9zm6.1.6v-4.2h-2.3v-.7h3.1v4.8zm1-6.5c0 .4-.3.7-.6.7-.4 0-.7-.3-.7-.6 0-.4.3-.7.6-.7.3-.1.6.2.7.6-.1 0-.1 0 0 0zm5.2 1.5c-.6 0-1.2.3-1.7.7l-.1-.6h-.7v6.9h.8v-2.5c.8.9 2.2.9 3.1 0 .5-.5.8-1.3.6-2 0-1.5-.7-2.5-2-2.5zm-.3 4.4c-.5 0-.9-.2-1.3-.6v-2.4c.4-.4.9-.7 1.4-.7 1 0 1.4.7 1.4 1.8s-.7 1.9-1.5 1.9zm6.2.7c.7 0 1.3-.2 1.9-.6l-.3-.5c-.4.3-1 .5-1.5.4-1 .1-1.8-.6-1.9-1.6v-.1h3.8v-.5c.1-1.1-.7-2.2-1.9-2.3h-.3c-1.4 0-2.5 1.2-2.5 2.6.1 1.5 1.3 2.7 2.7 2.6zm-.1-4.4c.8 0 1.4.5 1.4 1.5h-3.1c.1-.9.8-1.5 1.7-1.5zm5.6 1.5c0 1.6.7 3.1 2 4.1l-.5.4a5.73 5.73 0 0 1 0-9.1l.5.4c-1.3 1.1-2 2.6-2 4.2zm-15.2 15.3v3.5h-.8v-3.4c0-.6-.2-.8-.5-.8s-.5.3-.8.8v3.5h-.8v-3.4c0-.6-.1-.8-.5-.8s-.6.3-.8.8v3.5h-.8v-4.9h.7l.1.6c.2-.5.6-.8 1.1-.8s.8.3.9.8c.3-.5.6-.8 1.1-.8s1 .5 1.1 1.4zm1.2 2.2c0 .8.7 1.4 1.5 1.4h.1c.7-.1 1.4-.3 1.9-.8l.1.7h.7v-3c.1-1-.6-1.9-1.6-2h-.4c-.8 0-1.5.3-2.2.7l.3.6c.5-.3 1.1-.5 1.7-.6s1.2.4 1.3 1v.2c-2.4.2-3.4.7-3.4 1.8zm3.5-1.2v1.3c-.4.4-1 .7-1.6.7s-1.1-.2-1.1-.8.6-1.1 2.7-1.2zm5.1-2.5c-.6 0-1.2.3-1.7.7l-.1-.6h-.7v6.9h.8v-2.5c.8.9 2.2.9 3.1 0 .5-.5.8-1.3.6-2 0-1.5-.7-2.5-2-2.5zm-.3 4.4c-.5 0-.9-.2-1.3-.6v-2.4c.4-.4.9-.7 1.4-.7 1 0 1.4.7 1.4 1.8s-.7 1.9-1.5 1.9zm5.7-2.2c0 1.6.7 3.1 2 4.1l-.5.4a5.73 5.73 0 0 1 0-9.1l.5.4c-1.3 1.1-2 2.6-2 4.2zm6 0c0 1.6.7 3.1 2 4.1l-.5.4a5.73 5.73 0 0 1 0-9.1l.5.4c-1.3 1.1-2 2.6-2 4.2zm8.4-1.3c-.3-.1-.6-.2-.9-.2-.9 0-1.7.6-2 1.4v2.8h-.8v-4.9h.7l.1 1.2c.5-.8 1.3-1.3 2.2-1.3.3 0 .7 0 1 .2zm4-.9c-1.4 0-2.5 1.2-2.5 2.6s1.2 2.5 2.6 2.5c.7 0 1.3-.2 1.9-.6l-.3-.5c-.4.3-1 .5-1.5.4-1 .1-1.8-.6-1.9-1.6v-.1h3.8v-.5c.1-1.1-.7-2.2-1.9-2.3 0 .1-.1.1-.2.1zm0 .7c.8 0 1.4.5 1.4 1.5h-3.1c.1-.9.8-1.5 1.7-1.5zm8.1 3c0 .8-.8 1.4-2.2 1.4-.9 0-1.7-.3-2.4-.8l.4-.6c.6.4 1.4.7 2.1.7.8 0 1.2-.3 1.2-.8s-.2-.6-1.5-.9-1.9-.7-1.9-1.4.7-1.4 2-1.4c.7 0 1.4.2 2 .6l-.4.5c-.5-.3-1-.5-1.6-.5-.8 0-1.1.3-1.1.7s.4.6 1.4.8c1.5.5 1.9.9 2 1.7zm2.9.6c0-.4.4-.8.8-.8s.8.4.8.8-.4.8-.8.8-.8-.3-.8-.8zm0-3.6c0-.4.4-.8.8-.8s.8.4.8.8-.4.8-.8.8c-.4.1-.8-.3-.8-.8zm4.6 3c0 .8.7 1.4 1.5 1.4h.1c.7-.1 1.4-.3 1.9-.8l.1.7h.7v-3c.1-1-.6-1.9-1.6-2h-.4c-.8 0-1.5.3-2.2.7l.3.6c.5-.3 1.1-.5 1.7-.6s1.2.4 1.3 1v.2c-2.4.2-3.4.7-3.4 1.8zm3.5-1.3v1.3c-.4.4-1 .7-1.6.7s-1.1-.2-1.1-.8.6-1 2.7-1.2zm2.6-2.3h.7l.1.8c.4-.6 1.1-.9 1.8-.9 1.1 0 1.7.7 1.7 2v3h-.8v-2.9c0-.9-.3-1.3-1.1-1.3-.6 0-1 .3-1.5.9v3.4h-.8zm9.8 0h.8l-2.1 5.3c-.2 1-1.1 1.7-2.1 1.7-.2 0-.4 0-.6-.1l.2-.7c.1 0 .3.1.4.1.6 0 1.2-.4 1.3-1l.1-.4-2.3-4.9h.8l1.2 2.7c.2.4.4.9.6 1.4l.5-1.4zm4.5 2.1c0-1.6-.7-3.1-2-4.1l.5-.4a5.73 5.73 0 0 1 0 9.1l-.5-.4c1.3-1.1 2-2.6 2-4.2zm14-1.3h-4.3v-.6h4.3zm-4.3 1.5h4.3v.6h-4.3zm9.2-.7l-3-2v-.8l3.7 2.5v.6l-3.7 2.5v-.8zm10.6-.6c0-.6-.1-1.2-.1-1.9 0-1 .6-1.3 1.9-1.3h.6v.5h-.5c-1 0-1.2.3-1.2.9s.1 1.2.1 1.8c.1.5-.3 1-.8 1.1h-.1c.5 0 .9.4.9 1v.1c0 .7-.1 1.2-.1 1.8s.2.9 1.2.9h.5v.5h-.6c-1.3 0-1.9-.3-1.9-1.3 0-.7.1-1.3.1-1.9 0-.4-.3-.8-1.4-.8v-.4c1-.1 1.3-.5 1.4-1z" fill="url(#E)"/><g fill="#e8f3f8"><circle cx="1815.7" cy="1383.6" r="11.1"/><circle cx="1846.4" cy="1425.3" r="11.1"/><circle cx="1877" cy="1392.5" r="11.1"/><circle cx="1958.4" cy="1411.2" r="11.1"/><circle cx="1916.9" cy="1445.2" r="11.1"/><circle cx="1973.6" cy="1354.5" r="11.1"/></g><path d="M1859.3 817.5l-1.8 462.7v1.7l-43.8 43.9c-.3.3-.5.8-.5 1.3v43.8c-7 1-12 7.5-11 14.5s7.5 12 14.5 11 12-7.5 11-14.5a12.94 12.94 0 0 0-11-11v-43.1l40.8-40.8v32.6l-13.2 13.1c-.3.3-.5.8-.5 1.2v78.6c-7.1 1-12 7.5-11 14.5 1 7.1 7.5 12 14.5 11s12-7.5 11-14.5a12.94 12.94 0 0 0-11-11v-77.9l13.1-13.1c.3-.3.5-.8.5-1.3v-40zm-35 566.1a9.4 9.4 0 1 1-18.8 0 9.39 9.39 0 0 1 9.4-9.4c5.2.1 9.4 4.3 9.4 9.4zm30.7 41.7a9.4 9.4 0 1 1-18.8 0 9.4 9.4 0 1 1 18.8 0zm33.7-565.4l-1.8 450.9-11.9 11.9c-.3.3-.5.8-.5 1.3v55.8c-7.1 1-12 7.5-11 14.6s7.5 12 14.6 11 12-7.5 11-14.6c-.8-5.7-5.3-10.3-11-11v-32l36.5 36.5v48.3c-7.1 1-12 7.5-11 14.5 1 7.1 7.5 12 14.5 11 7.1-1 12-7.5 11-14.5a12.94 12.94 0 0 0-11-11v-49c0-.5-.2-.9-.5-1.2l-39.5-39.5v-18l11.9-11.9c.3-.3.5-.8.5-1.3zm-3.1 532.6a9.4 9.4 0 1 1-18.8 0 9.39 9.39 0 0 1 9.4-9.4c5.2.1 9.4 4.3 9.4 9.4zm30.6 62.1a9.4 9.4 0 1 1 0-18.8 9.39 9.39 0 0 1 9.4 9.4c-.1 5.2-4.3 9.4-9.4 9.4zm3.1-718.8l-1.8 609.7c0 .5.2.9.5 1.3l37.9 37.9v13.9c-7.1 1-12 7.5-11 14.5 1 7.1 7.5 12 14.5 11 7.1-1 12-7.5 11-14.5a12.94 12.94 0 0 0-11-11V1384c0-.5-.2-.9-.5-1.2l-37.9-37.9v-39.6l41.6 41.6c-4.3 5.7-3.2 13.8 2.5 18.1s13.8 3.2 18.1-2.5 3.2-13.8-2.5-18.1c-4.6-3.5-11-3.5-15.6 0l-44.1-44.1zm47.7 675.4a9.4 9.4 0 1 1-18.8 0 9.4 9.4 0 1 1 18.8 0zm5.9-47.4a9.4 9.4 0 1 1 0-18.8 9.4 9.4 0 1 1 0 18.8c0 .1 0 .1 0 0z" fill="#c4dbe6"/><g fill="none" stroke="#006391"><path d="M2499.8 766.5C1597.6 676.3 1080.7-186.3-.2 235.8" stroke-miterlimit="10"/><path d="M2497.7 799.4C1491.4 746.8 1154.8 143.7 285.2.7" stroke-dasharray="0 17" stroke-linecap="round" stroke-linejoin="round" stroke-width="3"/><g stroke-miterlimit="10"><path d="m2499.8 697.9-5.9-.9"/><path d="M2486 695.9C1768 587.1 1516.1 115.1 1107.2 3.3" stroke-dasharray="12.03 8.02"/><path d="m1103.3 2.2-5.8-1.5m1402.3 746.4-6-.1"/><path d="M2485.8 746.8C1209.9 712.8 1617.9-152.5 9.7 96.7" stroke-dasharray="12.04 8.03"/><path d="m5.8 97.3-5.9.9"/></g><path d="M2483.1 724.2C1758.9 612.4 1220.8 40 7.9 441.7" stroke-dasharray="0 16.96" stroke-linecap="round" stroke-linejoin="round" stroke-width="3"/></g><path d="m1989.9 185.3h21.6v21.6c0 34.1-27.7 61.8-61.8 61.8h-21.6v-21.6c0-34.2 27.7-61.8 61.8-61.8z" fill="url(#G)"/><path d="m1742.5 232.5v-24.4h24.4c38.6 0 69.9 31.3 69.9 69.9v24.4h-24.4c-38.6 0-69.9-31.3-69.9-69.9z" fill="url(#H)"/><path d="m1791 141.5v-18.9h18.9c29.9 0 54.1 24.2 54.1 54.1v18.9h-18.9c-29.9 0-54.1-24.2-54.1-54.1z" fill="url(#I)"/><path d="M1859.3 817.5l1.8-492.6c0-.5-.2-.9-.5-1.3l-68.3-68.4a1.768 1.768 0 1 0-2.5 2.5l67.8 67.8zm29.4 42.4l1.8-639.6c0-.5-.2-.9-.5-1.2l-62.4-62.4a1.768 1.768 0 1 0-2.5 2.5l61.9 61.9zm30.6-124.1l1.8-457.4 50.1-50.1a1.768 1.768 0 1 0-2.5-2.5l-50.6 50.6c-.3.3-.5.8-.5 1.2z" fill="#006391"/><g opacity=".55"><path d="m1213.6 862.1h-244c-8.5 0-15.4 6.9-15.4 15.4v155.3c0 8.5 6.9 15.4 15.4 15.4h244c8.5 0 15.4-6.9 15.4-15.4v-155.3c-.1-8.5-6.9-15.4-15.4-15.4zm-106.2 99.9v32.5c0 8.6-7 15.6-15.6 15.6s-15.6-7-15.6-15.6v-32.2c-15.6-8.5-21.3-28-12.8-43.6s28-21.3 43.6-12.8 21.3 28 12.8 43.6c-2.9 5.2-7.2 9.6-12.4 12.5z" fill="url(#J)"/><path d="m1194.2 843.7h-20.1c-2.6 0-4.8-2-5-4.7-2.5-42.8-39.3-75.5-82.2-73-39.3 2.3-70.7 33.7-73 73-.2 2.6-2.4 4.7-5 4.7h-20.1c-2.8 0-5-2.2-5-5v-.2c2.9-59.5 53.5-105.3 113-102.4 55.4 2.7 99.7 47 102.4 102.4.1 2.8-2 5.1-4.8 5.2z" fill="url(#K)"/></g></svg>