<?xml version="1.0" encoding="UTF-8"?>
<svg id="Layer_1" data-name="Layer 1" xmlns="http://www.w3.org/2000/svg" viewBox="0 0 939.52 1010.4">
  <defs>
    <style>
      .cls-1 {
        fill: #fff;
      }
    </style>
  </defs>
  <g>
    <g>
      <g>
        <circle class="cls-1" cx="471.08" cy="595.42" r="74.73"/>
        <circle class="cls-1" cx="231.93" cy="520.69" r="74.73"/>
        <circle class="cls-1" cx="712.36" cy="520.69" r="74.73"/>
        <path class="cls-1" d="M82.47,751.29c13.35-77.94,17.62-141.16,88.72-155.87,43.13,45.24,86.9,46.33,135.47,0,21.89,10.36,42.17,36.52,49.11,61.04-26.16,21.26-39.78,42.1-49.11,94.83H82.47Z"/>
        <path class="cls-1" d="M862.89,751.29c-13.35-77.94-17.62-141.16-88.72-155.87-43.13,45.24-86.9,46.33-135.47,0-21.89,10.36-42.17,36.52-49.11,61.04,26.16,21.26,39.78,42.1,49.11,94.83h224.2Z"/>
        <path class="cls-1" d="M324.82,816.42h294.03c-11.12-80.07-17.42-128.94-73.04-146.26-49.74,31.99-99.56,31.99-149.46,0-43.79,16.11-57.65,44.84-71.53,146.26Z"/>
      </g>
      <path class="cls-1" d="M475.93,236.18c-72.82,0-131.85,59.03-131.85,131.85s59.03,131.85,131.85,131.85,131.85-59.04,131.85-131.85-59.03-131.85-131.85-131.85ZM548.62,339.19l-88.81,84.22c-1.47,1.4-3.79,1.39-5.24-.03l-51.37-50.15c-1.87-1.83-1.9-4.81-.09-6.68l18.76-19.22c1.83-1.87,4.81-1.9,6.68-.07l28.94,28.25,66.11-62.61c1.89-1.8,4.88-1.73,6.68.16l18.51,19.45c1.79,1.89,1.72,4.88-.17,6.68Z"/>
    </g>
    <g>
      <g>
        <path class="cls-1" d="M758.09,270.22c-10.31-10.54-19.16-22.15-29.9-32.18-2.99-2.8-1.96-6.74,1.9-8.3,3.27-1.32,10.17-3.63,13.6-5.12-28.38-87.71-122.51-140.21-169.9-157.03-6.44-2.29-6.14-4.57-6.65-9.28-.61-5.5,5.46-8.68,10.02-7.35,39.05,11.35,79.52,40.91,109.85,66.78,32.16,27.43,56.58,65.12,70.3,102.53,3.68-1.52,9.4-3.46,13.31-4.5,4.91-1.31,8.64,2.2,7.88,6.83-2.4,14.62-4.97,30.04-8.57,44.16-1.5,5.86-8.04,7.35-11.84,3.46Z"/>
        <rect class="cls-1" x="725.79" y="311.44" width="100.35" height="100.35"/>
      </g>
      <g>
        <path class="cls-1" d="M398.27,67.74c-10.54,10.31-22.15,19.16-32.18,29.9-2.8,2.99-6.74,1.96-8.3-1.9-1.32-3.27-3.63-10.17-5.12-13.6-87.71,28.38-140.21,122.51-157.03,169.9-2.29,6.44-4.57,6.14-9.28,6.65-5.5.61-8.68-5.46-7.35-10.02,11.35-39.05,40.91-79.52,66.78-109.85,27.43-32.16,65.12-56.58,102.53-70.3-1.52-3.68-3.46-9.4-4.5-13.31-1.31-4.91,2.2-8.64,6.83-7.88,14.62,2.4,30.04,4.97,44.16,8.57,5.86,1.5,7.35,8.04,3.46,11.84Z"/>
        <polygon class="cls-1" points="238.66 411.46 119.21 413.93 176.8 309.24 238.66 411.46"/>
      </g>
    </g>
    <path class="cls-1" d="M535.39,44.45c-1.05-4.84-9.85.16-12.71-3.61-.38-.51-2.07-4.21-2.2-4.81-1.31-6.36,10.19-7.24,5.43-13.58-1.18-1.56-12.3-12.69-13.51-13.32-4.88-2.55-7.02,7-12.11,6.32-.62-.09-4.43-1.7-4.97-2.06-3.95-2.7.19-11.13-3.09-12.66-3.79-1.77-16.79.33-21.6-.3-4.28,1.23-.72,10.11-2.74,12.42-.3.34-5.08,2.4-5.69,2.51-5.25.9-7.9-7.77-11.39-6.8-2.29.64-12.28,13.08-15.27,15.09-1.98,4.26,7.44,7.44,6.61,11.79-.06.33-2.09,4.99-2.31,5.33-2.32,3.42-11.07-.2-12.47,2.69-1.61,3.32.61,17.35-.3,21.86.77,4.17,10.01.19,12.52,3.23.69.83,2.7,5.59,2.55,6.55-.51,3.44-8.19,5.92-6.79,10.51.76,2.49,12.42,11.61,14.47,14.68,4.72,2.41,7.86-7.19,11.8-6.59,1.04.16,6.12,2.49,6.56,3.39,1.18,2.45-.95,9.97,1.45,11.38.94.56,19.94.63,21.86.27,4.49-.84-.14-10.2,3.58-12.74.79-.54,6.01-2.5,6.81-2.31,2.25.54,6.43,7.85,9.91,6.81,2.51-.76,12.13-12.98,15.28-15.07,1.72-3.66-7.2-6.51-6.7-11.3.09-.85,2.32-6.12,2.91-6.47,2.46-1.49,10.35,1.56,11.94-2.05.57-1.28.6-19.18.18-21.14ZM498.78,72.3c-23.12,22.88-58.16-11.82-35.36-35.07,23.1-23.55,58.44,12.23,35.36,35.07Z"/>
  </g>
  <g>
    <path class="cls-1" d="M100.51,948.46h-49.31l-6.85,23.2H0l52.83-140.56h47.38l52.82,140.56h-45.48l-7.03-23.2ZM91.5,918.07l-15.51-50.53-15.35,50.53h30.87Z"/>
    <path class="cls-1" d="M271.43,831.11v140.56h-36.53v-15.05c-5.11,6.39-9.78,10.71-14,12.94-5.63,2.94-11.89,4.41-18.79,4.41-13.87,0-24.47-5.27-31.78-15.82-7.32-10.55-10.98-23.36-10.98-38.45,0-16.87,4.04-29.79,12.13-38.73,8.09-8.95,18.36-13.42,30.83-13.42,6.07,0,11.58,1.02,16.54,3.07,4.95,2.05,9.35,5.12,13.18,9.21v-48.71h39.41ZM232.31,920.47c0-7.99-1.69-13.95-5.08-17.88-3.39-3.93-7.67-5.9-12.85-5.9-4.54,0-8.34,1.89-11.41,5.66-3.07,3.77-4.6,10.1-4.6,18.98,0,8.31,1.58,14.4,4.75,18.26,3.16,3.87,7.08,5.8,11.75,5.8,4.99,0,9.14-1.95,12.46-5.85,3.32-3.9,4.99-10.26,4.99-19.08Z"/>
    <path class="cls-1" d="M330.78,902.83l-37.3-3.93c1.41-6.52,3.44-11.65,6.09-15.39,2.65-3.74,6.47-6.98,11.46-9.73,3.58-1.98,8.5-3.51,14.77-4.6,6.26-1.09,13.04-1.63,20.33-1.63,11.7,0,21.09.66,28.19,1.96,7.1,1.31,13.01,4.04,17.74,8.2,3.32,2.88,5.94,6.95,7.86,12.22,1.92,5.27,2.88,10.31,2.88,15.1v44.97c0,4.79.3,8.55.91,11.27.61,2.72,1.93,6.18,3.98,10.4h-36.63c-1.47-2.62-2.43-4.62-2.88-5.99-.45-1.37-.9-3.53-1.34-6.47-5.11,4.92-10.2,8.44-15.24,10.55-6.9,2.81-14.93,4.22-24.07,4.22-12.15,0-21.37-2.81-27.66-8.44-6.3-5.62-9.44-12.56-9.44-20.81,0-7.73,2.27-14.09,6.81-19.08,4.54-4.99,12.91-8.69,25.12-11.12,14.64-2.94,24.13-5,28.48-6.18,4.35-1.18,8.95-2.73,13.81-4.65,0-4.79-.99-8.15-2.97-10.07-1.98-1.92-5.47-2.88-10.45-2.88-6.39,0-11.19,1.02-14.38,3.07-2.49,1.6-4.51,4.6-6.04,9.01ZM364.63,923.34c-5.37,1.92-10.96,3.61-16.78,5.08-7.93,2.11-12.94,4.19-15.05,6.23-2.17,2.11-3.26,4.51-3.26,7.19,0,3.07,1.07,5.58,3.21,7.53,2.14,1.95,5.29,2.92,9.44,2.92s8.39-1.05,12.13-3.16,6.39-4.68,7.96-7.72c1.57-3.04,2.35-6.98,2.35-11.84v-6.23Z"/>
    <path class="cls-1" d="M428.29,1010.4v-140.56h36.53v15.05c5.05-6.33,9.68-10.61,13.9-12.85,5.69-3,11.98-4.51,18.89-4.51,13.62,0,24.15,5.21,31.59,15.63,7.45,10.42,11.17,23.3,11.17,38.64,0,16.94-4.06,29.87-12.18,38.78-8.12,8.92-18.38,13.38-30.78,13.38-6.01,0-11.49-1.02-16.44-3.07-4.95-2.04-9.38-5.08-13.28-9.11v48.61h-39.41ZM467.41,921.04c0,8.05,1.69,14.03,5.08,17.93,3.39,3.9,7.67,5.85,12.85,5.85,4.54,0,8.34-1.87,11.41-5.61s4.6-10.08,4.6-19.03c0-8.25-1.6-14.3-4.79-18.17-3.2-3.87-7.09-5.8-11.7-5.8-4.99,0-9.14,1.95-12.46,5.85-3.32,3.9-4.99,10.23-4.99,18.98Z"/>
    <path class="cls-1" d="M606.15,831.11v38.74h21.48v28.57h-21.48v36.08c0,4.34.41,7.21,1.25,8.61,1.28,2.17,3.51,3.25,6.71,3.25,2.88,0,6.9-.83,12.08-2.49l2.88,26.94c-9.65,2.11-18.67,3.16-27.04,3.16-9.72,0-16.88-1.24-21.48-3.73-4.6-2.49-8.01-6.27-10.21-11.35s-3.31-13.29-3.31-24.66v-35.81h-14.38v-28.57h14.38v-18.7l39.12-20.04Z"/>
    <path class="cls-1" d="M647.66,831.11h39.02v26.56h-39.02v-26.56ZM647.66,869.84h39.02v101.82h-39.02v-101.82Z"/>
    <path class="cls-1" d="M700.11,869.84h40.6l19.75,64.53,20.5-64.53h39.38l-43.28,101.82h-34.61l-42.34-101.82Z"/>
    <path class="cls-1" d="M939.52,930.44h-78.24c.7,6.26,2.4,10.93,5.08,14,3.77,4.41,8.69,6.62,14.77,6.62,3.83,0,7.48-.96,10.93-2.88,2.11-1.21,4.38-3.36,6.81-6.42l38.45,3.55c-5.88,10.23-12.98,17.56-21.29,22-8.31,4.44-20.23,6.66-35.76,6.66-13.49,0-24.1-1.9-31.83-5.7-7.73-3.8-14.14-9.84-19.22-18.12-5.08-8.28-7.62-18.01-7.62-29.2,0-15.92,5.1-28.79,15.29-38.64,10.19-9.84,24.27-14.76,42.23-14.76,14.57,0,26.08,2.21,34.52,6.62s14.86,10.8,19.27,19.18c4.41,8.37,6.62,19.27,6.62,32.69v4.41ZM899.82,911.74c-.77-7.54-2.8-12.94-6.09-16.2s-7.62-4.89-12.99-4.89c-6.2,0-11.16,2.46-14.86,7.38-2.37,3.07-3.87,7.64-4.51,13.71h38.45Z"/>
  </g>
</svg>